M48
; DRILL file {KiCad 9.0.6} date 2025-11-25T16:13:32-0800
; FORMAT={-:-/ absolute / metric / decimal}
; #@! TF.CreationDate,2025-11-25T16:13:32-08:00
; #@! TF.GenerationSoftware,Kicad,Pcbnew,9.0.6
; #@! TF.FileFunction,Plated,1,2,PTH
FMAT,2
METRIC
; #@! TA.AperFunction,Plated,PTH,ComponentDrill
T1C0.800
; #@! TA.AperFunction,Plated,PTH,ComponentDrill
T2C0.900
; #@! TA.AperFunction,Plated,PTH,ComponentDrill
T3C1.300
%
G90
G05
T1
X121.285Y-74.681
X121.539Y-67.31
X122.936Y-49.652
X123.317Y-91.948
X124.46Y-82.809
X124.714Y-59.563
X125.476Y-49.652
X125.857Y-91.948
X126.46Y-82.809
X126.714Y-59.563
X128.016Y-49.652
X128.397Y-91.948
X128.905Y-74.681
X129.159Y-67.31
X133.985Y-47.094
X133.985Y-49.634
X133.985Y-52.174
X133.985Y-54.714
X134.366Y-60.833
X134.366Y-66.675
X134.366Y-69.215
X134.366Y-71.755
X134.366Y-74.295
X134.366Y-80.772
X134.366Y-87.376
X134.366Y-89.916
X134.366Y-92.456
X134.366Y-94.996
X134.415Y-35.814
X134.415Y-43.434
X140.462Y-38.481
X141.605Y-47.094
X141.605Y-49.634
X141.605Y-52.174
X141.605Y-54.714
X141.986Y-60.833
X141.986Y-66.675
X141.986Y-69.215
X141.986Y-71.755
X141.986Y-74.295
X141.986Y-80.772
X141.986Y-87.376
X141.986Y-89.916
X141.986Y-92.456
X141.986Y-94.996
X142.462Y-38.481
X146.431Y-45.466
X146.685Y-54.737
X147.066Y-74.676
X147.32Y-64.516
X147.447Y-95.25
X147.574Y-84.709
X148.431Y-45.466
X148.685Y-54.737
X149.066Y-74.676
X149.32Y-64.516
X149.447Y-95.25
X149.574Y-84.709
X154.178Y-95.25
X155.194Y-77.169
X155.194Y-82.169
X155.829Y-64.77
X155.829Y-69.77
X161.798Y-95.25
X165.862Y-95.25
X170.862Y-95.25
T2
X111.506Y-36.449
X111.506Y-38.989
T3
X110.617Y-45.72
X110.617Y-50.72
X110.617Y-76.2
X110.617Y-81.2
X110.998Y-59.516
X110.998Y-64.516
X123.19Y-37.846
X128.19Y-37.846
X170.815Y-59.436
X170.815Y-64.436
X170.942Y-74.803
X170.942Y-79.803
M30
