%TF.GenerationSoftware,KiCad,Pcbnew,9.0.6*%
%TF.CreationDate,2025-11-25T16:13:47-08:00*%
%TF.ProjectId,CMPE 110 Lab Project,434d5045-2031-4313-9020-4c6162205072,rev?*%
%TF.SameCoordinates,Original*%
%TF.FileFunction,Copper,L1,Top*%
%TF.FilePolarity,Positive*%
%FSLAX46Y46*%
G04 Gerber Fmt 4.6, Leading zero omitted, Abs format (unit mm)*
G04 Created by KiCad (PCBNEW 9.0.6) date 2025-11-25 16:13:47*
%MOMM*%
%LPD*%
G01*
G04 APERTURE LIST*
G04 Aperture macros list*
%AMRoundRect*
0 Rectangle with rounded corners*
0 $1 Rounding radius*
0 $2 $3 $4 $5 $6 $7 $8 $9 X,Y pos of 4 corners*
0 Add a 4 corners polygon primitive as box body*
4,1,4,$2,$3,$4,$5,$6,$7,$8,$9,$2,$3,0*
0 Add four circle primitives for the rounded corners*
1,1,$1+$1,$2,$3*
1,1,$1+$1,$4,$5*
1,1,$1+$1,$6,$7*
1,1,$1+$1,$8,$9*
0 Add four rect primitives between the rounded corners*
20,1,$1+$1,$2,$3,$4,$5,0*
20,1,$1+$1,$4,$5,$6,$7,0*
20,1,$1+$1,$6,$7,$8,$9,0*
20,1,$1+$1,$8,$9,$2,$3,0*%
G04 Aperture macros list end*
%TA.AperFunction,ComponentPad*%
%ADD10C,1.600000*%
%TD*%
%TA.AperFunction,ComponentPad*%
%ADD11RoundRect,0.250000X-0.950000X-0.550000X0.950000X-0.550000X0.950000X0.550000X-0.950000X0.550000X0*%
%TD*%
%TA.AperFunction,ComponentPad*%
%ADD12O,2.400000X1.600000*%
%TD*%
%TA.AperFunction,ComponentPad*%
%ADD13RoundRect,0.250000X-0.550000X-0.550000X0.550000X-0.550000X0.550000X0.550000X-0.550000X0.550000X0*%
%TD*%
%TA.AperFunction,ComponentPad*%
%ADD14C,1.800000*%
%TD*%
%TA.AperFunction,ComponentPad*%
%ADD15R,1.800000X1.800000*%
%TD*%
%TA.AperFunction,ComponentPad*%
%ADD16RoundRect,0.249999X-1.250001X1.250001X-1.250001X-1.250001X1.250001X-1.250001X1.250001X1.250001X0*%
%TD*%
%TA.AperFunction,ComponentPad*%
%ADD17C,3.000000*%
%TD*%
%TA.AperFunction,ComponentPad*%
%ADD18RoundRect,0.249999X1.250001X1.250001X-1.250001X1.250001X-1.250001X-1.250001X1.250001X-1.250001X0*%
%TD*%
%TA.AperFunction,ComponentPad*%
%ADD19C,1.440000*%
%TD*%
%TA.AperFunction,ComponentPad*%
%ADD20RoundRect,0.249999X1.250001X-1.250001X1.250001X1.250001X-1.250001X1.250001X-1.250001X-1.250001X0*%
%TD*%
%TA.AperFunction,Conductor*%
%ADD21C,0.800000*%
%TD*%
%TA.AperFunction,Conductor*%
%ADD22C,1.000000*%
%TD*%
%TA.AperFunction,Conductor*%
%ADD23C,0.200000*%
%TD*%
%TA.AperFunction,Conductor*%
%ADD24C,0.250000*%
%TD*%
G04 APERTURE END LIST*
D10*
%TO.P,C10,1*%
%TO.N,Net-(C10-Pad1)*%
X165862000Y-95250000D03*
%TO.P,C10,2*%
%TO.N,GND*%
X170862000Y-95250000D03*
%TD*%
D11*
%TO.P,U2,1,GAIN*%
%TO.N,unconnected-(U2-GAIN-Pad1)*%
X134366000Y-66675000D03*
D12*
%TO.P,U2,2,-*%
%TO.N,Net-(U1-+)*%
X134366000Y-69215000D03*
%TO.P,U2,3,+*%
%TO.N,Net-(U2-+)*%
X134366000Y-71755000D03*
%TO.P,U2,4,GND*%
%TO.N,GND*%
X134366000Y-74295000D03*
%TO.P,U2,5*%
%TO.N,Net-(C7-Pad1)*%
X141986000Y-74295000D03*
%TO.P,U2,6,V+*%
%TO.N,Net-(D1-A)*%
X141986000Y-71755000D03*
%TO.P,U2,7,BYPASS*%
%TO.N,Net-(U2-BYPASS)*%
X141986000Y-69215000D03*
%TO.P,U2,8,GAIN*%
%TO.N,unconnected-(U2-GAIN-Pad8)*%
X141986000Y-66675000D03*
%TD*%
D10*
%TO.P,R2,2*%
%TO.N,Net-(C3-Pad1)*%
X141986000Y-60833000D03*
%TO.P,R2,1*%
%TO.N,Net-(C4-Pad1)*%
X134366000Y-60833000D03*
%TD*%
D13*
%TO.P,C12,1*%
%TO.N,Net-(D1-A)*%
X140462000Y-38481000D03*
D10*
%TO.P,C12,2*%
%TO.N,GND*%
X142462000Y-38481000D03*
%TD*%
D14*
%TO.P,D1,2,A*%
%TO.N,Net-(D1-A)*%
X111506000Y-38989000D03*
D15*
%TO.P,D1,1,K*%
%TO.N,Net-(D1-K)*%
X111506000Y-36449000D03*
%TD*%
D10*
%TO.P,R6,1*%
%TO.N,Net-(D1-K)*%
X134415000Y-35814000D03*
%TO.P,R6,2*%
%TO.N,GND*%
X134415000Y-43434000D03*
%TD*%
D13*
%TO.P,CP1,1*%
%TO.N,Net-(Input-Left1-Pin_1)*%
X124714000Y-59563000D03*
D10*
%TO.P,CP1,2*%
%TO.N,Net-(CP1-Pad2)*%
X126714000Y-59563000D03*
%TD*%
%TO.P,R3,1*%
%TO.N,Net-(Input_Right1-Pin_1)*%
X121285000Y-74681000D03*
%TO.P,R3,2*%
%TO.N,GND*%
X128905000Y-74681000D03*
%TD*%
D13*
%TO.P,C8,1*%
%TO.N,Net-(Input_Right1-Pin_1)*%
X124460000Y-82809000D03*
D10*
%TO.P,C8,2*%
%TO.N,Net-(C8-Pad2)*%
X126460000Y-82809000D03*
%TD*%
%TO.P,R1,2*%
%TO.N,GND*%
X129159000Y-67310000D03*
%TO.P,R1,1*%
%TO.N,Net-(Input-Left1-Pin_1)*%
X121539000Y-67310000D03*
%TD*%
D16*
%TO.P,Input-Left1,1,Pin_1*%
%TO.N,Net-(Input-Left1-Pin_1)*%
X110998000Y-59516000D03*
D17*
%TO.P,Input-Left1,2,Pin_2*%
%TO.N,GND*%
X110998000Y-64516000D03*
%TD*%
%TO.P,SW1,2,B*%
%TO.N,Net-(D1-A)*%
X123190000Y-37846000D03*
D18*
%TO.P,SW1,1,A*%
%TO.N,Net-(9V-External1-Pin_2)*%
X128190000Y-37846000D03*
%TD*%
D17*
%TO.P,9V-External1,2,Pin_2*%
%TO.N,Net-(9V-External1-Pin_2)*%
X110617000Y-50720000D03*
D16*
%TO.P,9V-External1,1,Pin_1*%
%TO.N,GND*%
X110617000Y-45720000D03*
%TD*%
D17*
%TO.P,Input_Right1,2,Pin_2*%
%TO.N,GND*%
X110617000Y-81200000D03*
D16*
%TO.P,Input_Right1,1,Pin_1*%
%TO.N,Net-(Input_Right1-Pin_1)*%
X110617000Y-76200000D03*
%TD*%
D10*
%TO.P,C5,2*%
%TO.N,GND*%
X149320000Y-64516000D03*
D13*
%TO.P,C5,1*%
%TO.N,Net-(U2-BYPASS)*%
X147320000Y-64516000D03*
%TD*%
D10*
%TO.P,C7,2*%
%TO.N,Net-(Left-Speaker1-Pin_1)*%
X149066000Y-74676000D03*
D13*
%TO.P,C7,1*%
%TO.N,Net-(C7-Pad1)*%
X147066000Y-74676000D03*
%TD*%
D10*
%TO.P,C6,2*%
%TO.N,GND*%
X155194000Y-82169000D03*
%TO.P,C6,1*%
%TO.N,Net-(C6-Pad1)*%
X155194000Y-77169000D03*
%TD*%
%TO.P,C9,2*%
%TO.N,GND*%
X149574000Y-84709000D03*
D13*
%TO.P,C9,1*%
%TO.N,Net-(U3-BYPASS)*%
X147574000Y-84709000D03*
%TD*%
D10*
%TO.P,C2,2*%
%TO.N,GND*%
X148431000Y-45466000D03*
D13*
%TO.P,C2,1*%
%TO.N,Net-(U1-BYPASS)*%
X146431000Y-45466000D03*
%TD*%
D19*
%TO.P,RV2,3,3*%
%TO.N,GND*%
X123317000Y-91948000D03*
%TO.P,RV2,2,2*%
%TO.N,Net-(U2-+)*%
X125857000Y-91948000D03*
%TO.P,RV2,1,1*%
%TO.N,Net-(C8-Pad2)*%
X128397000Y-91948000D03*
%TD*%
D12*
%TO.P,U1,8,GAIN*%
%TO.N,unconnected-(U1-GAIN-Pad8)*%
X141605000Y-47094000D03*
%TO.P,U1,7,BYPASS*%
%TO.N,Net-(U1-BYPASS)*%
X141605000Y-49634000D03*
%TO.P,U1,6,V+*%
%TO.N,Net-(D1-A)*%
X141605000Y-52174000D03*
%TO.P,U1,5*%
%TO.N,Net-(C4-Pad1)*%
X141605000Y-54714000D03*
%TO.P,U1,4,GND*%
%TO.N,GND*%
X133985000Y-54714000D03*
%TO.P,U1,3,+*%
%TO.N,Net-(U1-+)*%
X133985000Y-52174000D03*
%TO.P,U1,2,-*%
%TO.N,GND*%
X133985000Y-49634000D03*
D11*
%TO.P,U1,1,GAIN*%
%TO.N,unconnected-(U1-GAIN-Pad1)*%
X133985000Y-47094000D03*
%TD*%
D10*
%TO.P,C11,2*%
%TO.N,Net-(Right-Speaker1-Pin_2)*%
X149447000Y-95250000D03*
D13*
%TO.P,C11,1*%
%TO.N,Net-(C11-Pad1)*%
X147447000Y-95250000D03*
%TD*%
D10*
%TO.P,C3,2*%
%TO.N,GND*%
X155829000Y-69770000D03*
%TO.P,C3,1*%
%TO.N,Net-(C3-Pad1)*%
X155829000Y-64770000D03*
%TD*%
%TO.P,C4,2*%
%TO.N,Net-(Left-Speaker1-Pin_2)*%
X148685000Y-54737000D03*
D13*
%TO.P,C4,1*%
%TO.N,Net-(C4-Pad1)*%
X146685000Y-54737000D03*
%TD*%
D17*
%TO.P,Left-Speaker1,2,Pin_2*%
%TO.N,Net-(Left-Speaker1-Pin_2)*%
X170815000Y-59436000D03*
D20*
%TO.P,Left-Speaker1,1,Pin_1*%
%TO.N,Net-(Left-Speaker1-Pin_1)*%
X170815000Y-64436000D03*
%TD*%
D10*
%TO.P,R4,2*%
%TO.N,Net-(C10-Pad1)*%
X161798000Y-95250000D03*
%TO.P,R4,1*%
%TO.N,Net-(C11-Pad1)*%
X154178000Y-95250000D03*
%TD*%
%TO.P,R5,2*%
%TO.N,Net-(C6-Pad1)*%
X141986000Y-80772000D03*
%TO.P,R5,1*%
%TO.N,Net-(C7-Pad1)*%
X134366000Y-80772000D03*
%TD*%
D17*
%TO.P,Right-Speaker1,2,Pin_2*%
%TO.N,Net-(Right-Speaker1-Pin_2)*%
X170942000Y-74803000D03*
D20*
%TO.P,Right-Speaker1,1,Pin_1*%
%TO.N,Net-(Left-Speaker1-Pin_1)*%
X170942000Y-79803000D03*
%TD*%
D19*
%TO.P,RV1,3,3*%
%TO.N,GND*%
X122936000Y-49652000D03*
%TO.P,RV1,2,2*%
%TO.N,Net-(U1-+)*%
X125476000Y-49652000D03*
%TO.P,RV1,1,1*%
%TO.N,Net-(CP1-Pad2)*%
X128016000Y-49652000D03*
%TD*%
D12*
%TO.P,U3,8,GAIN*%
%TO.N,unconnected-(U3-GAIN-Pad8)*%
X141986000Y-87376000D03*
%TO.P,U3,7,BYPASS*%
%TO.N,Net-(U3-BYPASS)*%
X141986000Y-89916000D03*
%TO.P,U3,6,V+*%
%TO.N,Net-(D1-A)*%
X141986000Y-92456000D03*
%TO.P,U3,5*%
%TO.N,Net-(C11-Pad1)*%
X141986000Y-94996000D03*
%TO.P,U3,4,GND*%
%TO.N,GND*%
X134366000Y-94996000D03*
%TO.P,U3,3,+*%
X134366000Y-92456000D03*
%TO.P,U3,2,-*%
%TO.N,Net-(U2-+)*%
X134366000Y-89916000D03*
D11*
%TO.P,U3,1,GAIN*%
%TO.N,unconnected-(U3-GAIN-Pad1)*%
X134366000Y-87376000D03*
%TD*%
D21*
%TO.N,Net-(D1-A)*%
X139723000Y-52174000D02*
X132965000Y-58932000D01*
X132965000Y-62563576D02*
X140185000Y-69783576D01*
X132965000Y-58932000D02*
X132965000Y-62563576D01*
X140185000Y-69954000D02*
X141986000Y-71755000D01*
X140185000Y-69783576D02*
X140185000Y-69954000D01*
X123190000Y-37846000D02*
X125291000Y-35745000D01*
X132364686Y-35745000D02*
X135100686Y-38481000D01*
X125291000Y-35745000D02*
X132364686Y-35745000D01*
X135100686Y-38481000D02*
X140462000Y-38481000D01*
D22*
%TO.N,Net-(C3-Pad1)*%
X141986000Y-60833000D02*
X151892000Y-60833000D01*
X151892000Y-60833000D02*
X155829000Y-64770000D01*
%TO.N,Net-(U2-+)*%
X134366000Y-71755000D02*
X130979000Y-75142000D01*
X130979000Y-75142000D02*
X130979000Y-86840844D01*
X134054156Y-89916000D02*
X134366000Y-89916000D01*
X130979000Y-86840844D02*
X134054156Y-89916000D01*
%TO.N,Net-(U1-+)*%
X133985000Y-52174000D02*
X130979000Y-55180000D01*
X130979000Y-55180000D02*
X130979000Y-66139844D01*
X130979000Y-66139844D02*
X134054156Y-69215000D01*
X134054156Y-69215000D02*
X134366000Y-69215000D01*
X133966000Y-69215000D02*
X134366000Y-69215000D01*
%TO.N,Net-(C10-Pad1)*%
X161798000Y-95250000D02*
X165862000Y-95250000D01*
%TO.N,Net-(C11-Pad1)*%
X147447000Y-95250000D02*
X147447000Y-95372735D01*
X148825265Y-96751000D02*
X152677000Y-96751000D01*
X147447000Y-95372735D02*
X148825265Y-96751000D01*
X152677000Y-96751000D02*
X154178000Y-95250000D01*
D23*
%TO.N,Net-(D1-K)*%
X111506000Y-36449000D02*
X115572500Y-32382500D01*
X115572500Y-32382500D02*
X130983500Y-32382500D01*
X130983500Y-32382500D02*
X134415000Y-35814000D01*
D21*
%TO.N,Net-(D1-A)*%
X123190000Y-37846000D02*
X122047000Y-38989000D01*
X122047000Y-38989000D02*
X111506000Y-38989000D01*
X132080000Y-83058000D02*
X133170951Y-83058000D01*
X133170951Y-83058000D02*
X138938000Y-88825049D01*
D23*
X141986000Y-71755000D02*
X140970000Y-71755000D01*
D21*
X138938000Y-88825049D02*
X138938000Y-90297000D01*
X132080000Y-80645000D02*
X132080000Y-83058000D01*
X140970000Y-71755000D02*
X132080000Y-80645000D01*
X138938000Y-90297000D02*
X139827000Y-90297000D01*
X139827000Y-90297000D02*
X141986000Y-92456000D01*
X141605000Y-52174000D02*
X139723000Y-52174000D01*
X140462000Y-38481000D02*
X138684000Y-40259000D01*
X138684000Y-40259000D02*
X138684000Y-49253000D01*
X138684000Y-49253000D02*
X141605000Y-52174000D01*
D22*
%TO.N,Net-(C6-Pad1)*%
X149860000Y-77169000D02*
X145589000Y-77169000D01*
%TO.N,Net-(C7-Pad1)*%
X135509000Y-80772000D02*
X141986000Y-74295000D01*
%TO.N,Net-(Left-Speaker1-Pin_1)*%
X149066000Y-74676000D02*
X160575000Y-74676000D01*
X160575000Y-74676000D02*
X170815000Y-64436000D01*
X173143000Y-73891315D02*
X173143000Y-77602000D01*
X161163000Y-74676000D02*
X163237000Y-72602000D01*
X163237000Y-72602000D02*
X171853685Y-72602000D01*
X171853685Y-72602000D02*
X173143000Y-73891315D01*
X149066000Y-74676000D02*
X161163000Y-74676000D01*
X173143000Y-77602000D02*
X170942000Y-79803000D01*
D23*
%TO.N,Net-(Input_Right1-Pin_1)*%
X110617000Y-76200000D02*
X117851000Y-76200000D01*
X117851000Y-76200000D02*
X124460000Y-82809000D01*
X110617000Y-76200000D02*
X119766000Y-76200000D01*
X119766000Y-76200000D02*
X121285000Y-74681000D01*
D24*
%TO.N,Net-(Input-Left1-Pin_1)*%
X124714000Y-59563000D02*
X111045000Y-59563000D01*
D23*
X111045000Y-59563000D02*
X110998000Y-59516000D01*
X110998000Y-59516000D02*
X113745000Y-59516000D01*
D24*
X113745000Y-59516000D02*
X121539000Y-67310000D01*
D21*
%TO.N,Net-(9V-External1-Pin_2)*%
X128190000Y-37846000D02*
X115316000Y-50720000D01*
X115316000Y-50720000D02*
X110617000Y-50720000D01*
D23*
%TO.N,Net-(U1-+)*%
X125476000Y-49652000D02*
X126497000Y-48631000D01*
X126497000Y-48631000D02*
X130442000Y-48631000D01*
X130442000Y-48631000D02*
X133985000Y-52174000D01*
D24*
%TO.N,Net-(CP1-Pad2)*%
X128016000Y-49652000D02*
X128016000Y-58261000D01*
X128016000Y-58261000D02*
X126714000Y-59563000D01*
D22*
%TO.N,Net-(C6-Pad1)*%
X155194000Y-77169000D02*
X149860000Y-77169000D01*
X145589000Y-77169000D02*
X141986000Y-80772000D01*
%TO.N,Net-(Left-Speaker1-Pin_2)*%
X170815000Y-59436000D02*
X153384000Y-59436000D01*
X153384000Y-59436000D02*
X148685000Y-54737000D01*
%TO.N,Net-(Right-Speaker1-Pin_2)*%
X149447000Y-95250000D02*
X149447000Y-92515838D01*
X149447000Y-92515838D02*
X167159838Y-74803000D01*
X167159838Y-74803000D02*
X170942000Y-74803000D01*
%TO.N,Net-(C11-Pad1)*%
X147447000Y-95250000D02*
X142240000Y-95250000D01*
D23*
X142240000Y-95250000D02*
X141986000Y-94996000D01*
%TO.N,Net-(U3-BYPASS)*%
X147574000Y-84709000D02*
X147193000Y-84709000D01*
X147193000Y-84709000D02*
X141986000Y-89916000D01*
D22*
%TO.N,Net-(C7-Pad1)*%
X141986000Y-74295000D02*
X146685000Y-74295000D01*
D23*
X146685000Y-74295000D02*
X147066000Y-74676000D01*
D22*
X134366000Y-80772000D02*
X135509000Y-80772000D01*
D23*
%TO.N,Net-(U2-BYPASS)*%
X141986000Y-69215000D02*
X142621000Y-69215000D01*
X142621000Y-69215000D02*
X147320000Y-64516000D01*
D22*
%TO.N,Net-(C4-Pad1)*%
X141605000Y-54714000D02*
X140485000Y-54714000D01*
X140485000Y-54714000D02*
X134366000Y-60833000D01*
X146685000Y-54737000D02*
X141628000Y-54737000D01*
D23*
X141628000Y-54737000D02*
X141605000Y-54714000D01*
%TO.N,Net-(U1-BYPASS)*%
X146431000Y-45466000D02*
X145773000Y-45466000D01*
X145773000Y-45466000D02*
X141605000Y-49634000D01*
%TO.N,Net-(U2-+)*%
X127889000Y-89916000D02*
X134366000Y-89916000D01*
X125857000Y-91948000D02*
X127889000Y-89916000D01*
%TO.N,Net-(C8-Pad2)*%
X124836000Y-92370913D02*
X124836000Y-84433000D01*
X125434087Y-92969000D02*
X124836000Y-92370913D01*
X124836000Y-84433000D02*
X126460000Y-82809000D01*
X127376000Y-92969000D02*
X125434087Y-92969000D01*
X128397000Y-91948000D02*
X127376000Y-92969000D01*
%TD*%
M02*
