%TF.GenerationSoftware,KiCad,Pcbnew,9.0.6*%
%TF.CreationDate,2025-11-25T16:13:47-08:00*%
%TF.ProjectId,CMPE 110 Lab Project,434d5045-2031-4313-9020-4c6162205072,rev?*%
%TF.SameCoordinates,Original*%
%TF.FileFunction,Copper,L2,Bot*%
%TF.FilePolarity,Positive*%
%FSLAX46Y46*%
G04 Gerber Fmt 4.6, Leading zero omitted, Abs format (unit mm)*
G04 Created by KiCad (PCBNEW 9.0.6) date 2025-11-25 16:13:47*
%MOMM*%
%LPD*%
G01*
G04 APERTURE LIST*
G04 Aperture macros list*
%AMRoundRect*
0 Rectangle with rounded corners*
0 $1 Rounding radius*
0 $2 $3 $4 $5 $6 $7 $8 $9 X,Y pos of 4 corners*
0 Add a 4 corners polygon primitive as box body*
4,1,4,$2,$3,$4,$5,$6,$7,$8,$9,$2,$3,0*
0 Add four circle primitives for the rounded corners*
1,1,$1+$1,$2,$3*
1,1,$1+$1,$4,$5*
1,1,$1+$1,$6,$7*
1,1,$1+$1,$8,$9*
0 Add four rect primitives between the rounded corners*
20,1,$1+$1,$2,$3,$4,$5,0*
20,1,$1+$1,$4,$5,$6,$7,0*
20,1,$1+$1,$6,$7,$8,$9,0*
20,1,$1+$1,$8,$9,$2,$3,0*%
G04 Aperture macros list end*
%TA.AperFunction,ComponentPad*%
%ADD10C,1.600000*%
%TD*%
%TA.AperFunction,ComponentPad*%
%ADD11RoundRect,0.250000X-0.950000X-0.550000X0.950000X-0.550000X0.950000X0.550000X-0.950000X0.550000X0*%
%TD*%
%TA.AperFunction,ComponentPad*%
%ADD12O,2.400000X1.600000*%
%TD*%
%TA.AperFunction,ComponentPad*%
%ADD13RoundRect,0.250000X-0.550000X-0.550000X0.550000X-0.550000X0.550000X0.550000X-0.550000X0.550000X0*%
%TD*%
%TA.AperFunction,ComponentPad*%
%ADD14C,1.800000*%
%TD*%
%TA.AperFunction,ComponentPad*%
%ADD15R,1.800000X1.800000*%
%TD*%
%TA.AperFunction,ComponentPad*%
%ADD16RoundRect,0.249999X-1.250001X1.250001X-1.250001X-1.250001X1.250001X-1.250001X1.250001X1.250001X0*%
%TD*%
%TA.AperFunction,ComponentPad*%
%ADD17C,3.000000*%
%TD*%
%TA.AperFunction,ComponentPad*%
%ADD18RoundRect,0.249999X1.250001X1.250001X-1.250001X1.250001X-1.250001X-1.250001X1.250001X-1.250001X0*%
%TD*%
%TA.AperFunction,ComponentPad*%
%ADD19C,1.440000*%
%TD*%
%TA.AperFunction,ComponentPad*%
%ADD20RoundRect,0.249999X1.250001X-1.250001X1.250001X1.250001X-1.250001X1.250001X-1.250001X-1.250001X0*%
%TD*%
%TA.AperFunction,Conductor*%
%ADD21C,0.200000*%
%TD*%
G04 APERTURE END LIST*
D10*
%TO.P,C10,1*%
%TO.N,Net-(C10-Pad1)*%
X165862000Y-95250000D03*
%TO.P,C10,2*%
%TO.N,GND*%
X170862000Y-95250000D03*
%TD*%
D11*
%TO.P,U2,1,GAIN*%
%TO.N,unconnected-(U2-GAIN-Pad1)*%
X134366000Y-66675000D03*
D12*
%TO.P,U2,2,-*%
%TO.N,Net-(U1-+)*%
X134366000Y-69215000D03*
%TO.P,U2,3,+*%
%TO.N,Net-(U2-+)*%
X134366000Y-71755000D03*
%TO.P,U2,4,GND*%
%TO.N,GND*%
X134366000Y-74295000D03*
%TO.P,U2,5*%
%TO.N,Net-(C7-Pad1)*%
X141986000Y-74295000D03*
%TO.P,U2,6,V+*%
%TO.N,Net-(D1-A)*%
X141986000Y-71755000D03*
%TO.P,U2,7,BYPASS*%
%TO.N,Net-(U2-BYPASS)*%
X141986000Y-69215000D03*
%TO.P,U2,8,GAIN*%
%TO.N,unconnected-(U2-GAIN-Pad8)*%
X141986000Y-66675000D03*
%TD*%
D10*
%TO.P,R2,2*%
%TO.N,Net-(C3-Pad1)*%
X141986000Y-60833000D03*
%TO.P,R2,1*%
%TO.N,Net-(C4-Pad1)*%
X134366000Y-60833000D03*
%TD*%
D13*
%TO.P,C12,1*%
%TO.N,Net-(D1-A)*%
X140462000Y-38481000D03*
D10*
%TO.P,C12,2*%
%TO.N,GND*%
X142462000Y-38481000D03*
%TD*%
D14*
%TO.P,D1,2,A*%
%TO.N,Net-(D1-A)*%
X111506000Y-38989000D03*
D15*
%TO.P,D1,1,K*%
%TO.N,Net-(D1-K)*%
X111506000Y-36449000D03*
%TD*%
D10*
%TO.P,R6,1*%
%TO.N,Net-(D1-K)*%
X134415000Y-35814000D03*
%TO.P,R6,2*%
%TO.N,GND*%
X134415000Y-43434000D03*
%TD*%
D13*
%TO.P,CP1,1*%
%TO.N,Net-(Input-Left1-Pin_1)*%
X124714000Y-59563000D03*
D10*
%TO.P,CP1,2*%
%TO.N,Net-(CP1-Pad2)*%
X126714000Y-59563000D03*
%TD*%
%TO.P,R3,1*%
%TO.N,Net-(Input_Right1-Pin_1)*%
X121285000Y-74681000D03*
%TO.P,R3,2*%
%TO.N,GND*%
X128905000Y-74681000D03*
%TD*%
D13*
%TO.P,C8,1*%
%TO.N,Net-(Input_Right1-Pin_1)*%
X124460000Y-82809000D03*
D10*
%TO.P,C8,2*%
%TO.N,Net-(C8-Pad2)*%
X126460000Y-82809000D03*
%TD*%
%TO.P,R1,2*%
%TO.N,GND*%
X129159000Y-67310000D03*
%TO.P,R1,1*%
%TO.N,Net-(Input-Left1-Pin_1)*%
X121539000Y-67310000D03*
%TD*%
D16*
%TO.P,Input-Left1,1,Pin_1*%
%TO.N,Net-(Input-Left1-Pin_1)*%
X110998000Y-59516000D03*
D17*
%TO.P,Input-Left1,2,Pin_2*%
%TO.N,GND*%
X110998000Y-64516000D03*
%TD*%
%TO.P,SW1,2,B*%
%TO.N,Net-(D1-A)*%
X123190000Y-37846000D03*
D18*
%TO.P,SW1,1,A*%
%TO.N,Net-(9V-External1-Pin_2)*%
X128190000Y-37846000D03*
%TD*%
D17*
%TO.P,9V-External1,2,Pin_2*%
%TO.N,Net-(9V-External1-Pin_2)*%
X110617000Y-50720000D03*
D16*
%TO.P,9V-External1,1,Pin_1*%
%TO.N,GND*%
X110617000Y-45720000D03*
%TD*%
D17*
%TO.P,Input_Right1,2,Pin_2*%
%TO.N,GND*%
X110617000Y-81200000D03*
D16*
%TO.P,Input_Right1,1,Pin_1*%
%TO.N,Net-(Input_Right1-Pin_1)*%
X110617000Y-76200000D03*
%TD*%
D10*
%TO.P,C5,2*%
%TO.N,GND*%
X149320000Y-64516000D03*
D13*
%TO.P,C5,1*%
%TO.N,Net-(U2-BYPASS)*%
X147320000Y-64516000D03*
%TD*%
D10*
%TO.P,C7,2*%
%TO.N,Net-(Left-Speaker1-Pin_1)*%
X149066000Y-74676000D03*
D13*
%TO.P,C7,1*%
%TO.N,Net-(C7-Pad1)*%
X147066000Y-74676000D03*
%TD*%
D10*
%TO.P,C6,2*%
%TO.N,GND*%
X155194000Y-82169000D03*
%TO.P,C6,1*%
%TO.N,Net-(C6-Pad1)*%
X155194000Y-77169000D03*
%TD*%
%TO.P,C9,2*%
%TO.N,GND*%
X149574000Y-84709000D03*
D13*
%TO.P,C9,1*%
%TO.N,Net-(U3-BYPASS)*%
X147574000Y-84709000D03*
%TD*%
D10*
%TO.P,C2,2*%
%TO.N,GND*%
X148431000Y-45466000D03*
D13*
%TO.P,C2,1*%
%TO.N,Net-(U1-BYPASS)*%
X146431000Y-45466000D03*
%TD*%
D19*
%TO.P,RV2,3,3*%
%TO.N,GND*%
X123317000Y-91948000D03*
%TO.P,RV2,2,2*%
%TO.N,Net-(U2-+)*%
X125857000Y-91948000D03*
%TO.P,RV2,1,1*%
%TO.N,Net-(C8-Pad2)*%
X128397000Y-91948000D03*
%TD*%
D12*
%TO.P,U1,8,GAIN*%
%TO.N,unconnected-(U1-GAIN-Pad8)*%
X141605000Y-47094000D03*
%TO.P,U1,7,BYPASS*%
%TO.N,Net-(U1-BYPASS)*%
X141605000Y-49634000D03*
%TO.P,U1,6,V+*%
%TO.N,Net-(D1-A)*%
X141605000Y-52174000D03*
%TO.P,U1,5*%
%TO.N,Net-(C4-Pad1)*%
X141605000Y-54714000D03*
%TO.P,U1,4,GND*%
%TO.N,GND*%
X133985000Y-54714000D03*
%TO.P,U1,3,+*%
%TO.N,Net-(U1-+)*%
X133985000Y-52174000D03*
%TO.P,U1,2,-*%
%TO.N,GND*%
X133985000Y-49634000D03*
D11*
%TO.P,U1,1,GAIN*%
%TO.N,unconnected-(U1-GAIN-Pad1)*%
X133985000Y-47094000D03*
%TD*%
D10*
%TO.P,C11,2*%
%TO.N,Net-(Right-Speaker1-Pin_2)*%
X149447000Y-95250000D03*
D13*
%TO.P,C11,1*%
%TO.N,Net-(C11-Pad1)*%
X147447000Y-95250000D03*
%TD*%
D10*
%TO.P,C3,2*%
%TO.N,GND*%
X155829000Y-69770000D03*
%TO.P,C3,1*%
%TO.N,Net-(C3-Pad1)*%
X155829000Y-64770000D03*
%TD*%
%TO.P,C4,2*%
%TO.N,Net-(Left-Speaker1-Pin_2)*%
X148685000Y-54737000D03*
D13*
%TO.P,C4,1*%
%TO.N,Net-(C4-Pad1)*%
X146685000Y-54737000D03*
%TD*%
D17*
%TO.P,Left-Speaker1,2,Pin_2*%
%TO.N,Net-(Left-Speaker1-Pin_2)*%
X170815000Y-59436000D03*
D20*
%TO.P,Left-Speaker1,1,Pin_1*%
%TO.N,Net-(Left-Speaker1-Pin_1)*%
X170815000Y-64436000D03*
%TD*%
D10*
%TO.P,R4,2*%
%TO.N,Net-(C10-Pad1)*%
X161798000Y-95250000D03*
%TO.P,R4,1*%
%TO.N,Net-(C11-Pad1)*%
X154178000Y-95250000D03*
%TD*%
%TO.P,R5,2*%
%TO.N,Net-(C6-Pad1)*%
X141986000Y-80772000D03*
%TO.P,R5,1*%
%TO.N,Net-(C7-Pad1)*%
X134366000Y-80772000D03*
%TD*%
D17*
%TO.P,Right-Speaker1,2,Pin_2*%
%TO.N,Net-(Right-Speaker1-Pin_2)*%
X170942000Y-74803000D03*
D20*
%TO.P,Right-Speaker1,1,Pin_1*%
%TO.N,Net-(Left-Speaker1-Pin_1)*%
X170942000Y-79803000D03*
%TD*%
D19*
%TO.P,RV1,3,3*%
%TO.N,GND*%
X122936000Y-49652000D03*
%TO.P,RV1,2,2*%
%TO.N,Net-(U1-+)*%
X125476000Y-49652000D03*
%TO.P,RV1,1,1*%
%TO.N,Net-(CP1-Pad2)*%
X128016000Y-49652000D03*
%TD*%
D12*
%TO.P,U3,8,GAIN*%
%TO.N,unconnected-(U3-GAIN-Pad8)*%
X141986000Y-87376000D03*
%TO.P,U3,7,BYPASS*%
%TO.N,Net-(U3-BYPASS)*%
X141986000Y-89916000D03*
%TO.P,U3,6,V+*%
%TO.N,Net-(D1-A)*%
X141986000Y-92456000D03*
%TO.P,U3,5*%
%TO.N,Net-(C11-Pad1)*%
X141986000Y-94996000D03*
%TO.P,U3,4,GND*%
%TO.N,GND*%
X134366000Y-94996000D03*
%TO.P,U3,3,+*%
X134366000Y-92456000D03*
%TO.P,U3,2,-*%
%TO.N,Net-(U2-+)*%
X134366000Y-89916000D03*
D11*
%TO.P,U3,1,GAIN*%
%TO.N,unconnected-(U3-GAIN-Pad1)*%
X134366000Y-87376000D03*
%TD*%
D21*
%TO.N,GND*%
X149320000Y-64516000D02*
X149352000Y-64516000D01*
X149352000Y-64516000D02*
X154606000Y-69770000D01*
X154606000Y-69770000D02*
X155829000Y-69770000D01*
X155194000Y-82169000D02*
X157781000Y-82169000D01*
X157781000Y-82169000D02*
X170862000Y-95250000D01*
X149574000Y-84709000D02*
X149574000Y-85011000D01*
X149574000Y-84709000D02*
X152654000Y-84709000D01*
X152654000Y-84709000D02*
X155194000Y-82169000D01*
X134366000Y-92456000D02*
X135805000Y-91017000D01*
X135805000Y-91017000D02*
X143266000Y-91017000D01*
X143266000Y-91017000D02*
X149574000Y-84709000D01*
X123317000Y-91948000D02*
X126365000Y-94996000D01*
X126365000Y-94996000D02*
X134366000Y-94996000D01*
X123317000Y-91948000D02*
X124338000Y-92969000D01*
X124338000Y-92969000D02*
X133853000Y-92969000D01*
X133853000Y-92969000D02*
X134366000Y-92456000D01*
X110617000Y-81200000D02*
X121365000Y-91948000D01*
X121365000Y-91948000D02*
X123317000Y-91948000D01*
X129159000Y-67310000D02*
X130895000Y-65574000D01*
X146491840Y-65574000D02*
X146534840Y-65617000D01*
X146534840Y-65617000D02*
X148219000Y-65617000D01*
X130895000Y-65574000D02*
X146491840Y-65574000D01*
X148219000Y-65617000D02*
X149320000Y-64516000D01*
X128905000Y-74681000D02*
X133980000Y-74681000D01*
X133980000Y-74681000D02*
X134366000Y-74295000D01*
X129159000Y-67310000D02*
X129159000Y-74427000D01*
X129159000Y-74427000D02*
X128905000Y-74681000D01*
X110998000Y-64516000D02*
X126365000Y-64516000D01*
X126365000Y-64516000D02*
X129159000Y-67310000D01*
X122936000Y-49652000D02*
X127998000Y-54714000D01*
X127998000Y-54714000D02*
X133985000Y-54714000D01*
X122936000Y-49652000D02*
X123957000Y-50673000D01*
X132946000Y-50673000D02*
X133985000Y-49634000D01*
X123957000Y-50673000D02*
X132946000Y-50673000D01*
X142462000Y-38481000D02*
X148431000Y-44450000D01*
X148431000Y-44450000D02*
X148431000Y-45466000D01*
X134415000Y-43434000D02*
X137509000Y-43434000D01*
X137509000Y-43434000D02*
X142462000Y-38481000D01*
X122936000Y-49652000D02*
X129154000Y-43434000D01*
X129154000Y-43434000D02*
X134415000Y-43434000D01*
X110617000Y-45720000D02*
X119004000Y-45720000D01*
X119004000Y-45720000D02*
X122936000Y-49652000D01*
X110998000Y-64516000D02*
X112498000Y-66016000D01*
X112498000Y-66016000D02*
X112498000Y-79319000D01*
X112498000Y-79319000D02*
X110617000Y-81200000D01*
X110617000Y-45720000D02*
X112799000Y-47902000D01*
X112799000Y-47902000D02*
X112799000Y-62715000D01*
X112799000Y-62715000D02*
X110998000Y-64516000D01*
%TD*%
%TA.AperFunction,Conductor*%
%TO.N,GND*%
G36*
X134616000Y-94680314D02*
G01*
X134611606Y-94675920D01*
X134520394Y-94623259D01*
X134418661Y-94596000D01*
X134313339Y-94596000D01*
X134211606Y-94623259D01*
X134120394Y-94675920D01*
X134116000Y-94680314D01*
X134116000Y-92771686D01*
X134120394Y-92776080D01*
X134211606Y-92828741D01*
X134313339Y-92856000D01*
X134418661Y-92856000D01*
X134520394Y-92828741D01*
X134611606Y-92776080D01*
X134616000Y-92771686D01*
X134616000Y-94680314D01*
G37*
%TD.AperFunction*%
%TA.AperFunction,Conductor*%
G36*
X176226539Y-31635185D02*
G01*
X176272294Y-31687989D01*
X176283500Y-31739500D01*
X176283500Y-99959500D01*
X176263815Y-100026539D01*
X176211011Y-100072294D01*
X176159500Y-100083500D01*
X104891500Y-100083500D01*
X104824461Y-100063815D01*
X104778706Y-100011011D01*
X104767500Y-99959500D01*
X104767500Y-91851984D01*
X122097000Y-91851984D01*
X122097000Y-92044015D01*
X122127040Y-92233684D01*
X122186383Y-92416321D01*
X122273561Y-92587415D01*
X122294798Y-92616646D01*
X122917000Y-91994445D01*
X122917000Y-92000661D01*
X122944259Y-92102394D01*
X122996920Y-92193606D01*
X123071394Y-92268080D01*
X123162606Y-92320741D01*
X123264339Y-92348000D01*
X123270554Y-92348000D01*
X122648351Y-92970200D01*
X122648352Y-92970201D01*
X122677577Y-92991434D01*
X122848678Y-93078616D01*
X123031315Y-93137959D01*
X123220985Y-93168000D01*
X123413015Y-93168000D01*
X123602684Y-93137959D01*
X123785321Y-93078616D01*
X123956419Y-92991436D01*
X123985646Y-92970201D01*
X123985646Y-92970200D01*
X123363447Y-92348000D01*
X123369661Y-92348000D01*
X123471394Y-92320741D01*
X123562606Y-92268080D01*
X123637080Y-92193606D01*
X123689741Y-92102394D01*
X123717000Y-92000661D01*
X123717000Y-91994446D01*
X124339200Y-92616646D01*
X124339201Y-92616646D01*
X124360436Y-92587419D01*
X124447616Y-92416319D01*
X124468805Y-92351108D01*
X124508242Y-92293433D01*
X124572600Y-92266234D01*
X124641447Y-92278148D01*
X124692923Y-92325392D01*
X124704667Y-92351108D01*
X124725916Y-92416505D01*
X124725917Y-92416506D01*
X124725918Y-92416509D01*
X124813135Y-92587681D01*
X124926055Y-92743102D01*
X125061898Y-92878945D01*
X125217319Y-92991865D01*
X125387576Y-93078616D01*
X125388493Y-93079083D01*
X125479845Y-93108764D01*
X125571199Y-93138447D01*
X125760945Y-93168500D01*
X125760946Y-93168500D01*
X125953054Y-93168500D01*
X125953055Y-93168500D01*
X126142801Y-93138447D01*
X126325509Y-93079082D01*
X126496681Y-92991865D01*
X126652102Y-92878945D01*
X126787945Y-92743102D01*
X126900865Y-92587681D01*
X126988082Y-92416509D01*
X126988144Y-92416319D01*
X127009069Y-92351919D01*
X127048506Y-92294243D01*
X127112864Y-92267044D01*
X127181711Y-92278958D01*
X127233187Y-92326202D01*
X127244931Y-92351919D01*
X127265915Y-92416504D01*
X127338191Y-92558352D01*
X127353135Y-92587681D01*
X127466055Y-92743102D01*
X127601898Y-92878945D01*
X127757319Y-92991865D01*
X127927576Y-93078616D01*
X127928493Y-93079083D01*
X128019845Y-93108764D01*
X128111199Y-93138447D01*
X128300945Y-93168500D01*
X128300946Y-93168500D01*
X128493054Y-93168500D01*
X128493055Y-93168500D01*
X128682801Y-93138447D01*
X128865509Y-93079082D01*
X129036681Y-92991865D01*
X129192102Y-92878945D01*
X129327945Y-92743102D01*
X129440865Y-92587681D01*
X129528082Y-92416509D01*
X129587447Y-92233801D01*
X129617500Y-92044055D01*
X129617500Y-91851945D01*
X129587447Y-91662199D01*
X129549332Y-91544891D01*
X129528083Y-91479493D01*
X129520203Y-91464028D01*
X129440865Y-91308319D01*
X129327945Y-91152898D01*
X129192102Y-91017055D01*
X129036681Y-90904135D01*
X128865506Y-90816916D01*
X128682802Y-90757553D01*
X128587928Y-90742526D01*
X128493055Y-90727500D01*
X128300945Y-90727500D01*
X128237696Y-90737517D01*
X128111197Y-90757553D01*
X127928493Y-90816916D01*
X127757318Y-90904135D01*
X127727502Y-90925798D01*
X127601898Y-91017055D01*
X127601896Y-91017057D01*
X127601895Y-91017057D01*
X127466057Y-91152895D01*
X127466057Y-91152896D01*
X127466055Y-91152898D01*
X127437943Y-91191591D01*
X127353135Y-91308318D01*
X127265916Y-91479493D01*
X127244931Y-91544081D01*
X127205494Y-91601756D01*
X127141135Y-91628955D01*
X127072289Y-91617041D01*
X127020813Y-91569797D01*
X127009069Y-91544081D01*
X126988083Y-91479493D01*
X126980203Y-91464028D01*
X126900865Y-91308319D01*
X126787945Y-91152898D01*
X126652102Y-91017055D01*
X126496681Y-90904135D01*
X126325506Y-90816916D01*
X126142802Y-90757553D01*
X126047928Y-90742526D01*
X125953055Y-90727500D01*
X125760945Y-90727500D01*
X125697696Y-90737517D01*
X125571197Y-90757553D01*
X125388493Y-90816916D01*
X125217318Y-90904135D01*
X125187502Y-90925798D01*
X125061898Y-91017055D01*
X125061896Y-91017057D01*
X125061895Y-91017057D01*
X124926057Y-91152895D01*
X124926057Y-91152896D01*
X124926055Y-91152898D01*
X124897943Y-91191591D01*
X124813135Y-91308318D01*
X124725917Y-91479492D01*
X124704667Y-91544892D01*
X124665229Y-91602567D01*
X124600870Y-91629765D01*
X124532024Y-91617850D01*
X124480548Y-91570605D01*
X124468805Y-91544891D01*
X124447616Y-91479680D01*
X124360434Y-91308577D01*
X124339201Y-91279352D01*
X124339200Y-91279351D01*
X123717000Y-91901552D01*
X123717000Y-91895339D01*
X123689741Y-91793606D01*
X123637080Y-91702394D01*
X123562606Y-91627920D01*
X123471394Y-91575259D01*
X123369661Y-91548000D01*
X123363447Y-91548000D01*
X123985646Y-90925798D01*
X123956415Y-90904561D01*
X123785321Y-90817383D01*
X123602684Y-90758040D01*
X123413015Y-90728000D01*
X123220985Y-90728000D01*
X123031315Y-90758040D01*
X122848678Y-90817383D01*
X122677578Y-90904564D01*
X122648352Y-90925798D01*
X122648351Y-90925798D01*
X123270554Y-91548000D01*
X123264339Y-91548000D01*
X123162606Y-91575259D01*
X123071394Y-91627920D01*
X122996920Y-91702394D01*
X122944259Y-91793606D01*
X122917000Y-91895339D01*
X122917000Y-91901553D01*
X122294798Y-91279351D01*
X122294798Y-91279352D01*
X122273564Y-91308578D01*
X122186383Y-91479678D01*
X122127040Y-91662315D01*
X122097000Y-91851984D01*
X104767500Y-91851984D01*
X104767500Y-86775983D01*
X132665500Y-86775983D01*
X132665500Y-87976001D01*
X132665501Y-87976018D01*
X132676000Y-88078796D01*
X132676001Y-88078799D01*
X132723856Y-88223213D01*
X132731186Y-88245334D01*
X132823288Y-88394656D01*
X132947344Y-88518712D01*
X133096666Y-88610814D01*
X133178570Y-88637954D01*
X133236015Y-88677727D01*
X133262838Y-88742243D01*
X133250523Y-88811018D01*
X133212451Y-88855978D01*
X133118787Y-88924028D01*
X133118782Y-88924032D01*
X132974028Y-89068786D01*
X132853715Y-89234386D01*
X132760781Y-89416776D01*
X132697522Y-89611465D01*
X132665500Y-89813648D01*
X132665500Y-90018351D01*
X132697522Y-90220534D01*
X132760781Y-90415223D01*
X132853715Y-90597613D01*
X132974028Y-90763213D01*
X133118786Y-90907971D01*
X133268930Y-91017055D01*
X133284390Y-91028287D01*
X133356424Y-91064990D01*
X133377629Y-91075795D01*
X133428425Y-91123770D01*
X133445220Y-91191591D01*
X133422682Y-91257726D01*
X133377629Y-91296765D01*
X133284650Y-91344140D01*
X133119105Y-91464417D01*
X133119104Y-91464417D01*
X132974417Y-91609104D01*
X132974417Y-91609105D01*
X132854140Y-91774650D01*
X132761244Y-91956970D01*
X132698009Y-92151586D01*
X132689391Y-92206000D01*
X134050314Y-92206000D01*
X134045920Y-92210394D01*
X133993259Y-92301606D01*
X133966000Y-92403339D01*
X133966000Y-92508661D01*
X133993259Y-92610394D01*
X134045920Y-92701606D01*
X134050314Y-92706000D01*
X132689391Y-92706000D01*
X132698009Y-92760413D01*
X132761244Y-92955029D01*
X132854140Y-93137349D01*
X132974417Y-93302894D01*
X132974417Y-93302895D01*
X133119104Y-93447582D01*
X133284650Y-93567859D01*
X133378179Y-93615515D01*
X133428975Y-93663490D01*
X133445770Y-93731311D01*
X133423232Y-93797446D01*
X133378179Y-93836485D01*
X133284650Y-93884140D01*
X133119105Y-94004417D01*
X133119104Y-94004417D01*
X132974417Y-94149104D01*
X132974417Y-94149105D01*
X132854140Y-94314650D01*
X132761244Y-94496970D01*
X132698009Y-94691586D01*
X132689391Y-94746000D01*
X134050314Y-94746000D01*
X134045920Y-94750394D01*
X133993259Y-94841606D01*
X133966000Y-94943339D01*
X133966000Y-95048661D01*
X133993259Y-95150394D01*
X134045920Y-95241606D01*
X134050314Y-95246000D01*
X132689391Y-95246000D01*
X132698009Y-95300413D01*
X132761244Y-95495029D01*
X132854140Y-95677349D01*
X132974417Y-95842894D01*
X132974417Y-95842895D01*
X133119104Y-95987582D01*
X133284650Y-96107859D01*
X133466968Y-96200755D01*
X133661582Y-96263990D01*
X133863683Y-96296000D01*
X134116000Y-96296000D01*
X134116000Y-95311686D01*
X134120394Y-95316080D01*
X134211606Y-95368741D01*
X134313339Y-95396000D01*
X134418661Y-95396000D01*
X134520394Y-95368741D01*
X134611606Y-95316080D01*
X134616000Y-95311686D01*
X134616000Y-96296000D01*
X134868317Y-96296000D01*
X135070417Y-96263990D01*
X135265031Y-96200755D01*
X135447349Y-96107859D01*
X135612894Y-95987582D01*
X135612895Y-95987582D01*
X135757582Y-95842895D01*
X135757582Y-95842894D01*
X135877859Y-95677349D01*
X135970755Y-95495029D01*
X136033990Y-95300413D01*
X136042609Y-95246000D01*
X134681686Y-95246000D01*
X134686080Y-95241606D01*
X134738741Y-95150394D01*
X134766000Y-95048661D01*
X134766000Y-94943339D01*
X134738741Y-94841606D01*
X134686080Y-94750394D01*
X134681686Y-94746000D01*
X136042609Y-94746000D01*
X136033990Y-94691586D01*
X135970755Y-94496970D01*
X135877859Y-94314650D01*
X135757582Y-94149105D01*
X135757582Y-94149104D01*
X135612895Y-94004417D01*
X135447349Y-93884140D01*
X135353820Y-93836485D01*
X135303024Y-93788511D01*
X135286229Y-93720690D01*
X135308766Y-93654555D01*
X135353820Y-93615515D01*
X135447349Y-93567859D01*
X135612894Y-93447582D01*
X135612895Y-93447582D01*
X135757582Y-93302895D01*
X135757582Y-93302894D01*
X135877859Y-93137349D01*
X135970755Y-92955029D01*
X136033990Y-92760413D01*
X136042609Y-92706000D01*
X134681686Y-92706000D01*
X134686080Y-92701606D01*
X134738741Y-92610394D01*
X134766000Y-92508661D01*
X134766000Y-92403339D01*
X134738741Y-92301606D01*
X134686080Y-92210394D01*
X134681686Y-92206000D01*
X136042609Y-92206000D01*
X136033990Y-92151586D01*
X135970755Y-91956970D01*
X135877859Y-91774650D01*
X135757582Y-91609105D01*
X135757582Y-91609104D01*
X135612895Y-91464417D01*
X135447349Y-91344140D01*
X135354370Y-91296765D01*
X135303574Y-91248790D01*
X135286779Y-91180969D01*
X135309316Y-91114835D01*
X135354370Y-91075795D01*
X135354920Y-91075515D01*
X135447610Y-91028287D01*
X135468770Y-91012913D01*
X135613213Y-90907971D01*
X135613215Y-90907968D01*
X135613219Y-90907966D01*
X135757966Y-90763219D01*
X135757968Y-90763215D01*
X135757971Y-90763213D01*
X135810732Y-90690590D01*
X135878287Y-90597610D01*
X135971220Y-90415219D01*
X136034477Y-90220534D01*
X136066500Y-90018352D01*
X136066500Y-89813648D01*
X136034477Y-89611466D01*
X135971220Y-89416781D01*
X135971218Y-89416778D01*
X135971218Y-89416776D01*
X135937503Y-89350607D01*
X135878287Y-89234390D01*
X135870556Y-89223749D01*
X135757971Y-89068786D01*
X135613219Y-88924034D01*
X135613211Y-88924028D01*
X135519547Y-88855978D01*
X135476882Y-88800649D01*
X135470903Y-88731036D01*
X135503508Y-88669240D01*
X135553426Y-88637955D01*
X135635334Y-88610814D01*
X135784656Y-88518712D01*
X135908712Y-88394656D01*
X136000814Y-88245334D01*
X136055999Y-88078797D01*
X136066500Y-87976009D01*
X136066499Y-87273648D01*
X140285500Y-87273648D01*
X140285500Y-87478351D01*
X140317522Y-87680534D01*
X140380781Y-87875223D01*
X140473715Y-88057613D01*
X140594028Y-88223213D01*
X140738786Y-88367971D01*
X140893749Y-88480556D01*
X140904390Y-88488287D01*
X140995840Y-88534883D01*
X140997080Y-88535515D01*
X141047876Y-88583490D01*
X141064671Y-88651311D01*
X141042134Y-88717446D01*
X140997080Y-88756485D01*
X140904386Y-88803715D01*
X140738786Y-88924028D01*
X140594028Y-89068786D01*
X140473715Y-89234386D01*
X140380781Y-89416776D01*
X140317522Y-89611465D01*
X140285500Y-89813648D01*
X140285500Y-90018351D01*
X140317522Y-90220534D01*
X140380781Y-90415223D01*
X140473715Y-90597613D01*
X140594028Y-90763213D01*
X140738786Y-90907971D01*
X140888930Y-91017055D01*
X140904390Y-91028287D01*
X140995840Y-91074883D01*
X140997080Y-91075515D01*
X141047876Y-91123490D01*
X141064671Y-91191311D01*
X141042134Y-91257446D01*
X140997080Y-91296485D01*
X140904386Y-91343715D01*
X140738786Y-91464028D01*
X140594028Y-91608786D01*
X140473715Y-91774386D01*
X140380781Y-91956776D01*
X140317522Y-92151465D01*
X140285500Y-92353648D01*
X140285500Y-92558351D01*
X140317522Y-92760534D01*
X140380781Y-92955223D01*
X140473715Y-93137613D01*
X140594028Y-93303213D01*
X140738786Y-93447971D01*
X140893749Y-93560556D01*
X140904390Y-93568287D01*
X140995840Y-93614883D01*
X140997080Y-93615515D01*
X141047876Y-93663490D01*
X141064671Y-93731311D01*
X141042134Y-93797446D01*
X140997080Y-93836485D01*
X140904386Y-93883715D01*
X140738786Y-94004028D01*
X140594028Y-94148786D01*
X140473715Y-94314386D01*
X140380781Y-94496776D01*
X140317522Y-94691465D01*
X140285500Y-94893648D01*
X140285500Y-95098351D01*
X140317522Y-95300534D01*
X140380781Y-95495223D01*
X140473715Y-95677613D01*
X140594028Y-95843213D01*
X140738786Y-95987971D01*
X140889148Y-96097213D01*
X140904390Y-96108287D01*
X141020607Y-96167503D01*
X141086776Y-96201218D01*
X141086778Y-96201218D01*
X141086781Y-96201220D01*
X141191137Y-96235127D01*
X141281465Y-96264477D01*
X141382557Y-96280488D01*
X141483648Y-96296500D01*
X141483649Y-96296500D01*
X142488351Y-96296500D01*
X142488352Y-96296500D01*
X142690534Y-96264477D01*
X142885219Y-96201220D01*
X143067610Y-96108287D01*
X143160590Y-96040732D01*
X143233213Y-95987971D01*
X143233215Y-95987968D01*
X143233219Y-95987966D01*
X143377966Y-95843219D01*
X143377968Y-95843215D01*
X143377971Y-95843213D01*
X143430732Y-95770590D01*
X143498287Y-95677610D01*
X143591220Y-95495219D01*
X143654477Y-95300534D01*
X143686500Y-95098352D01*
X143686500Y-94893648D01*
X143663871Y-94750776D01*
X143654477Y-94691465D01*
X143652426Y-94685153D01*
X143640999Y-94649983D01*
X146146500Y-94649983D01*
X146146500Y-95850001D01*
X146146501Y-95850018D01*
X146157000Y-95952796D01*
X146157001Y-95952799D01*
X146204856Y-96097213D01*
X146212186Y-96119334D01*
X146304288Y-96268656D01*
X146428344Y-96392712D01*
X146577666Y-96484814D01*
X146744203Y-96539999D01*
X146846991Y-96550500D01*
X148047008Y-96550499D01*
X148149797Y-96539999D01*
X148316334Y-96484814D01*
X148465656Y-96392712D01*
X148534524Y-96323843D01*
X148595843Y-96290361D01*
X148665535Y-96295345D01*
X148695082Y-96311206D01*
X148765390Y-96362287D01*
X148851561Y-96406193D01*
X148947776Y-96455218D01*
X148947778Y-96455218D01*
X148947781Y-96455220D01*
X149038856Y-96484812D01*
X149142465Y-96518477D01*
X149243557Y-96534488D01*
X149344648Y-96550500D01*
X149344649Y-96550500D01*
X149549351Y-96550500D01*
X149549352Y-96550500D01*
X149751534Y-96518477D01*
X149946219Y-96455220D01*
X150128610Y-96362287D01*
X150221590Y-96294732D01*
X150294213Y-96241971D01*
X150294215Y-96241968D01*
X150294219Y-96241966D01*
X150438966Y-96097219D01*
X150438968Y-96097215D01*
X150438971Y-96097213D01*
X150491732Y-96024590D01*
X150559287Y-95931610D01*
X150652220Y-95749219D01*
X150715477Y-95554534D01*
X150747500Y-95352352D01*
X150747500Y-95147648D01*
X152877500Y-95147648D01*
X152877500Y-95352351D01*
X152909522Y-95554534D01*
X152972781Y-95749223D01*
X153024140Y-95850018D01*
X153065585Y-95931359D01*
X153065715Y-95931613D01*
X153186028Y-96097213D01*
X153330786Y-96241971D01*
X153443480Y-96323846D01*
X153496390Y-96362287D01*
X153612607Y-96421503D01*
X153678776Y-96455218D01*
X153678778Y-96455218D01*
X153678781Y-96455220D01*
X153769856Y-96484812D01*
X153873465Y-96518477D01*
X153974557Y-96534488D01*
X154075648Y-96550500D01*
X154075649Y-96550500D01*
X154280351Y-96550500D01*
X154280352Y-96550500D01*
X154482534Y-96518477D01*
X154677219Y-96455220D01*
X154859610Y-96362287D01*
X154952590Y-96294732D01*
X155025213Y-96241971D01*
X155025215Y-96241968D01*
X155025219Y-96241966D01*
X155169966Y-96097219D01*
X155169968Y-96097215D01*
X155169971Y-96097213D01*
X155222732Y-96024590D01*
X155290287Y-95931610D01*
X155383220Y-95749219D01*
X155446477Y-95554534D01*
X155478500Y-95352352D01*
X155478500Y-95147648D01*
X160497500Y-95147648D01*
X160497500Y-95352351D01*
X160529522Y-95554534D01*
X160592781Y-95749223D01*
X160644140Y-95850018D01*
X160685585Y-95931359D01*
X160685715Y-95931613D01*
X160806028Y-96097213D01*
X160950786Y-96241971D01*
X161063480Y-96323846D01*
X161116390Y-96362287D01*
X161232607Y-96421503D01*
X161298776Y-96455218D01*
X161298778Y-96455218D01*
X161298781Y-96455220D01*
X161389856Y-96484812D01*
X161493465Y-96518477D01*
X161594557Y-96534488D01*
X161695648Y-96550500D01*
X161695649Y-96550500D01*
X161900351Y-96550500D01*
X161900352Y-96550500D01*
X162102534Y-96518477D01*
X162297219Y-96455220D01*
X162479610Y-96362287D01*
X162572590Y-96294732D01*
X162645213Y-96241971D01*
X162645215Y-96241968D01*
X162645219Y-96241966D01*
X162789966Y-96097219D01*
X162789968Y-96097215D01*
X162789971Y-96097213D01*
X162842732Y-96024590D01*
X162910287Y-95931610D01*
X163003220Y-95749219D01*
X163066477Y-95554534D01*
X163098500Y-95352352D01*
X163098500Y-95147648D01*
X164561500Y-95147648D01*
X164561500Y-95352351D01*
X164593522Y-95554534D01*
X164656781Y-95749223D01*
X164708140Y-95850018D01*
X164749585Y-95931359D01*
X164749715Y-95931613D01*
X164870028Y-96097213D01*
X165014786Y-96241971D01*
X165127480Y-96323846D01*
X165180390Y-96362287D01*
X165296607Y-96421503D01*
X165362776Y-96455218D01*
X165362778Y-96455218D01*
X165362781Y-96455220D01*
X165453856Y-96484812D01*
X165557465Y-96518477D01*
X165658557Y-96534488D01*
X165759648Y-96550500D01*
X165759649Y-96550500D01*
X165964351Y-96550500D01*
X165964352Y-96550500D01*
X166166534Y-96518477D01*
X166361219Y-96455220D01*
X166543610Y-96362287D01*
X166636590Y-96294732D01*
X166709213Y-96241971D01*
X166709215Y-96241968D01*
X166709219Y-96241966D01*
X166853966Y-96097219D01*
X166853968Y-96097215D01*
X166853971Y-96097213D01*
X166906732Y-96024590D01*
X166974287Y-95931610D01*
X167067220Y-95749219D01*
X167130477Y-95554534D01*
X167162500Y-95352352D01*
X167162500Y-95147682D01*
X169562000Y-95147682D01*
X169562000Y-95352317D01*
X169594009Y-95554417D01*
X169657244Y-95749031D01*
X169750141Y-95931350D01*
X169750147Y-95931359D01*
X169782523Y-95975921D01*
X169782524Y-95975922D01*
X170462000Y-95296446D01*
X170462000Y-95302661D01*
X170489259Y-95404394D01*
X170541920Y-95495606D01*
X170616394Y-95570080D01*
X170707606Y-95622741D01*
X170809339Y-95650000D01*
X170815553Y-95650000D01*
X170136076Y-96329474D01*
X170180650Y-96361859D01*
X170362968Y-96454755D01*
X170557582Y-96517990D01*
X170759683Y-96550000D01*
X170964317Y-96550000D01*
X171166417Y-96517990D01*
X171361031Y-96454755D01*
X171543349Y-96361859D01*
X171587921Y-96329474D01*
X170908447Y-95650000D01*
X170914661Y-95650000D01*
X171016394Y-95622741D01*
X171107606Y-95570080D01*
X171182080Y-95495606D01*
X171234741Y-95404394D01*
X171262000Y-95302661D01*
X171262000Y-95296448D01*
X171941474Y-95975922D01*
X171941474Y-95975921D01*
X171973859Y-95931349D01*
X172066755Y-95749031D01*
X172129990Y-95554417D01*
X172162000Y-95352317D01*
X172162000Y-95147682D01*
X172129990Y-94945582D01*
X172066755Y-94750968D01*
X171973859Y-94568650D01*
X171941474Y-94524077D01*
X171941474Y-94524076D01*
X171262000Y-95203551D01*
X171262000Y-95197339D01*
X171234741Y-95095606D01*
X171182080Y-95004394D01*
X171107606Y-94929920D01*
X171016394Y-94877259D01*
X170914661Y-94850000D01*
X170908446Y-94850000D01*
X171587922Y-94170524D01*
X171587921Y-94170523D01*
X171543359Y-94138147D01*
X171543350Y-94138141D01*
X171361031Y-94045244D01*
X171166417Y-93982009D01*
X170964317Y-93950000D01*
X170759683Y-93950000D01*
X170557582Y-93982009D01*
X170362968Y-94045244D01*
X170180644Y-94138143D01*
X170136077Y-94170523D01*
X170136077Y-94170524D01*
X170815554Y-94850000D01*
X170809339Y-94850000D01*
X170707606Y-94877259D01*
X170616394Y-94929920D01*
X170541920Y-95004394D01*
X170489259Y-95095606D01*
X170462000Y-95197339D01*
X170462000Y-95203553D01*
X169782524Y-94524077D01*
X169782523Y-94524077D01*
X169750143Y-94568644D01*
X169657244Y-94750968D01*
X169594009Y-94945582D01*
X169562000Y-95147682D01*
X167162500Y-95147682D01*
X167162500Y-95147648D01*
X167146822Y-95048661D01*
X167130477Y-94945465D01*
X167096731Y-94841606D01*
X167067220Y-94750781D01*
X167067218Y-94750778D01*
X167067218Y-94750776D01*
X167015865Y-94649991D01*
X166974287Y-94568390D01*
X166942092Y-94524077D01*
X166853971Y-94402786D01*
X166709213Y-94258028D01*
X166543613Y-94137715D01*
X166543612Y-94137714D01*
X166543610Y-94137713D01*
X166483896Y-94107287D01*
X166361223Y-94044781D01*
X166166534Y-93981522D01*
X165991995Y-93953878D01*
X165964352Y-93949500D01*
X165759648Y-93949500D01*
X165735329Y-93953351D01*
X165557465Y-93981522D01*
X165362776Y-94044781D01*
X165180386Y-94137715D01*
X165014786Y-94258028D01*
X164870028Y-94402786D01*
X164749715Y-94568386D01*
X164656781Y-94750776D01*
X164593522Y-94945465D01*
X164561500Y-95147648D01*
X163098500Y-95147648D01*
X163082822Y-95048661D01*
X163066477Y-94945465D01*
X163032731Y-94841606D01*
X163003220Y-94750781D01*
X163003218Y-94750778D01*
X163003218Y-94750776D01*
X162951865Y-94649991D01*
X162910287Y-94568390D01*
X162878092Y-94524077D01*
X162789971Y-94402786D01*
X162645213Y-94258028D01*
X162479613Y-94137715D01*
X162479612Y-94137714D01*
X162479610Y-94137713D01*
X162419896Y-94107287D01*
X162297223Y-94044781D01*
X162102534Y-93981522D01*
X161927995Y-93953878D01*
X161900352Y-93949500D01*
X161695648Y-93949500D01*
X161671329Y-93953351D01*
X161493465Y-93981522D01*
X161298776Y-94044781D01*
X161116386Y-94137715D01*
X160950786Y-94258028D01*
X160806028Y-94402786D01*
X160685715Y-94568386D01*
X160592781Y-94750776D01*
X160529522Y-94945465D01*
X160497500Y-95147648D01*
X155478500Y-95147648D01*
X155462822Y-95048661D01*
X155446477Y-94945465D01*
X155412731Y-94841606D01*
X155383220Y-94750781D01*
X155383218Y-94750778D01*
X155383218Y-94750776D01*
X155331865Y-94649991D01*
X155290287Y-94568390D01*
X155258092Y-94524077D01*
X155169971Y-94402786D01*
X155025213Y-94258028D01*
X154859613Y-94137715D01*
X154859612Y-94137714D01*
X154859610Y-94137713D01*
X154799896Y-94107287D01*
X154677223Y-94044781D01*
X154482534Y-93981522D01*
X154307995Y-93953878D01*
X154280352Y-93949500D01*
X154075648Y-93949500D01*
X154051329Y-93953351D01*
X153873465Y-93981522D01*
X153678776Y-94044781D01*
X153496386Y-94137715D01*
X153330786Y-94258028D01*
X153186028Y-94402786D01*
X153065715Y-94568386D01*
X152972781Y-94750776D01*
X152909522Y-94945465D01*
X152877500Y-95147648D01*
X150747500Y-95147648D01*
X150731822Y-95048661D01*
X150715477Y-94945465D01*
X150681731Y-94841606D01*
X150652220Y-94750781D01*
X150652218Y-94750778D01*
X150652218Y-94750776D01*
X150600865Y-94649991D01*
X150559287Y-94568390D01*
X150527092Y-94524077D01*
X150438971Y-94402786D01*
X150294213Y-94258028D01*
X150128613Y-94137715D01*
X150128612Y-94137714D01*
X150128610Y-94137713D01*
X150068896Y-94107287D01*
X149946223Y-94044781D01*
X149751534Y-93981522D01*
X149576995Y-93953878D01*
X149549352Y-93949500D01*
X149344648Y-93949500D01*
X149320329Y-93953351D01*
X149142465Y-93981522D01*
X148947776Y-94044781D01*
X148765391Y-94137712D01*
X148765383Y-94137717D01*
X148695085Y-94188790D01*
X148629279Y-94212269D01*
X148561225Y-94196442D01*
X148534521Y-94176153D01*
X148507149Y-94148781D01*
X148465656Y-94107288D01*
X148365066Y-94045244D01*
X148316336Y-94015187D01*
X148316331Y-94015185D01*
X148283835Y-94004417D01*
X148149797Y-93960001D01*
X148149795Y-93960000D01*
X148047010Y-93949500D01*
X146846998Y-93949500D01*
X146846981Y-93949501D01*
X146744203Y-93960000D01*
X146744200Y-93960001D01*
X146577668Y-94015185D01*
X146577663Y-94015187D01*
X146428342Y-94107289D01*
X146304289Y-94231342D01*
X146212187Y-94380663D01*
X146212186Y-94380666D01*
X146157001Y-94547203D01*
X146157001Y-94547204D01*
X146157000Y-94547204D01*
X146146500Y-94649983D01*
X143640999Y-94649983D01*
X143600089Y-94524077D01*
X143591220Y-94496781D01*
X143591218Y-94496778D01*
X143591218Y-94496776D01*
X143543327Y-94402786D01*
X143498287Y-94314390D01*
X143490556Y-94303749D01*
X143377971Y-94148786D01*
X143233213Y-94004028D01*
X143067614Y-93883715D01*
X143061006Y-93880348D01*
X142974917Y-93836483D01*
X142924123Y-93788511D01*
X142907328Y-93720690D01*
X142929865Y-93654555D01*
X142974917Y-93615516D01*
X143067610Y-93568287D01*
X143088770Y-93552913D01*
X143233213Y-93447971D01*
X143233215Y-93447968D01*
X143233219Y-93447966D01*
X143377966Y-93303219D01*
X143377968Y-93303215D01*
X143377971Y-93303213D01*
X143475844Y-93168500D01*
X143498287Y-93137610D01*
X143591220Y-92955219D01*
X143654477Y-92760534D01*
X143686500Y-92558352D01*
X143686500Y-92353648D01*
X143667499Y-92233684D01*
X143654477Y-92151465D01*
X143591218Y-91956776D01*
X143537803Y-91851945D01*
X143498287Y-91774390D01*
X143490556Y-91763749D01*
X143377971Y-91608786D01*
X143233213Y-91464028D01*
X143067614Y-91343715D01*
X143061006Y-91340348D01*
X142974917Y-91296483D01*
X142924123Y-91248511D01*
X142907328Y-91180690D01*
X142929865Y-91114555D01*
X142974917Y-91075516D01*
X143067610Y-91028287D01*
X143088770Y-91012913D01*
X143233213Y-90907971D01*
X143233215Y-90907968D01*
X143233219Y-90907966D01*
X143377966Y-90763219D01*
X143377968Y-90763215D01*
X143377971Y-90763213D01*
X143430732Y-90690590D01*
X143498287Y-90597610D01*
X143591220Y-90415219D01*
X143654477Y-90220534D01*
X143686500Y-90018352D01*
X143686500Y-89813648D01*
X143654477Y-89611466D01*
X143591220Y-89416781D01*
X143591218Y-89416778D01*
X143591218Y-89416776D01*
X143557503Y-89350607D01*
X143498287Y-89234390D01*
X143490556Y-89223749D01*
X143377971Y-89068786D01*
X143233213Y-88924028D01*
X143067614Y-88803715D01*
X143061006Y-88800348D01*
X142974917Y-88756483D01*
X142924123Y-88708511D01*
X142907328Y-88640690D01*
X142929865Y-88574555D01*
X142974917Y-88535516D01*
X143067610Y-88488287D01*
X143196482Y-88394657D01*
X143233213Y-88367971D01*
X143233215Y-88367968D01*
X143233219Y-88367966D01*
X143377966Y-88223219D01*
X143377968Y-88223215D01*
X143377971Y-88223213D01*
X143482892Y-88078799D01*
X143498287Y-88057610D01*
X143591220Y-87875219D01*
X143654477Y-87680534D01*
X143686500Y-87478352D01*
X143686500Y-87273648D01*
X143654477Y-87071466D01*
X143591220Y-86876781D01*
X143591218Y-86876778D01*
X143591218Y-86876776D01*
X143539865Y-86775991D01*
X143498287Y-86694390D01*
X143482892Y-86673200D01*
X143377971Y-86528786D01*
X143233213Y-86384028D01*
X143067613Y-86263715D01*
X143067612Y-86263714D01*
X143067610Y-86263713D01*
X143007898Y-86233288D01*
X142885223Y-86170781D01*
X142690534Y-86107522D01*
X142515995Y-86079878D01*
X142488352Y-86075500D01*
X141483648Y-86075500D01*
X141459329Y-86079351D01*
X141281465Y-86107522D01*
X141086776Y-86170781D01*
X140904386Y-86263715D01*
X140738786Y-86384028D01*
X140594028Y-86528786D01*
X140473715Y-86694386D01*
X140380781Y-86876776D01*
X140317522Y-87071465D01*
X140285500Y-87273648D01*
X136066499Y-87273648D01*
X136066499Y-86775992D01*
X136055999Y-86673203D01*
X136000814Y-86506666D01*
X135908712Y-86357344D01*
X135784656Y-86233288D01*
X135635334Y-86141186D01*
X135468797Y-86086001D01*
X135468795Y-86086000D01*
X135366010Y-86075500D01*
X133365998Y-86075500D01*
X133365981Y-86075501D01*
X133263203Y-86086000D01*
X133263200Y-86086001D01*
X133096668Y-86141185D01*
X133096663Y-86141187D01*
X132947342Y-86233289D01*
X132823289Y-86357342D01*
X132731187Y-86506663D01*
X132731186Y-86506666D01*
X132676001Y-86673203D01*
X132676001Y-86673204D01*
X132676000Y-86673204D01*
X132665500Y-86775983D01*
X104767500Y-86775983D01*
X104767500Y-81068905D01*
X108617000Y-81068905D01*
X108617000Y-81331094D01*
X108651220Y-81591009D01*
X108651222Y-81591020D01*
X108719075Y-81844255D01*
X108819404Y-82086471D01*
X108819409Y-82086482D01*
X108950488Y-82313516D01*
X108950494Y-82313524D01*
X109037080Y-82426365D01*
X110015958Y-81447487D01*
X110040978Y-81507890D01*
X110112112Y-81614351D01*
X110202649Y-81704888D01*
X110309110Y-81776022D01*
X110369511Y-81801041D01*
X109390633Y-82779917D01*
X109390633Y-82779918D01*
X109503475Y-82866505D01*
X109503483Y-82866511D01*
X109730517Y-82997590D01*
X109730528Y-82997595D01*
X109972744Y-83097924D01*
X110225979Y-83165777D01*
X110225990Y-83165779D01*
X110485905Y-83199999D01*
X110485920Y-83200000D01*
X110748080Y-83200000D01*
X110748094Y-83199999D01*
X111008009Y-83165779D01*
X111008020Y-83165777D01*
X111261255Y-83097924D01*
X111503471Y-82997595D01*
X111503482Y-82997590D01*
X111730516Y-82866511D01*
X111730534Y-82866499D01*
X111843365Y-82779919D01*
X111843365Y-82779917D01*
X110864488Y-81801041D01*
X110924890Y-81776022D01*
X111031351Y-81704888D01*
X111121888Y-81614351D01*
X111193022Y-81507890D01*
X111218041Y-81447489D01*
X112196917Y-82426365D01*
X112196919Y-82426365D01*
X112283499Y-82313534D01*
X112283511Y-82313516D01*
X112343864Y-82208983D01*
X123159500Y-82208983D01*
X123159500Y-82208996D01*
X123159501Y-83409000D01*
X123159501Y-83409018D01*
X123170000Y-83511796D01*
X123170001Y-83511799D01*
X123225185Y-83678331D01*
X123225187Y-83678336D01*
X123232594Y-83690344D01*
X123317288Y-83827656D01*
X123441344Y-83951712D01*
X123590666Y-84043814D01*
X123757203Y-84098999D01*
X123859991Y-84109500D01*
X125060008Y-84109499D01*
X125162797Y-84098999D01*
X125329334Y-84043814D01*
X125478656Y-83951712D01*
X125547524Y-83882843D01*
X125608843Y-83849361D01*
X125678535Y-83854345D01*
X125708082Y-83870206D01*
X125778390Y-83921287D01*
X125864561Y-83965193D01*
X125960776Y-84014218D01*
X125960778Y-84014218D01*
X125960781Y-84014220D01*
X126051856Y-84043812D01*
X126155465Y-84077477D01*
X126256557Y-84093488D01*
X126357648Y-84109500D01*
X126357649Y-84109500D01*
X126562351Y-84109500D01*
X126562352Y-84109500D01*
X126565616Y-84108983D01*
X146273500Y-84108983D01*
X146273500Y-85309001D01*
X146273501Y-85309018D01*
X146284000Y-85411796D01*
X146284001Y-85411799D01*
X146339185Y-85578331D01*
X146339186Y-85578334D01*
X146431288Y-85727656D01*
X146555344Y-85851712D01*
X146704666Y-85943814D01*
X146871203Y-85998999D01*
X146973991Y-86009500D01*
X148174008Y-86009499D01*
X148276797Y-85998999D01*
X148443334Y-85943814D01*
X148592656Y-85851712D01*
X148661879Y-85782489D01*
X148723202Y-85749004D01*
X148792894Y-85753988D01*
X148822446Y-85769853D01*
X148892646Y-85820857D01*
X149074968Y-85913755D01*
X149269582Y-85976990D01*
X149471683Y-86009000D01*
X149676317Y-86009000D01*
X149878417Y-85976990D01*
X150073031Y-85913755D01*
X150255349Y-85820859D01*
X150299921Y-85788474D01*
X149620447Y-85109000D01*
X149626661Y-85109000D01*
X149728394Y-85081741D01*
X149819606Y-85029080D01*
X149894080Y-84954606D01*
X149946741Y-84863394D01*
X149974000Y-84761661D01*
X149974000Y-84755447D01*
X150653474Y-85434921D01*
X150685859Y-85390349D01*
X150778755Y-85208031D01*
X150841990Y-85013417D01*
X150874000Y-84811317D01*
X150874000Y-84606682D01*
X150841990Y-84404582D01*
X150778755Y-84209968D01*
X150685859Y-84027650D01*
X150653474Y-83983077D01*
X150653474Y-83983076D01*
X149974000Y-84662551D01*
X149974000Y-84656339D01*
X149946741Y-84554606D01*
X149894080Y-84463394D01*
X149819606Y-84388920D01*
X149728394Y-84336259D01*
X149626661Y-84309000D01*
X149620446Y-84309000D01*
X150299922Y-83629524D01*
X150299921Y-83629523D01*
X150255359Y-83597147D01*
X150255350Y-83597141D01*
X150073031Y-83504244D01*
X149878417Y-83441009D01*
X149676317Y-83409000D01*
X149471683Y-83409000D01*
X149269582Y-83441009D01*
X149074968Y-83504244D01*
X148892651Y-83597139D01*
X148822444Y-83648148D01*
X148756637Y-83671627D01*
X148688583Y-83655801D01*
X148661878Y-83635510D01*
X148592657Y-83566289D01*
X148592656Y-83566288D01*
X148443334Y-83474186D01*
X148276797Y-83419001D01*
X148276795Y-83419000D01*
X148174010Y-83408500D01*
X146973998Y-83408500D01*
X146973981Y-83408501D01*
X146871203Y-83419000D01*
X146871200Y-83419001D01*
X146704668Y-83474185D01*
X146704663Y-83474187D01*
X146555342Y-83566289D01*
X146431289Y-83690342D01*
X146339187Y-83839663D01*
X146339185Y-83839668D01*
X146312140Y-83921284D01*
X146284001Y-84006203D01*
X146284001Y-84006204D01*
X146284000Y-84006204D01*
X146273500Y-84108983D01*
X126565616Y-84108983D01*
X126764534Y-84077477D01*
X126959219Y-84014220D01*
X126986940Y-84000094D01*
X126996256Y-83995349D01*
X127022437Y-83982008D01*
X127141610Y-83921287D01*
X127234590Y-83853732D01*
X127307213Y-83800971D01*
X127307215Y-83800968D01*
X127307219Y-83800966D01*
X127451966Y-83656219D01*
X127451968Y-83656215D01*
X127451971Y-83656213D01*
X127556892Y-83511799D01*
X127572287Y-83490610D01*
X127665220Y-83308219D01*
X127728477Y-83113534D01*
X127760500Y-82911352D01*
X127760500Y-82706648D01*
X127728477Y-82504466D01*
X127665220Y-82309781D01*
X127665218Y-82309778D01*
X127665218Y-82309776D01*
X127631503Y-82243607D01*
X127572287Y-82127390D01*
X127542558Y-82086471D01*
X127451971Y-81961786D01*
X127307213Y-81817028D01*
X127141613Y-81696715D01*
X127141612Y-81696714D01*
X127141610Y-81696713D01*
X127081896Y-81666287D01*
X126959223Y-81603781D01*
X126764534Y-81540522D01*
X126589995Y-81512878D01*
X126562352Y-81508500D01*
X126357648Y-81508500D01*
X126333329Y-81512351D01*
X126155465Y-81540522D01*
X125960776Y-81603781D01*
X125778391Y-81696712D01*
X125778383Y-81696717D01*
X125708085Y-81747790D01*
X125642279Y-81771269D01*
X125574225Y-81755442D01*
X125547521Y-81735153D01*
X125517256Y-81704888D01*
X125478656Y-81666288D01*
X125394452Y-81614351D01*
X125329336Y-81574187D01*
X125329331Y-81574185D01*
X125327862Y-81573698D01*
X125162797Y-81519001D01*
X125162795Y-81519000D01*
X125060010Y-81508500D01*
X123859998Y-81508500D01*
X123859981Y-81508501D01*
X123757203Y-81519000D01*
X123757200Y-81519001D01*
X123590668Y-81574185D01*
X123590663Y-81574187D01*
X123441342Y-81666289D01*
X123317289Y-81790342D01*
X123225187Y-81939663D01*
X123225185Y-81939668D01*
X123217858Y-81961781D01*
X123170001Y-82106203D01*
X123170001Y-82106204D01*
X123170000Y-82106204D01*
X123159500Y-82208983D01*
X112343864Y-82208983D01*
X112381478Y-82143834D01*
X112381478Y-82143833D01*
X112414593Y-82086475D01*
X112414595Y-82086471D01*
X112514924Y-81844255D01*
X112582777Y-81591020D01*
X112582779Y-81591009D01*
X112616999Y-81331094D01*
X112617000Y-81331080D01*
X112617000Y-81068919D01*
X112616999Y-81068905D01*
X112582779Y-80808990D01*
X112582777Y-80808979D01*
X112552738Y-80696869D01*
X112545444Y-80669648D01*
X133065500Y-80669648D01*
X133065500Y-80874351D01*
X133097522Y-81076534D01*
X133160781Y-81271223D01*
X133212300Y-81372332D01*
X133248346Y-81443077D01*
X133253715Y-81453613D01*
X133374028Y-81619213D01*
X133518786Y-81763971D01*
X133657268Y-81864582D01*
X133684390Y-81884287D01*
X133761142Y-81923394D01*
X133866776Y-81977218D01*
X133866778Y-81977218D01*
X133866781Y-81977220D01*
X133971137Y-82011127D01*
X134061465Y-82040477D01*
X134162557Y-82056488D01*
X134263648Y-82072500D01*
X134263649Y-82072500D01*
X134468351Y-82072500D01*
X134468352Y-82072500D01*
X134670534Y-82040477D01*
X134865219Y-81977220D01*
X135047610Y-81884287D01*
X135168771Y-81796259D01*
X135213213Y-81763971D01*
X135213215Y-81763968D01*
X135213219Y-81763966D01*
X135357966Y-81619219D01*
X135357968Y-81619215D01*
X135357971Y-81619213D01*
X135410732Y-81546590D01*
X135478287Y-81453610D01*
X135571220Y-81271219D01*
X135634477Y-81076534D01*
X135666500Y-80874352D01*
X135666500Y-80669648D01*
X140685500Y-80669648D01*
X140685500Y-80874351D01*
X140717522Y-81076534D01*
X140780781Y-81271223D01*
X140832300Y-81372332D01*
X140868346Y-81443077D01*
X140873715Y-81453613D01*
X140994028Y-81619213D01*
X141138786Y-81763971D01*
X141277268Y-81864582D01*
X141304390Y-81884287D01*
X141381142Y-81923394D01*
X141486776Y-81977218D01*
X141486778Y-81977218D01*
X141486781Y-81977220D01*
X141591137Y-82011127D01*
X141681465Y-82040477D01*
X141782557Y-82056488D01*
X141883648Y-82072500D01*
X141883649Y-82072500D01*
X142088351Y-82072500D01*
X142088352Y-82072500D01*
X142125085Y-82066682D01*
X153894000Y-82066682D01*
X153894000Y-82271317D01*
X153926009Y-82473417D01*
X153989244Y-82668031D01*
X154082141Y-82850350D01*
X154082147Y-82850359D01*
X154114523Y-82894921D01*
X154114524Y-82894922D01*
X154794000Y-82215446D01*
X154794000Y-82221661D01*
X154821259Y-82323394D01*
X154873920Y-82414606D01*
X154948394Y-82489080D01*
X155039606Y-82541741D01*
X155141339Y-82569000D01*
X155147553Y-82569000D01*
X154468076Y-83248474D01*
X154512650Y-83280859D01*
X154694968Y-83373755D01*
X154889582Y-83436990D01*
X155091683Y-83469000D01*
X155296317Y-83469000D01*
X155498417Y-83436990D01*
X155693031Y-83373755D01*
X155875349Y-83280859D01*
X155919921Y-83248474D01*
X155240447Y-82569000D01*
X155246661Y-82569000D01*
X155348394Y-82541741D01*
X155439606Y-82489080D01*
X155514080Y-82414606D01*
X155566741Y-82323394D01*
X155594000Y-82221661D01*
X155594000Y-82215447D01*
X156273474Y-82894921D01*
X156305859Y-82850349D01*
X156398755Y-82668031D01*
X156461990Y-82473417D01*
X156494000Y-82271317D01*
X156494000Y-82066682D01*
X156461990Y-81864582D01*
X156398755Y-81669968D01*
X156305859Y-81487650D01*
X156273474Y-81443077D01*
X156273474Y-81443076D01*
X155594000Y-82122551D01*
X155594000Y-82116339D01*
X155566741Y-82014606D01*
X155514080Y-81923394D01*
X155439606Y-81848920D01*
X155348394Y-81796259D01*
X155246661Y-81769000D01*
X155240446Y-81769000D01*
X155919922Y-81089524D01*
X155919921Y-81089523D01*
X155875359Y-81057147D01*
X155875350Y-81057141D01*
X155693031Y-80964244D01*
X155498417Y-80901009D01*
X155296317Y-80869000D01*
X155091683Y-80869000D01*
X154889582Y-80901009D01*
X154694968Y-80964244D01*
X154512644Y-81057143D01*
X154468077Y-81089523D01*
X154468077Y-81089524D01*
X155147554Y-81769000D01*
X155141339Y-81769000D01*
X155039606Y-81796259D01*
X154948394Y-81848920D01*
X154873920Y-81923394D01*
X154821259Y-82014606D01*
X154794000Y-82116339D01*
X154794000Y-82122553D01*
X154114524Y-81443077D01*
X154114523Y-81443077D01*
X154082143Y-81487644D01*
X153989244Y-81669968D01*
X153926009Y-81864582D01*
X153894000Y-82066682D01*
X142125085Y-82066682D01*
X142290534Y-82040477D01*
X142485219Y-81977220D01*
X142667610Y-81884287D01*
X142788771Y-81796259D01*
X142833213Y-81763971D01*
X142833215Y-81763968D01*
X142833219Y-81763966D01*
X142977966Y-81619219D01*
X142977968Y-81619215D01*
X142977971Y-81619213D01*
X143030732Y-81546590D01*
X143098287Y-81453610D01*
X143191220Y-81271219D01*
X143224245Y-81169576D01*
X143247352Y-81098464D01*
X143247353Y-81098462D01*
X143254475Y-81076542D01*
X143254475Y-81076538D01*
X143254477Y-81076534D01*
X143286500Y-80874352D01*
X143286500Y-80669648D01*
X143254477Y-80467465D01*
X143225127Y-80377137D01*
X143191220Y-80272781D01*
X143191218Y-80272778D01*
X143191218Y-80272776D01*
X143157503Y-80206607D01*
X143098287Y-80090390D01*
X143090556Y-80079749D01*
X142977971Y-79924786D01*
X142833213Y-79780028D01*
X142667613Y-79659715D01*
X142667612Y-79659714D01*
X142667610Y-79659713D01*
X142589824Y-79620079D01*
X142485223Y-79566781D01*
X142290534Y-79503522D01*
X142115995Y-79475878D01*
X142088352Y-79471500D01*
X141883648Y-79471500D01*
X141859329Y-79475351D01*
X141681465Y-79503522D01*
X141486776Y-79566781D01*
X141304386Y-79659715D01*
X141138786Y-79780028D01*
X140994028Y-79924786D01*
X140873715Y-80090386D01*
X140780781Y-80272776D01*
X140717522Y-80467465D01*
X140685500Y-80669648D01*
X135666500Y-80669648D01*
X135634477Y-80467465D01*
X135605127Y-80377137D01*
X135571220Y-80272781D01*
X135571218Y-80272778D01*
X135571218Y-80272776D01*
X135537503Y-80206607D01*
X135478287Y-80090390D01*
X135470556Y-80079749D01*
X135357971Y-79924786D01*
X135213213Y-79780028D01*
X135047613Y-79659715D01*
X135047612Y-79659714D01*
X135047610Y-79659713D01*
X134969824Y-79620079D01*
X134865223Y-79566781D01*
X134670534Y-79503522D01*
X134495995Y-79475878D01*
X134468352Y-79471500D01*
X134263648Y-79471500D01*
X134239329Y-79475351D01*
X134061465Y-79503522D01*
X133866776Y-79566781D01*
X133684386Y-79659715D01*
X133518786Y-79780028D01*
X133374028Y-79924786D01*
X133253715Y-80090386D01*
X133160781Y-80272776D01*
X133097522Y-80467465D01*
X133065500Y-80669648D01*
X112545444Y-80669648D01*
X112514924Y-80555744D01*
X112414595Y-80313528D01*
X112414590Y-80313517D01*
X112283511Y-80086483D01*
X112283505Y-80086475D01*
X112196918Y-79973633D01*
X112196917Y-79973633D01*
X111218041Y-80952510D01*
X111193022Y-80892110D01*
X111121888Y-80785649D01*
X111031351Y-80695112D01*
X110924890Y-80623978D01*
X110864487Y-80598957D01*
X111843365Y-79620080D01*
X111730524Y-79533494D01*
X111730516Y-79533488D01*
X111503482Y-79402409D01*
X111503471Y-79402404D01*
X111261255Y-79302075D01*
X111008020Y-79234222D01*
X111008009Y-79234220D01*
X110748094Y-79200000D01*
X110485905Y-79200000D01*
X110225990Y-79234220D01*
X110225979Y-79234222D01*
X109972744Y-79302075D01*
X109730528Y-79402404D01*
X109730517Y-79402409D01*
X109503471Y-79533496D01*
X109390633Y-79620079D01*
X109390633Y-79620080D01*
X110369511Y-80598958D01*
X110309110Y-80623978D01*
X110202649Y-80695112D01*
X110112112Y-80785649D01*
X110040978Y-80892110D01*
X110015958Y-80952511D01*
X109037080Y-79973633D01*
X109037079Y-79973633D01*
X108950496Y-80086471D01*
X108819409Y-80313517D01*
X108819404Y-80313528D01*
X108719075Y-80555744D01*
X108651222Y-80808979D01*
X108651220Y-80808990D01*
X108617000Y-81068905D01*
X104767500Y-81068905D01*
X104767500Y-78502982D01*
X168941500Y-78502982D01*
X168941500Y-81103017D01*
X168952000Y-81205796D01*
X168973679Y-81271219D01*
X169007186Y-81372335D01*
X169099288Y-81521656D01*
X169223344Y-81645712D01*
X169372665Y-81737814D01*
X169539202Y-81792999D01*
X169641990Y-81803500D01*
X169641995Y-81803500D01*
X172242005Y-81803500D01*
X172242010Y-81803500D01*
X172344798Y-81792999D01*
X172511335Y-81737814D01*
X172660656Y-81645712D01*
X172784712Y-81521656D01*
X172876814Y-81372335D01*
X172931999Y-81205798D01*
X172942500Y-81103010D01*
X172942500Y-78502990D01*
X172931999Y-78400202D01*
X172876814Y-78233665D01*
X172784712Y-78084344D01*
X172660656Y-77960288D01*
X172511335Y-77868186D01*
X172344798Y-77813001D01*
X172344796Y-77813000D01*
X172242017Y-77802500D01*
X172242010Y-77802500D01*
X169641990Y-77802500D01*
X169641982Y-77802500D01*
X169539203Y-77813000D01*
X169539202Y-77813001D01*
X169456669Y-77840349D01*
X169372667Y-77868185D01*
X169372662Y-77868187D01*
X169223342Y-77960289D01*
X169099289Y-78084342D01*
X169007187Y-78233662D01*
X169007185Y-78233667D01*
X168979349Y-78317669D01*
X168952001Y-78400202D01*
X168952001Y-78400203D01*
X168952000Y-78400203D01*
X168941500Y-78502982D01*
X104767500Y-78502982D01*
X104767500Y-74899982D01*
X108616500Y-74899982D01*
X108616500Y-77500017D01*
X108627000Y-77602796D01*
X108627001Y-77602798D01*
X108682186Y-77769335D01*
X108774288Y-77918656D01*
X108898344Y-78042712D01*
X109047665Y-78134814D01*
X109214202Y-78189999D01*
X109316990Y-78200500D01*
X109316995Y-78200500D01*
X111917005Y-78200500D01*
X111917010Y-78200500D01*
X112019798Y-78189999D01*
X112186335Y-78134814D01*
X112335656Y-78042712D01*
X112459712Y-77918656D01*
X112551814Y-77769335D01*
X112606999Y-77602798D01*
X112617500Y-77500010D01*
X112617500Y-77066648D01*
X153893500Y-77066648D01*
X153893500Y-77271351D01*
X153925522Y-77473534D01*
X153988781Y-77668223D01*
X154081715Y-77850613D01*
X154202028Y-78016213D01*
X154346786Y-78160971D01*
X154501749Y-78273556D01*
X154512390Y-78281287D01*
X154628607Y-78340503D01*
X154694776Y-78374218D01*
X154694778Y-78374218D01*
X154694781Y-78374220D01*
X154799137Y-78408127D01*
X154889465Y-78437477D01*
X154990557Y-78453488D01*
X155091648Y-78469500D01*
X155091649Y-78469500D01*
X155296351Y-78469500D01*
X155296352Y-78469500D01*
X155498534Y-78437477D01*
X155693219Y-78374220D01*
X155875610Y-78281287D01*
X155986806Y-78200499D01*
X156041213Y-78160971D01*
X156041215Y-78160968D01*
X156041219Y-78160966D01*
X156185966Y-78016219D01*
X156185968Y-78016215D01*
X156185971Y-78016213D01*
X156256849Y-77918656D01*
X156306287Y-77850610D01*
X156399220Y-77668219D01*
X156462477Y-77473534D01*
X156494500Y-77271352D01*
X156494500Y-77066648D01*
X156462477Y-76864466D01*
X156399220Y-76669781D01*
X156399218Y-76669778D01*
X156399218Y-76669776D01*
X156364195Y-76601041D01*
X156306287Y-76487390D01*
X156293597Y-76469924D01*
X156185971Y-76321786D01*
X156041213Y-76177028D01*
X155875613Y-76056715D01*
X155875612Y-76056714D01*
X155875610Y-76056713D01*
X155818653Y-76027691D01*
X155693223Y-75963781D01*
X155498534Y-75900522D01*
X155323995Y-75872878D01*
X155296352Y-75868500D01*
X155091648Y-75868500D01*
X155067329Y-75872351D01*
X154889465Y-75900522D01*
X154694776Y-75963781D01*
X154512386Y-76056715D01*
X154346786Y-76177028D01*
X154202028Y-76321786D01*
X154081715Y-76487386D01*
X153988781Y-76669776D01*
X153925522Y-76864465D01*
X153893500Y-77066648D01*
X112617500Y-77066648D01*
X112617500Y-74899990D01*
X112606999Y-74797202D01*
X112551814Y-74630665D01*
X112519730Y-74578648D01*
X119984500Y-74578648D01*
X119984500Y-74783351D01*
X120016522Y-74985534D01*
X120079781Y-75180223D01*
X120128583Y-75276001D01*
X120172585Y-75362359D01*
X120172715Y-75362613D01*
X120293028Y-75528213D01*
X120437786Y-75672971D01*
X120543598Y-75749846D01*
X120603390Y-75793287D01*
X120719607Y-75852503D01*
X120785776Y-75886218D01*
X120785778Y-75886218D01*
X120785781Y-75886220D01*
X120861474Y-75910814D01*
X120980465Y-75949477D01*
X121070770Y-75963780D01*
X121182648Y-75981500D01*
X121182649Y-75981500D01*
X121387351Y-75981500D01*
X121387352Y-75981500D01*
X121589534Y-75949477D01*
X121784219Y-75886220D01*
X121966610Y-75793287D01*
X122059590Y-75725732D01*
X122132213Y-75672971D01*
X122132215Y-75672968D01*
X122132219Y-75672966D01*
X122276966Y-75528219D01*
X122276968Y-75528215D01*
X122276971Y-75528213D01*
X122335671Y-75447418D01*
X122397287Y-75362610D01*
X122490220Y-75180219D01*
X122553477Y-74985534D01*
X122585500Y-74783352D01*
X122585500Y-74578682D01*
X127605000Y-74578682D01*
X127605000Y-74783317D01*
X127637009Y-74985417D01*
X127700244Y-75180031D01*
X127793141Y-75362350D01*
X127793147Y-75362359D01*
X127825523Y-75406921D01*
X127825524Y-75406922D01*
X128505000Y-74727446D01*
X128505000Y-74733661D01*
X128532259Y-74835394D01*
X128584920Y-74926606D01*
X128659394Y-75001080D01*
X128750606Y-75053741D01*
X128852339Y-75081000D01*
X128858553Y-75081000D01*
X128179076Y-75760474D01*
X128223650Y-75792859D01*
X128405968Y-75885755D01*
X128600582Y-75948990D01*
X128802683Y-75981000D01*
X129007317Y-75981000D01*
X129209417Y-75948990D01*
X129404031Y-75885755D01*
X129586349Y-75792859D01*
X129630921Y-75760474D01*
X128951447Y-75081000D01*
X128957661Y-75081000D01*
X129059394Y-75053741D01*
X129150606Y-75001080D01*
X129225080Y-74926606D01*
X129277741Y-74835394D01*
X129305000Y-74733661D01*
X129305000Y-74727447D01*
X129984474Y-75406921D01*
X130016859Y-75362349D01*
X130109755Y-75180031D01*
X130172990Y-74985417D01*
X130205000Y-74783317D01*
X130205000Y-74578683D01*
X130196867Y-74527336D01*
X130196867Y-74527335D01*
X130172990Y-74376582D01*
X130109755Y-74181968D01*
X130016859Y-73999650D01*
X129984474Y-73955077D01*
X129984474Y-73955076D01*
X129305000Y-74634551D01*
X129305000Y-74628339D01*
X129277741Y-74526606D01*
X129225080Y-74435394D01*
X129150606Y-74360920D01*
X129059394Y-74308259D01*
X128957661Y-74281000D01*
X128951446Y-74281000D01*
X129630922Y-73601524D01*
X129630921Y-73601523D01*
X129586359Y-73569147D01*
X129586350Y-73569141D01*
X129404031Y-73476244D01*
X129209417Y-73413009D01*
X129007317Y-73381000D01*
X128802683Y-73381000D01*
X128600582Y-73413009D01*
X128405968Y-73476244D01*
X128223644Y-73569143D01*
X128179077Y-73601523D01*
X128179077Y-73601524D01*
X128858554Y-74281000D01*
X128852339Y-74281000D01*
X128750606Y-74308259D01*
X128659394Y-74360920D01*
X128584920Y-74435394D01*
X128532259Y-74526606D01*
X128505000Y-74628339D01*
X128505000Y-74634553D01*
X127825524Y-73955077D01*
X127825523Y-73955077D01*
X127793143Y-73999644D01*
X127700244Y-74181968D01*
X127637009Y-74376582D01*
X127605000Y-74578682D01*
X122585500Y-74578682D01*
X122585500Y-74578648D01*
X122565028Y-74449394D01*
X122553477Y-74376465D01*
X122493751Y-74192648D01*
X122490220Y-74181781D01*
X122490218Y-74181778D01*
X122490218Y-74181776D01*
X122397419Y-73999650D01*
X122397287Y-73999390D01*
X122365092Y-73955077D01*
X122276971Y-73833786D01*
X122132213Y-73689028D01*
X121966613Y-73568715D01*
X121966612Y-73568714D01*
X121966610Y-73568713D01*
X121897083Y-73533287D01*
X121784223Y-73475781D01*
X121589534Y-73412522D01*
X121414995Y-73384878D01*
X121387352Y-73380500D01*
X121182648Y-73380500D01*
X121158329Y-73384351D01*
X120980465Y-73412522D01*
X120785776Y-73475781D01*
X120603386Y-73568715D01*
X120437786Y-73689028D01*
X120293028Y-73833786D01*
X120172715Y-73999386D01*
X120079781Y-74181776D01*
X120016522Y-74376465D01*
X119984500Y-74578648D01*
X112519730Y-74578648D01*
X112459712Y-74481344D01*
X112335656Y-74357288D01*
X112186335Y-74265186D01*
X112019798Y-74210001D01*
X112019796Y-74210000D01*
X111917017Y-74199500D01*
X111917010Y-74199500D01*
X109316990Y-74199500D01*
X109316982Y-74199500D01*
X109214203Y-74210000D01*
X109214202Y-74210001D01*
X109131669Y-74237349D01*
X109047667Y-74265185D01*
X109047662Y-74265187D01*
X108898342Y-74357289D01*
X108774289Y-74481342D01*
X108682187Y-74630662D01*
X108682185Y-74630667D01*
X108665506Y-74681001D01*
X108627001Y-74797202D01*
X108627001Y-74797203D01*
X108627000Y-74797203D01*
X108616500Y-74899982D01*
X104767500Y-74899982D01*
X104767500Y-67207648D01*
X120238500Y-67207648D01*
X120238500Y-67412351D01*
X120270522Y-67614534D01*
X120333781Y-67809223D01*
X120371113Y-67882490D01*
X120426585Y-67991359D01*
X120426715Y-67991613D01*
X120547028Y-68157213D01*
X120691786Y-68301971D01*
X120812226Y-68389474D01*
X120857390Y-68422287D01*
X120951032Y-68470000D01*
X121039776Y-68515218D01*
X121039778Y-68515218D01*
X121039781Y-68515220D01*
X121095703Y-68533390D01*
X121234465Y-68578477D01*
X121335557Y-68594488D01*
X121436648Y-68610500D01*
X121436649Y-68610500D01*
X121641351Y-68610500D01*
X121641352Y-68610500D01*
X121843534Y-68578477D01*
X122038219Y-68515220D01*
X122220610Y-68422287D01*
X122313590Y-68354732D01*
X122386213Y-68301971D01*
X122386215Y-68301968D01*
X122386219Y-68301966D01*
X122530966Y-68157219D01*
X122530968Y-68157215D01*
X122530971Y-68157213D01*
X122604879Y-68055485D01*
X122651287Y-67991610D01*
X122744220Y-67809219D01*
X122807477Y-67614534D01*
X122839500Y-67412352D01*
X122839500Y-67207682D01*
X127859000Y-67207682D01*
X127859000Y-67412317D01*
X127891009Y-67614417D01*
X127954244Y-67809031D01*
X128047141Y-67991350D01*
X128047147Y-67991359D01*
X128079523Y-68035921D01*
X128079524Y-68035922D01*
X128759000Y-67356446D01*
X128759000Y-67362661D01*
X128786259Y-67464394D01*
X128838920Y-67555606D01*
X128913394Y-67630080D01*
X129004606Y-67682741D01*
X129106339Y-67710000D01*
X129112553Y-67710000D01*
X128433076Y-68389474D01*
X128477650Y-68421859D01*
X128659968Y-68514755D01*
X128854582Y-68577990D01*
X129056683Y-68610000D01*
X129261317Y-68610000D01*
X129463417Y-68577990D01*
X129658031Y-68514755D01*
X129840349Y-68421859D01*
X129884921Y-68389474D01*
X129205447Y-67710000D01*
X129211661Y-67710000D01*
X129313394Y-67682741D01*
X129404606Y-67630080D01*
X129479080Y-67555606D01*
X129531741Y-67464394D01*
X129559000Y-67362661D01*
X129559000Y-67356447D01*
X130238474Y-68035921D01*
X130270859Y-67991349D01*
X130363755Y-67809031D01*
X130426990Y-67614417D01*
X130459000Y-67412317D01*
X130459000Y-67207682D01*
X130426990Y-67005582D01*
X130363755Y-66810968D01*
X130270859Y-66628650D01*
X130238474Y-66584077D01*
X130238474Y-66584076D01*
X129559000Y-67263551D01*
X129559000Y-67257339D01*
X129531741Y-67155606D01*
X129479080Y-67064394D01*
X129404606Y-66989920D01*
X129313394Y-66937259D01*
X129211661Y-66910000D01*
X129205446Y-66910000D01*
X129884922Y-66230524D01*
X129884921Y-66230523D01*
X129840359Y-66198147D01*
X129840350Y-66198141D01*
X129809297Y-66182319D01*
X129658031Y-66105244D01*
X129564899Y-66074983D01*
X132665500Y-66074983D01*
X132665500Y-67275001D01*
X132665501Y-67275018D01*
X132676000Y-67377796D01*
X132676001Y-67377799D01*
X132731185Y-67544331D01*
X132731187Y-67544336D01*
X132766069Y-67600888D01*
X132823288Y-67693656D01*
X132947344Y-67817712D01*
X133096666Y-67909814D01*
X133178570Y-67936954D01*
X133236015Y-67976727D01*
X133262838Y-68041243D01*
X133250523Y-68110018D01*
X133212451Y-68154978D01*
X133118787Y-68223028D01*
X133118782Y-68223032D01*
X132974028Y-68367786D01*
X132853715Y-68533386D01*
X132760781Y-68715776D01*
X132697522Y-68910465D01*
X132665500Y-69112648D01*
X132665500Y-69317351D01*
X132697522Y-69519534D01*
X132760781Y-69714223D01*
X132853715Y-69896613D01*
X132974028Y-70062213D01*
X133118786Y-70206971D01*
X133273749Y-70319556D01*
X133284390Y-70327287D01*
X133375840Y-70373883D01*
X133377080Y-70374515D01*
X133427876Y-70422490D01*
X133444671Y-70490311D01*
X133422134Y-70556446D01*
X133377080Y-70595485D01*
X133284386Y-70642715D01*
X133118786Y-70763028D01*
X132974028Y-70907786D01*
X132853715Y-71073386D01*
X132760781Y-71255776D01*
X132697522Y-71450465D01*
X132665500Y-71652648D01*
X132665500Y-71857351D01*
X132697522Y-72059534D01*
X132760781Y-72254223D01*
X132853715Y-72436613D01*
X132974028Y-72602213D01*
X133118786Y-72746971D01*
X133273749Y-72859556D01*
X133284390Y-72867287D01*
X133356424Y-72903990D01*
X133377629Y-72914795D01*
X133428425Y-72962770D01*
X133445220Y-73030591D01*
X133422682Y-73096726D01*
X133377629Y-73135765D01*
X133284650Y-73183140D01*
X133119105Y-73303417D01*
X133119104Y-73303417D01*
X132974417Y-73448104D01*
X132974417Y-73448105D01*
X132854140Y-73613650D01*
X132761244Y-73795970D01*
X132698009Y-73990586D01*
X132689391Y-74045000D01*
X134050314Y-74045000D01*
X134045920Y-74049394D01*
X133993259Y-74140606D01*
X133966000Y-74242339D01*
X133966000Y-74347661D01*
X133993259Y-74449394D01*
X134045920Y-74540606D01*
X134050314Y-74545000D01*
X132689391Y-74545000D01*
X132698009Y-74599413D01*
X132761244Y-74794029D01*
X132854140Y-74976349D01*
X132974417Y-75141894D01*
X132974417Y-75141895D01*
X133119104Y-75286582D01*
X133284650Y-75406859D01*
X133466968Y-75499755D01*
X133661582Y-75562990D01*
X133863683Y-75595000D01*
X134116000Y-75595000D01*
X134116000Y-74610686D01*
X134120394Y-74615080D01*
X134211606Y-74667741D01*
X134313339Y-74695000D01*
X134418661Y-74695000D01*
X134520394Y-74667741D01*
X134611606Y-74615080D01*
X134616000Y-74610686D01*
X134616000Y-75595000D01*
X134868317Y-75595000D01*
X135070417Y-75562990D01*
X135265031Y-75499755D01*
X135447349Y-75406859D01*
X135612894Y-75286582D01*
X135612895Y-75286582D01*
X135757582Y-75141895D01*
X135757582Y-75141894D01*
X135877859Y-74976349D01*
X135970755Y-74794029D01*
X136033990Y-74599413D01*
X136042609Y-74545000D01*
X134681686Y-74545000D01*
X134686080Y-74540606D01*
X134738741Y-74449394D01*
X134766000Y-74347661D01*
X134766000Y-74242339D01*
X134738741Y-74140606D01*
X134686080Y-74049394D01*
X134681686Y-74045000D01*
X136042609Y-74045000D01*
X136033990Y-73990586D01*
X135970755Y-73795970D01*
X135877859Y-73613650D01*
X135757582Y-73448105D01*
X135757582Y-73448104D01*
X135612895Y-73303417D01*
X135447349Y-73183140D01*
X135354370Y-73135765D01*
X135303574Y-73087790D01*
X135286779Y-73019969D01*
X135309316Y-72953835D01*
X135354370Y-72914795D01*
X135374375Y-72904602D01*
X135447610Y-72867287D01*
X135468770Y-72851913D01*
X135613213Y-72746971D01*
X135613215Y-72746968D01*
X135613219Y-72746966D01*
X135757966Y-72602219D01*
X135757968Y-72602215D01*
X135757971Y-72602213D01*
X135810732Y-72529590D01*
X135878287Y-72436610D01*
X135971220Y-72254219D01*
X136034477Y-72059534D01*
X136066500Y-71857352D01*
X136066500Y-71652648D01*
X136034477Y-71450466D01*
X135971220Y-71255781D01*
X135971218Y-71255778D01*
X135971218Y-71255776D01*
X135937503Y-71189607D01*
X135878287Y-71073390D01*
X135852568Y-71037990D01*
X135757971Y-70907786D01*
X135613213Y-70763028D01*
X135447614Y-70642715D01*
X135441006Y-70639348D01*
X135354917Y-70595483D01*
X135304123Y-70547511D01*
X135287328Y-70479690D01*
X135309865Y-70413555D01*
X135354917Y-70374516D01*
X135447610Y-70327287D01*
X135468770Y-70311913D01*
X135613213Y-70206971D01*
X135613215Y-70206968D01*
X135613219Y-70206966D01*
X135757966Y-70062219D01*
X135757968Y-70062215D01*
X135757971Y-70062213D01*
X135810732Y-69989590D01*
X135878287Y-69896610D01*
X135971220Y-69714219D01*
X136034477Y-69519534D01*
X136066500Y-69317352D01*
X136066500Y-69112648D01*
X136034477Y-68910466D01*
X135971220Y-68715781D01*
X135971218Y-68715778D01*
X135971218Y-68715776D01*
X135937503Y-68649607D01*
X135878287Y-68533390D01*
X135797567Y-68422287D01*
X135757971Y-68367786D01*
X135613219Y-68223034D01*
X135613211Y-68223028D01*
X135519547Y-68154978D01*
X135476882Y-68099649D01*
X135470903Y-68030036D01*
X135503508Y-67968240D01*
X135553426Y-67936955D01*
X135635334Y-67909814D01*
X135784656Y-67817712D01*
X135908712Y-67693656D01*
X136000814Y-67544334D01*
X136055999Y-67377797D01*
X136066500Y-67275009D01*
X136066499Y-66572648D01*
X140285500Y-66572648D01*
X140285500Y-66777351D01*
X140317522Y-66979534D01*
X140380781Y-67174223D01*
X140432135Y-67275009D01*
X140449964Y-67310001D01*
X140473715Y-67356613D01*
X140594028Y-67522213D01*
X140738786Y-67666971D01*
X140893749Y-67779556D01*
X140904390Y-67787287D01*
X140995840Y-67833883D01*
X140997080Y-67834515D01*
X141047876Y-67882490D01*
X141064671Y-67950311D01*
X141042134Y-68016446D01*
X140997080Y-68055485D01*
X140904386Y-68102715D01*
X140738786Y-68223028D01*
X140594028Y-68367786D01*
X140473715Y-68533386D01*
X140380781Y-68715776D01*
X140317522Y-68910465D01*
X140285500Y-69112648D01*
X140285500Y-69317351D01*
X140317522Y-69519534D01*
X140380781Y-69714223D01*
X140473715Y-69896613D01*
X140594028Y-70062213D01*
X140738786Y-70206971D01*
X140893749Y-70319556D01*
X140904390Y-70327287D01*
X140995840Y-70373883D01*
X140997080Y-70374515D01*
X141047876Y-70422490D01*
X141064671Y-70490311D01*
X141042134Y-70556446D01*
X140997080Y-70595485D01*
X140904386Y-70642715D01*
X140738786Y-70763028D01*
X140594028Y-70907786D01*
X140473715Y-71073386D01*
X140380781Y-71255776D01*
X140317522Y-71450465D01*
X140285500Y-71652648D01*
X140285500Y-71857351D01*
X140317522Y-72059534D01*
X140380781Y-72254223D01*
X140473715Y-72436613D01*
X140594028Y-72602213D01*
X140738786Y-72746971D01*
X140893749Y-72859556D01*
X140904390Y-72867287D01*
X140977625Y-72904602D01*
X140997080Y-72914515D01*
X141047876Y-72962490D01*
X141064671Y-73030311D01*
X141042134Y-73096446D01*
X140997080Y-73135485D01*
X140904386Y-73182715D01*
X140738786Y-73303028D01*
X140594028Y-73447786D01*
X140473715Y-73613386D01*
X140380781Y-73795776D01*
X140317522Y-73990465D01*
X140285500Y-74192648D01*
X140285500Y-74397351D01*
X140317522Y-74599534D01*
X140380781Y-74794223D01*
X140473715Y-74976613D01*
X140594028Y-75142213D01*
X140738786Y-75286971D01*
X140865179Y-75378799D01*
X140904390Y-75407287D01*
X141020607Y-75466503D01*
X141086776Y-75500218D01*
X141086778Y-75500218D01*
X141086781Y-75500220D01*
X141157565Y-75523219D01*
X141281465Y-75563477D01*
X141382557Y-75579488D01*
X141483648Y-75595500D01*
X141483649Y-75595500D01*
X142488351Y-75595500D01*
X142488352Y-75595500D01*
X142690534Y-75563477D01*
X142885219Y-75500220D01*
X143067610Y-75407287D01*
X143160590Y-75339732D01*
X143233213Y-75286971D01*
X143233215Y-75286968D01*
X143233219Y-75286966D01*
X143377966Y-75142219D01*
X143377968Y-75142215D01*
X143377971Y-75142213D01*
X143430732Y-75069590D01*
X143498287Y-74976610D01*
X143591220Y-74794219D01*
X143654477Y-74599534D01*
X143686500Y-74397352D01*
X143686500Y-74192648D01*
X143668022Y-74075983D01*
X145765500Y-74075983D01*
X145765500Y-75276001D01*
X145765501Y-75276018D01*
X145776000Y-75378796D01*
X145776001Y-75378799D01*
X145831185Y-75545331D01*
X145831187Y-75545336D01*
X145861820Y-75595000D01*
X145923288Y-75694656D01*
X146047344Y-75818712D01*
X146196666Y-75910814D01*
X146363203Y-75965999D01*
X146465991Y-75976500D01*
X147666008Y-75976499D01*
X147768797Y-75965999D01*
X147935334Y-75910814D01*
X148084656Y-75818712D01*
X148153524Y-75749843D01*
X148214843Y-75716361D01*
X148284535Y-75721345D01*
X148314082Y-75737206D01*
X148384390Y-75788287D01*
X148470561Y-75832193D01*
X148566776Y-75881218D01*
X148566778Y-75881218D01*
X148566781Y-75881220D01*
X148626190Y-75900523D01*
X148761465Y-75944477D01*
X148793034Y-75949477D01*
X148963648Y-75976500D01*
X148963649Y-75976500D01*
X149168351Y-75976500D01*
X149168352Y-75976500D01*
X149370534Y-75944477D01*
X149565219Y-75881220D01*
X149747610Y-75788287D01*
X149840590Y-75720732D01*
X149913213Y-75667971D01*
X149913215Y-75667968D01*
X149913219Y-75667966D01*
X150057966Y-75523219D01*
X150057968Y-75523215D01*
X150057971Y-75523213D01*
X150113038Y-75447418D01*
X150178287Y-75357610D01*
X150271220Y-75175219D01*
X150334477Y-74980534D01*
X150366500Y-74778352D01*
X150366500Y-74671872D01*
X168941500Y-74671872D01*
X168941500Y-74934127D01*
X168968123Y-75136339D01*
X168975730Y-75194116D01*
X169032734Y-75406859D01*
X169043602Y-75447418D01*
X169043605Y-75447428D01*
X169143953Y-75689690D01*
X169143958Y-75689700D01*
X169275075Y-75916803D01*
X169434718Y-76124851D01*
X169434726Y-76124860D01*
X169620140Y-76310274D01*
X169620148Y-76310281D01*
X169828196Y-76469924D01*
X170055299Y-76601041D01*
X170055309Y-76601046D01*
X170297571Y-76701394D01*
X170297581Y-76701398D01*
X170550884Y-76769270D01*
X170810880Y-76803500D01*
X170810887Y-76803500D01*
X171073113Y-76803500D01*
X171073120Y-76803500D01*
X171333116Y-76769270D01*
X171586419Y-76701398D01*
X171828697Y-76601043D01*
X172055803Y-76469924D01*
X172263851Y-76310282D01*
X172263855Y-76310277D01*
X172263860Y-76310274D01*
X172449274Y-76124860D01*
X172449277Y-76124855D01*
X172449282Y-76124851D01*
X172608924Y-75916803D01*
X172740043Y-75689697D01*
X172840398Y-75447419D01*
X172908270Y-75194116D01*
X172942500Y-74934120D01*
X172942500Y-74671880D01*
X172908270Y-74411884D01*
X172840398Y-74158581D01*
X172840394Y-74158571D01*
X172740046Y-73916309D01*
X172740041Y-73916299D01*
X172608924Y-73689196D01*
X172449281Y-73481148D01*
X172449274Y-73481140D01*
X172263860Y-73295726D01*
X172263851Y-73295718D01*
X172055803Y-73136075D01*
X171828700Y-73004958D01*
X171828690Y-73004953D01*
X171586428Y-72904605D01*
X171586421Y-72904603D01*
X171586419Y-72904602D01*
X171333116Y-72836730D01*
X171275339Y-72829123D01*
X171073127Y-72802500D01*
X171073120Y-72802500D01*
X170810880Y-72802500D01*
X170810872Y-72802500D01*
X170579772Y-72832926D01*
X170550884Y-72836730D01*
X170297581Y-72904602D01*
X170297571Y-72904605D01*
X170055309Y-73004953D01*
X170055299Y-73004958D01*
X169828196Y-73136075D01*
X169620148Y-73295718D01*
X169434718Y-73481148D01*
X169275075Y-73689196D01*
X169143958Y-73916299D01*
X169143953Y-73916309D01*
X169043605Y-74158571D01*
X169043602Y-74158581D01*
X168985221Y-74376465D01*
X168975730Y-74411885D01*
X168941500Y-74671872D01*
X150366500Y-74671872D01*
X150366500Y-74573648D01*
X150334477Y-74371466D01*
X150331050Y-74360920D01*
X150299945Y-74265187D01*
X150271220Y-74176781D01*
X150271218Y-74176778D01*
X150271218Y-74176776D01*
X150219865Y-74075991D01*
X150178287Y-73994390D01*
X150149724Y-73955076D01*
X150057971Y-73828786D01*
X149913213Y-73684028D01*
X149747613Y-73563715D01*
X149747612Y-73563714D01*
X149747610Y-73563713D01*
X149687896Y-73533287D01*
X149565223Y-73470781D01*
X149370534Y-73407522D01*
X149195995Y-73379878D01*
X149168352Y-73375500D01*
X148963648Y-73375500D01*
X148939329Y-73379351D01*
X148761465Y-73407522D01*
X148566776Y-73470781D01*
X148384391Y-73563712D01*
X148384383Y-73563717D01*
X148314085Y-73614790D01*
X148248279Y-73638269D01*
X148180225Y-73622442D01*
X148153521Y-73602153D01*
X148120081Y-73568713D01*
X148084656Y-73533288D01*
X147991420Y-73475780D01*
X147935336Y-73441187D01*
X147935331Y-73441185D01*
X147933862Y-73440698D01*
X147768797Y-73386001D01*
X147768795Y-73386000D01*
X147666010Y-73375500D01*
X146465998Y-73375500D01*
X146465981Y-73375501D01*
X146363203Y-73386000D01*
X146363200Y-73386001D01*
X146196668Y-73441185D01*
X146196663Y-73441187D01*
X146047342Y-73533289D01*
X145923289Y-73657342D01*
X145831187Y-73806663D01*
X145831186Y-73806666D01*
X145776001Y-73973203D01*
X145776001Y-73973204D01*
X145776000Y-73973204D01*
X145765500Y-74075983D01*
X143668022Y-74075983D01*
X143654477Y-73990466D01*
X143591220Y-73795781D01*
X143591218Y-73795778D01*
X143591218Y-73795776D01*
X143557503Y-73729607D01*
X143498287Y-73613390D01*
X143466140Y-73569143D01*
X143377971Y-73447786D01*
X143233213Y-73303028D01*
X143067614Y-73182715D01*
X143061006Y-73179348D01*
X142974917Y-73135483D01*
X142924123Y-73087511D01*
X142907328Y-73019690D01*
X142929865Y-72953555D01*
X142974917Y-72914516D01*
X143067610Y-72867287D01*
X143088770Y-72851913D01*
X143233213Y-72746971D01*
X143233215Y-72746968D01*
X143233219Y-72746966D01*
X143377966Y-72602219D01*
X143377968Y-72602215D01*
X143377971Y-72602213D01*
X143430732Y-72529590D01*
X143498287Y-72436610D01*
X143591220Y-72254219D01*
X143654477Y-72059534D01*
X143686500Y-71857352D01*
X143686500Y-71652648D01*
X143654477Y-71450466D01*
X143591220Y-71255781D01*
X143591218Y-71255778D01*
X143591218Y-71255776D01*
X143557503Y-71189607D01*
X143498287Y-71073390D01*
X143472568Y-71037990D01*
X143377971Y-70907786D01*
X143233213Y-70763028D01*
X143067614Y-70642715D01*
X143061006Y-70639348D01*
X142974917Y-70595483D01*
X142924123Y-70547511D01*
X142907328Y-70479690D01*
X142929865Y-70413555D01*
X142974917Y-70374516D01*
X143067610Y-70327287D01*
X143088770Y-70311913D01*
X143233213Y-70206971D01*
X143233215Y-70206968D01*
X143233219Y-70206966D01*
X143377966Y-70062219D01*
X143377968Y-70062215D01*
X143377971Y-70062213D01*
X143430732Y-69989590D01*
X143498287Y-69896610D01*
X143591220Y-69714219D01*
X143606341Y-69667682D01*
X154529000Y-69667682D01*
X154529000Y-69872317D01*
X154561009Y-70074417D01*
X154624244Y-70269031D01*
X154717141Y-70451350D01*
X154717147Y-70451359D01*
X154749523Y-70495921D01*
X154749524Y-70495922D01*
X155429000Y-69816446D01*
X155429000Y-69822661D01*
X155456259Y-69924394D01*
X155508920Y-70015606D01*
X155583394Y-70090080D01*
X155674606Y-70142741D01*
X155776339Y-70170000D01*
X155782553Y-70170000D01*
X155103076Y-70849474D01*
X155147650Y-70881859D01*
X155329968Y-70974755D01*
X155524582Y-71037990D01*
X155726683Y-71070000D01*
X155931317Y-71070000D01*
X156133417Y-71037990D01*
X156328031Y-70974755D01*
X156510349Y-70881859D01*
X156554921Y-70849474D01*
X155875447Y-70170000D01*
X155881661Y-70170000D01*
X155983394Y-70142741D01*
X156074606Y-70090080D01*
X156149080Y-70015606D01*
X156201741Y-69924394D01*
X156229000Y-69822661D01*
X156229000Y-69816447D01*
X156908474Y-70495921D01*
X156940859Y-70451349D01*
X157033755Y-70269031D01*
X157096990Y-70074417D01*
X157129000Y-69872317D01*
X157129000Y-69667682D01*
X157096990Y-69465582D01*
X157033755Y-69270968D01*
X156940859Y-69088650D01*
X156908474Y-69044077D01*
X156908474Y-69044076D01*
X156229000Y-69723551D01*
X156229000Y-69717339D01*
X156201741Y-69615606D01*
X156149080Y-69524394D01*
X156074606Y-69449920D01*
X155983394Y-69397259D01*
X155881661Y-69370000D01*
X155875446Y-69370000D01*
X156554922Y-68690524D01*
X156554921Y-68690523D01*
X156510359Y-68658147D01*
X156510350Y-68658141D01*
X156328031Y-68565244D01*
X156133417Y-68502009D01*
X155931317Y-68470000D01*
X155726683Y-68470000D01*
X155524582Y-68502009D01*
X155329968Y-68565244D01*
X155147644Y-68658143D01*
X155103077Y-68690523D01*
X155103077Y-68690524D01*
X155782554Y-69370000D01*
X155776339Y-69370000D01*
X155674606Y-69397259D01*
X155583394Y-69449920D01*
X155508920Y-69524394D01*
X155456259Y-69615606D01*
X155429000Y-69717339D01*
X155429000Y-69723553D01*
X154749524Y-69044077D01*
X154749523Y-69044077D01*
X154717143Y-69088644D01*
X154624244Y-69270968D01*
X154561009Y-69465582D01*
X154529000Y-69667682D01*
X143606341Y-69667682D01*
X143654477Y-69519534D01*
X143686500Y-69317352D01*
X143686500Y-69112648D01*
X143654477Y-68910466D01*
X143591220Y-68715781D01*
X143498287Y-68533390D01*
X143417567Y-68422287D01*
X143377971Y-68367786D01*
X143233213Y-68223028D01*
X143067614Y-68102715D01*
X143061006Y-68099348D01*
X142974917Y-68055483D01*
X142924123Y-68007511D01*
X142907328Y-67939690D01*
X142929865Y-67873555D01*
X142974917Y-67834516D01*
X143067610Y-67787287D01*
X143088770Y-67771913D01*
X143233213Y-67666971D01*
X143233215Y-67666968D01*
X143233219Y-67666966D01*
X143377966Y-67522219D01*
X143377968Y-67522215D01*
X143377971Y-67522213D01*
X143457789Y-67412351D01*
X143498287Y-67356610D01*
X143591220Y-67174219D01*
X143654477Y-66979534D01*
X143686500Y-66777352D01*
X143686500Y-66572648D01*
X143669099Y-66462786D01*
X143654477Y-66370465D01*
X143598485Y-66198141D01*
X143591220Y-66175781D01*
X143591218Y-66175778D01*
X143591218Y-66175776D01*
X143539865Y-66074991D01*
X143498287Y-65993390D01*
X143417567Y-65882287D01*
X143377971Y-65827786D01*
X143233213Y-65683028D01*
X143067613Y-65562715D01*
X143067612Y-65562714D01*
X143067610Y-65562713D01*
X143007898Y-65532288D01*
X142885223Y-65469781D01*
X142690534Y-65406522D01*
X142515995Y-65378878D01*
X142488352Y-65374500D01*
X141483648Y-65374500D01*
X141459329Y-65378351D01*
X141281465Y-65406522D01*
X141086776Y-65469781D01*
X140904386Y-65562715D01*
X140738786Y-65683028D01*
X140594028Y-65827786D01*
X140473715Y-65993386D01*
X140380781Y-66175776D01*
X140317522Y-66370465D01*
X140285500Y-66572648D01*
X136066499Y-66572648D01*
X136066499Y-66074992D01*
X136059383Y-66005335D01*
X136055999Y-65972203D01*
X136055998Y-65972200D01*
X136000814Y-65805666D01*
X135908712Y-65656344D01*
X135784656Y-65532288D01*
X135653860Y-65451613D01*
X135635336Y-65440187D01*
X135635331Y-65440185D01*
X135633862Y-65439698D01*
X135468797Y-65385001D01*
X135468795Y-65385000D01*
X135366010Y-65374500D01*
X133365998Y-65374500D01*
X133365981Y-65374501D01*
X133263203Y-65385000D01*
X133263200Y-65385001D01*
X133096668Y-65440185D01*
X133096663Y-65440187D01*
X132947342Y-65532289D01*
X132823289Y-65656342D01*
X132731187Y-65805663D01*
X132731185Y-65805668D01*
X132727596Y-65816499D01*
X132676001Y-65972203D01*
X132676001Y-65972204D01*
X132676000Y-65972204D01*
X132665500Y-66074983D01*
X129564899Y-66074983D01*
X129463417Y-66042009D01*
X129261317Y-66010000D01*
X129056683Y-66010000D01*
X128854582Y-66042009D01*
X128659968Y-66105244D01*
X128477644Y-66198143D01*
X128433077Y-66230523D01*
X128433077Y-66230524D01*
X129112554Y-66910000D01*
X129106339Y-66910000D01*
X129004606Y-66937259D01*
X128913394Y-66989920D01*
X128838920Y-67064394D01*
X128786259Y-67155606D01*
X128759000Y-67257339D01*
X128759000Y-67263553D01*
X128079524Y-66584077D01*
X128079523Y-66584077D01*
X128047143Y-66628644D01*
X127954244Y-66810968D01*
X127891009Y-67005582D01*
X127859000Y-67207682D01*
X122839500Y-67207682D01*
X122839500Y-67207648D01*
X122831257Y-67155606D01*
X122807477Y-67005465D01*
X122776458Y-66910000D01*
X122744220Y-66810781D01*
X122744218Y-66810778D01*
X122744218Y-66810776D01*
X122651419Y-66628650D01*
X122651287Y-66628390D01*
X122619092Y-66584077D01*
X122530971Y-66462786D01*
X122386213Y-66318028D01*
X122220613Y-66197715D01*
X122220612Y-66197714D01*
X122220610Y-66197713D01*
X122136106Y-66154656D01*
X122038223Y-66104781D01*
X121843534Y-66041522D01*
X121668995Y-66013878D01*
X121641352Y-66009500D01*
X121436648Y-66009500D01*
X121412329Y-66013351D01*
X121234465Y-66041522D01*
X121039776Y-66104781D01*
X120857386Y-66197715D01*
X120691786Y-66318028D01*
X120547028Y-66462786D01*
X120426715Y-66628386D01*
X120333781Y-66810776D01*
X120270522Y-67005465D01*
X120238500Y-67207648D01*
X104767500Y-67207648D01*
X104767500Y-64384905D01*
X108998000Y-64384905D01*
X108998000Y-64647094D01*
X109032220Y-64907009D01*
X109032222Y-64907020D01*
X109100075Y-65160255D01*
X109200404Y-65402471D01*
X109200409Y-65402482D01*
X109331488Y-65629516D01*
X109331494Y-65629524D01*
X109418080Y-65742365D01*
X110396958Y-64763487D01*
X110421978Y-64823890D01*
X110493112Y-64930351D01*
X110583649Y-65020888D01*
X110690110Y-65092022D01*
X110750511Y-65117041D01*
X109771633Y-66095917D01*
X109771633Y-66095918D01*
X109884475Y-66182505D01*
X109884483Y-66182511D01*
X110111517Y-66313590D01*
X110111528Y-66313595D01*
X110353744Y-66413924D01*
X110606979Y-66481777D01*
X110606990Y-66481779D01*
X110866905Y-66515999D01*
X110866920Y-66516000D01*
X111129080Y-66516000D01*
X111129094Y-66515999D01*
X111389009Y-66481779D01*
X111389020Y-66481777D01*
X111642255Y-66413924D01*
X111884471Y-66313595D01*
X111884482Y-66313590D01*
X112111516Y-66182511D01*
X112111534Y-66182499D01*
X112224365Y-66095919D01*
X112224365Y-66095917D01*
X111245488Y-65117041D01*
X111305890Y-65092022D01*
X111412351Y-65020888D01*
X111502888Y-64930351D01*
X111574022Y-64823890D01*
X111599041Y-64763489D01*
X112577917Y-65742365D01*
X112577919Y-65742365D01*
X112664499Y-65629534D01*
X112664511Y-65629516D01*
X112795590Y-65402482D01*
X112795595Y-65402471D01*
X112895924Y-65160255D01*
X112963777Y-64907020D01*
X112963779Y-64907009D01*
X112997999Y-64647094D01*
X112998000Y-64647080D01*
X112998000Y-64384919D01*
X112997999Y-64384905D01*
X112963779Y-64124990D01*
X112963777Y-64124979D01*
X112915533Y-63944927D01*
X112907778Y-63915983D01*
X146019500Y-63915983D01*
X146019500Y-65116001D01*
X146019501Y-65116018D01*
X146030000Y-65218796D01*
X146030001Y-65218799D01*
X146081596Y-65374500D01*
X146085186Y-65385334D01*
X146177288Y-65534656D01*
X146301344Y-65658712D01*
X146450666Y-65750814D01*
X146617203Y-65805999D01*
X146719991Y-65816500D01*
X147920008Y-65816499D01*
X148022797Y-65805999D01*
X148189334Y-65750814D01*
X148338656Y-65658712D01*
X148407879Y-65589489D01*
X148469202Y-65556004D01*
X148538894Y-65560988D01*
X148568446Y-65576853D01*
X148638646Y-65627857D01*
X148820968Y-65720755D01*
X149015582Y-65783990D01*
X149217683Y-65816000D01*
X149422317Y-65816000D01*
X149624417Y-65783990D01*
X149819031Y-65720755D01*
X150001349Y-65627859D01*
X150045921Y-65595474D01*
X149366447Y-64916000D01*
X149372661Y-64916000D01*
X149474394Y-64888741D01*
X149565606Y-64836080D01*
X149640080Y-64761606D01*
X149692741Y-64670394D01*
X149720000Y-64568661D01*
X149720000Y-64562448D01*
X150399474Y-65241922D01*
X150399474Y-65241921D01*
X150431859Y-65197349D01*
X150524755Y-65015031D01*
X150587990Y-64820417D01*
X150612187Y-64667648D01*
X154528500Y-64667648D01*
X154528500Y-64872351D01*
X154560522Y-65074534D01*
X154623781Y-65269223D01*
X154677423Y-65374500D01*
X154710892Y-65440186D01*
X154716715Y-65451613D01*
X154837028Y-65617213D01*
X154981786Y-65761971D01*
X155136749Y-65874556D01*
X155147390Y-65882287D01*
X155263607Y-65941503D01*
X155329776Y-65975218D01*
X155329778Y-65975218D01*
X155329781Y-65975220D01*
X155422472Y-66005337D01*
X155524465Y-66038477D01*
X155625557Y-66054488D01*
X155726648Y-66070500D01*
X155726649Y-66070500D01*
X155931351Y-66070500D01*
X155931352Y-66070500D01*
X156133534Y-66038477D01*
X156328219Y-65975220D01*
X156510610Y-65882287D01*
X156616075Y-65805663D01*
X156676213Y-65761971D01*
X156676215Y-65761968D01*
X156676219Y-65761966D01*
X156820966Y-65617219D01*
X156820968Y-65617215D01*
X156820971Y-65617213D01*
X156882671Y-65532288D01*
X156941287Y-65451610D01*
X157034220Y-65269219D01*
X157097477Y-65074534D01*
X157129500Y-64872352D01*
X157129500Y-64667648D01*
X157097477Y-64465466D01*
X157093095Y-64451981D01*
X157034218Y-64270776D01*
X156969244Y-64143259D01*
X156941287Y-64088390D01*
X156933556Y-64077749D01*
X156820971Y-63922786D01*
X156676213Y-63778028D01*
X156510613Y-63657715D01*
X156510612Y-63657714D01*
X156510610Y-63657713D01*
X156453653Y-63628691D01*
X156328223Y-63564781D01*
X156133534Y-63501522D01*
X155958995Y-63473878D01*
X155931352Y-63469500D01*
X155726648Y-63469500D01*
X155702329Y-63473351D01*
X155524465Y-63501522D01*
X155329776Y-63564781D01*
X155147386Y-63657715D01*
X154981786Y-63778028D01*
X154837028Y-63922786D01*
X154716715Y-64088386D01*
X154623781Y-64270776D01*
X154560522Y-64465465D01*
X154528500Y-64667648D01*
X150612187Y-64667648D01*
X150616031Y-64643378D01*
X150616031Y-64643377D01*
X150620000Y-64618318D01*
X150620000Y-64413682D01*
X150587990Y-64211582D01*
X150524755Y-64016968D01*
X150431859Y-63834650D01*
X150399474Y-63790077D01*
X150399474Y-63790076D01*
X149720000Y-64469551D01*
X149720000Y-64463339D01*
X149692741Y-64361606D01*
X149640080Y-64270394D01*
X149565606Y-64195920D01*
X149474394Y-64143259D01*
X149372661Y-64116000D01*
X149366446Y-64116000D01*
X150045922Y-63436524D01*
X150045921Y-63436523D01*
X150001359Y-63404147D01*
X150001350Y-63404141D01*
X149819031Y-63311244D01*
X149632894Y-63250764D01*
X149632893Y-63250763D01*
X149624419Y-63248010D01*
X149422317Y-63216000D01*
X149217683Y-63216000D01*
X149015582Y-63248009D01*
X148820968Y-63311244D01*
X148638651Y-63404139D01*
X148568444Y-63455148D01*
X148502637Y-63478627D01*
X148434583Y-63462801D01*
X148407878Y-63442510D01*
X148338657Y-63373289D01*
X148338656Y-63373288D01*
X148189334Y-63281186D01*
X148022797Y-63226001D01*
X148022795Y-63226000D01*
X147920010Y-63215500D01*
X146719998Y-63215500D01*
X146719981Y-63215501D01*
X146617203Y-63226000D01*
X146617200Y-63226001D01*
X146450668Y-63281185D01*
X146450663Y-63281187D01*
X146301342Y-63373289D01*
X146177289Y-63497342D01*
X146085187Y-63646663D01*
X146085185Y-63646668D01*
X146057349Y-63730670D01*
X146030001Y-63813203D01*
X146030001Y-63813204D01*
X146030000Y-63813204D01*
X146019500Y-63915983D01*
X112907778Y-63915983D01*
X112895924Y-63871744D01*
X112795595Y-63629528D01*
X112795590Y-63629517D01*
X112664511Y-63402483D01*
X112664505Y-63402475D01*
X112577918Y-63289633D01*
X112577917Y-63289633D01*
X111599041Y-64268510D01*
X111574022Y-64208110D01*
X111502888Y-64101649D01*
X111412351Y-64011112D01*
X111305890Y-63939978D01*
X111245487Y-63914957D01*
X112024463Y-63135982D01*
X168814500Y-63135982D01*
X168814500Y-65736017D01*
X168825000Y-65838796D01*
X168825001Y-65838798D01*
X168880186Y-66005335D01*
X168972288Y-66154656D01*
X169096344Y-66278712D01*
X169245665Y-66370814D01*
X169412202Y-66425999D01*
X169514990Y-66436500D01*
X169514995Y-66436500D01*
X172115005Y-66436500D01*
X172115010Y-66436500D01*
X172217798Y-66425999D01*
X172384335Y-66370814D01*
X172533656Y-66278712D01*
X172657712Y-66154656D01*
X172749814Y-66005335D01*
X172804999Y-65838798D01*
X172815500Y-65736010D01*
X172815500Y-63135990D01*
X172804999Y-63033202D01*
X172749814Y-62866665D01*
X172657712Y-62717344D01*
X172533656Y-62593288D01*
X172440890Y-62536070D01*
X172384337Y-62501187D01*
X172384332Y-62501185D01*
X172382863Y-62500698D01*
X172217798Y-62446001D01*
X172217796Y-62446000D01*
X172115017Y-62435500D01*
X172115010Y-62435500D01*
X169514990Y-62435500D01*
X169514982Y-62435500D01*
X169412203Y-62446000D01*
X169412202Y-62446001D01*
X169329669Y-62473349D01*
X169245667Y-62501185D01*
X169245662Y-62501187D01*
X169096342Y-62593289D01*
X168972289Y-62717342D01*
X168880187Y-62866662D01*
X168880186Y-62866665D01*
X168825001Y-63033202D01*
X168825001Y-63033203D01*
X168825000Y-63033203D01*
X168814500Y-63135982D01*
X112024463Y-63135982D01*
X112224365Y-62936080D01*
X112111524Y-62849494D01*
X112111516Y-62849488D01*
X111884482Y-62718409D01*
X111884471Y-62718404D01*
X111642255Y-62618075D01*
X111389020Y-62550222D01*
X111389009Y-62550220D01*
X111129094Y-62516000D01*
X110866905Y-62516000D01*
X110606990Y-62550220D01*
X110606979Y-62550222D01*
X110353744Y-62618075D01*
X110111528Y-62718404D01*
X110111517Y-62718409D01*
X109884471Y-62849496D01*
X109771633Y-62936079D01*
X109771633Y-62936080D01*
X110750511Y-63914958D01*
X110690110Y-63939978D01*
X110583649Y-64011112D01*
X110493112Y-64101649D01*
X110421978Y-64208110D01*
X110396958Y-64268511D01*
X109418080Y-63289633D01*
X109418079Y-63289633D01*
X109331496Y-63402471D01*
X109200409Y-63629517D01*
X109200404Y-63629528D01*
X109100075Y-63871744D01*
X109032222Y-64124979D01*
X109032220Y-64124990D01*
X108998000Y-64384905D01*
X104767500Y-64384905D01*
X104767500Y-58215982D01*
X108997500Y-58215982D01*
X108997500Y-60816017D01*
X109008000Y-60918796D01*
X109016114Y-60943281D01*
X109063186Y-61085335D01*
X109155288Y-61234656D01*
X109279344Y-61358712D01*
X109428665Y-61450814D01*
X109595202Y-61505999D01*
X109697990Y-61516500D01*
X109697995Y-61516500D01*
X112298005Y-61516500D01*
X112298010Y-61516500D01*
X112400798Y-61505999D01*
X112567335Y-61450814D01*
X112716656Y-61358712D01*
X112840712Y-61234656D01*
X112932814Y-61085335D01*
X112987999Y-60918798D01*
X112998500Y-60816010D01*
X112998500Y-58962983D01*
X123413500Y-58962983D01*
X123413500Y-60163001D01*
X123413501Y-60163018D01*
X123424000Y-60265796D01*
X123424001Y-60265799D01*
X123471856Y-60410213D01*
X123479186Y-60432334D01*
X123571288Y-60581656D01*
X123695344Y-60705712D01*
X123844666Y-60797814D01*
X124011203Y-60852999D01*
X124113991Y-60863500D01*
X125314008Y-60863499D01*
X125416797Y-60852999D01*
X125583334Y-60797814D01*
X125732656Y-60705712D01*
X125801524Y-60636843D01*
X125862843Y-60603361D01*
X125932535Y-60608345D01*
X125962082Y-60624206D01*
X126032390Y-60675287D01*
X126118561Y-60719193D01*
X126214776Y-60768218D01*
X126214778Y-60768218D01*
X126214781Y-60768220D01*
X126305856Y-60797812D01*
X126409465Y-60831477D01*
X126510557Y-60847488D01*
X126611648Y-60863500D01*
X126611649Y-60863500D01*
X126816351Y-60863500D01*
X126816352Y-60863500D01*
X127018534Y-60831477D01*
X127213219Y-60768220D01*
X127286958Y-60730648D01*
X133065500Y-60730648D01*
X133065500Y-60935351D01*
X133097522Y-61137534D01*
X133160781Y-61332223D01*
X133213913Y-61436499D01*
X133249325Y-61505999D01*
X133253715Y-61514613D01*
X133374028Y-61680213D01*
X133518786Y-61824971D01*
X133673749Y-61937556D01*
X133684390Y-61945287D01*
X133800607Y-62004503D01*
X133866776Y-62038218D01*
X133866778Y-62038218D01*
X133866781Y-62038220D01*
X133971137Y-62072127D01*
X134061465Y-62101477D01*
X134162557Y-62117488D01*
X134263648Y-62133500D01*
X134263649Y-62133500D01*
X134468351Y-62133500D01*
X134468352Y-62133500D01*
X134670534Y-62101477D01*
X134865219Y-62038220D01*
X135047610Y-61945287D01*
X135140590Y-61877732D01*
X135213213Y-61824971D01*
X135213215Y-61824968D01*
X135213219Y-61824966D01*
X135357966Y-61680219D01*
X135357968Y-61680215D01*
X135357971Y-61680213D01*
X135410732Y-61607590D01*
X135478287Y-61514610D01*
X135571220Y-61332219D01*
X135634477Y-61137534D01*
X135666500Y-60935352D01*
X135666500Y-60730648D01*
X140685500Y-60730648D01*
X140685500Y-60935351D01*
X140717522Y-61137534D01*
X140780781Y-61332223D01*
X140833913Y-61436499D01*
X140869325Y-61505999D01*
X140873715Y-61514613D01*
X140994028Y-61680213D01*
X141138786Y-61824971D01*
X141293749Y-61937556D01*
X141304390Y-61945287D01*
X141420607Y-62004503D01*
X141486776Y-62038218D01*
X141486778Y-62038218D01*
X141486781Y-62038220D01*
X141591137Y-62072127D01*
X141681465Y-62101477D01*
X141782557Y-62117488D01*
X141883648Y-62133500D01*
X141883649Y-62133500D01*
X142088351Y-62133500D01*
X142088352Y-62133500D01*
X142290534Y-62101477D01*
X142485219Y-62038220D01*
X142667610Y-61945287D01*
X142760590Y-61877732D01*
X142833213Y-61824971D01*
X142833215Y-61824968D01*
X142833219Y-61824966D01*
X142977966Y-61680219D01*
X142977968Y-61680215D01*
X142977971Y-61680213D01*
X143030732Y-61607590D01*
X143098287Y-61514610D01*
X143191220Y-61332219D01*
X143254477Y-61137534D01*
X143286500Y-60935352D01*
X143286500Y-60730648D01*
X143269839Y-60625457D01*
X143254477Y-60528465D01*
X143191218Y-60333776D01*
X143156580Y-60265796D01*
X143098287Y-60151390D01*
X143046731Y-60080428D01*
X142977971Y-59985786D01*
X142833213Y-59841028D01*
X142667613Y-59720715D01*
X142667612Y-59720714D01*
X142667610Y-59720713D01*
X142610653Y-59691691D01*
X142485223Y-59627781D01*
X142290534Y-59564522D01*
X142115995Y-59536878D01*
X142088352Y-59532500D01*
X141883648Y-59532500D01*
X141859329Y-59536351D01*
X141681465Y-59564522D01*
X141486776Y-59627781D01*
X141304386Y-59720715D01*
X141138786Y-59841028D01*
X140994028Y-59985786D01*
X140873715Y-60151386D01*
X140780781Y-60333776D01*
X140717522Y-60528465D01*
X140685500Y-60730648D01*
X135666500Y-60730648D01*
X135649839Y-60625457D01*
X135634477Y-60528465D01*
X135571218Y-60333776D01*
X135536580Y-60265796D01*
X135478287Y-60151390D01*
X135426731Y-60080428D01*
X135357971Y-59985786D01*
X135213213Y-59841028D01*
X135047613Y-59720715D01*
X135047612Y-59720714D01*
X135047610Y-59720713D01*
X134990653Y-59691691D01*
X134865223Y-59627781D01*
X134670534Y-59564522D01*
X134495995Y-59536878D01*
X134468352Y-59532500D01*
X134263648Y-59532500D01*
X134239329Y-59536351D01*
X134061465Y-59564522D01*
X133866776Y-59627781D01*
X133684386Y-59720715D01*
X133518786Y-59841028D01*
X133374028Y-59985786D01*
X133253715Y-60151386D01*
X133160781Y-60333776D01*
X133097522Y-60528465D01*
X133065500Y-60730648D01*
X127286958Y-60730648D01*
X127395610Y-60675287D01*
X127561219Y-60554966D01*
X127705966Y-60410219D01*
X127705968Y-60410215D01*
X127705971Y-60410213D01*
X127810892Y-60265799D01*
X127826287Y-60244610D01*
X127919220Y-60062219D01*
X127982477Y-59867534D01*
X128014500Y-59665352D01*
X128014500Y-59460648D01*
X127989829Y-59304886D01*
X127989827Y-59304872D01*
X168814500Y-59304872D01*
X168814500Y-59567127D01*
X168841123Y-59769339D01*
X168848730Y-59827116D01*
X168916602Y-60080418D01*
X168916605Y-60080428D01*
X169016953Y-60322690D01*
X169016958Y-60322700D01*
X169148075Y-60549803D01*
X169307718Y-60757851D01*
X169307726Y-60757860D01*
X169493140Y-60943274D01*
X169493148Y-60943281D01*
X169701196Y-61102924D01*
X169928299Y-61234041D01*
X169928309Y-61234046D01*
X170165320Y-61332219D01*
X170170581Y-61334398D01*
X170423884Y-61402270D01*
X170683880Y-61436500D01*
X170683887Y-61436500D01*
X170946113Y-61436500D01*
X170946120Y-61436500D01*
X171206116Y-61402270D01*
X171459419Y-61334398D01*
X171701697Y-61234043D01*
X171928803Y-61102924D01*
X172136851Y-60943282D01*
X172136855Y-60943277D01*
X172136860Y-60943274D01*
X172322274Y-60757860D01*
X172322277Y-60757855D01*
X172322282Y-60757851D01*
X172481924Y-60549803D01*
X172613043Y-60322697D01*
X172713398Y-60080419D01*
X172781270Y-59827116D01*
X172815500Y-59567120D01*
X172815500Y-59304880D01*
X172781270Y-59044884D01*
X172713398Y-58791581D01*
X172672841Y-58693668D01*
X172613046Y-58549309D01*
X172613041Y-58549299D01*
X172481924Y-58322196D01*
X172322281Y-58114148D01*
X172322274Y-58114140D01*
X172136860Y-57928726D01*
X172136851Y-57928718D01*
X171928803Y-57769075D01*
X171701700Y-57637958D01*
X171701690Y-57637953D01*
X171459428Y-57537605D01*
X171459421Y-57537603D01*
X171459419Y-57537602D01*
X171206116Y-57469730D01*
X171148339Y-57462123D01*
X170946127Y-57435500D01*
X170946120Y-57435500D01*
X170683880Y-57435500D01*
X170683872Y-57435500D01*
X170452772Y-57465926D01*
X170423884Y-57469730D01*
X170213877Y-57526001D01*
X170170581Y-57537602D01*
X170170571Y-57537605D01*
X169928309Y-57637953D01*
X169928299Y-57637958D01*
X169701196Y-57769075D01*
X169493148Y-57928718D01*
X169307718Y-58114148D01*
X169148075Y-58322196D01*
X169016958Y-58549299D01*
X169016953Y-58549309D01*
X168916605Y-58791571D01*
X168916602Y-58791581D01*
X168848730Y-59044885D01*
X168814500Y-59304872D01*
X127989827Y-59304872D01*
X127982477Y-59258465D01*
X127919218Y-59063776D01*
X127867865Y-58962991D01*
X127826287Y-58881390D01*
X127810894Y-58860203D01*
X127705971Y-58715786D01*
X127561213Y-58571028D01*
X127395613Y-58450715D01*
X127395612Y-58450714D01*
X127395610Y-58450713D01*
X127335896Y-58420287D01*
X127213223Y-58357781D01*
X127018534Y-58294522D01*
X126843995Y-58266878D01*
X126816352Y-58262500D01*
X126611648Y-58262500D01*
X126587329Y-58266351D01*
X126409465Y-58294522D01*
X126214776Y-58357781D01*
X126032391Y-58450712D01*
X126032383Y-58450717D01*
X125962085Y-58501790D01*
X125896279Y-58525269D01*
X125828225Y-58509442D01*
X125801521Y-58489153D01*
X125732656Y-58420288D01*
X125657995Y-58374237D01*
X125583336Y-58328187D01*
X125583331Y-58328185D01*
X125565257Y-58322196D01*
X125416797Y-58273001D01*
X125416795Y-58273000D01*
X125314010Y-58262500D01*
X124113998Y-58262500D01*
X124113981Y-58262501D01*
X124011203Y-58273000D01*
X124011200Y-58273001D01*
X123844668Y-58328185D01*
X123844663Y-58328187D01*
X123695342Y-58420289D01*
X123571289Y-58544342D01*
X123479187Y-58693663D01*
X123479186Y-58693666D01*
X123424001Y-58860203D01*
X123424001Y-58860204D01*
X123424000Y-58860204D01*
X123413500Y-58962983D01*
X112998500Y-58962983D01*
X112998500Y-58215990D01*
X112987999Y-58113202D01*
X112932814Y-57946665D01*
X112840712Y-57797344D01*
X112716656Y-57673288D01*
X112567335Y-57581186D01*
X112400798Y-57526001D01*
X112400796Y-57526000D01*
X112298017Y-57515500D01*
X112298010Y-57515500D01*
X109697990Y-57515500D01*
X109697982Y-57515500D01*
X109595203Y-57526000D01*
X109595202Y-57526001D01*
X109560193Y-57537602D01*
X109428667Y-57581185D01*
X109428662Y-57581187D01*
X109279342Y-57673289D01*
X109155289Y-57797342D01*
X109063187Y-57946662D01*
X109063186Y-57946665D01*
X109008001Y-58113202D01*
X109008001Y-58113203D01*
X109008000Y-58113203D01*
X108997500Y-58215982D01*
X104767500Y-58215982D01*
X104767500Y-50588872D01*
X108616500Y-50588872D01*
X108616500Y-50851127D01*
X108632831Y-50975164D01*
X108650730Y-51111116D01*
X108718602Y-51364418D01*
X108718605Y-51364428D01*
X108818953Y-51606690D01*
X108818958Y-51606700D01*
X108950075Y-51833803D01*
X109109718Y-52041851D01*
X109109726Y-52041860D01*
X109295140Y-52227274D01*
X109295148Y-52227281D01*
X109503196Y-52386924D01*
X109730299Y-52518041D01*
X109730309Y-52518046D01*
X109972571Y-52618394D01*
X109972581Y-52618398D01*
X110225884Y-52686270D01*
X110485880Y-52720500D01*
X110485887Y-52720500D01*
X110748113Y-52720500D01*
X110748120Y-52720500D01*
X111008116Y-52686270D01*
X111261419Y-52618398D01*
X111503697Y-52518043D01*
X111730803Y-52386924D01*
X111938851Y-52227282D01*
X111938855Y-52227277D01*
X111938860Y-52227274D01*
X112124274Y-52041860D01*
X112124277Y-52041855D01*
X112124282Y-52041851D01*
X112283924Y-51833803D01*
X112415043Y-51606697D01*
X112515398Y-51364419D01*
X112583270Y-51111116D01*
X112617500Y-50851120D01*
X112617500Y-50588880D01*
X112583270Y-50328884D01*
X112515398Y-50075581D01*
X112506918Y-50055108D01*
X112415046Y-49833309D01*
X112415041Y-49833299D01*
X112287917Y-49613112D01*
X112283924Y-49606196D01*
X112245394Y-49555984D01*
X121716000Y-49555984D01*
X121716000Y-49748015D01*
X121746040Y-49937684D01*
X121805383Y-50120321D01*
X121892561Y-50291415D01*
X121913798Y-50320646D01*
X122536000Y-49698445D01*
X122536000Y-49704661D01*
X122563259Y-49806394D01*
X122615920Y-49897606D01*
X122690394Y-49972080D01*
X122781606Y-50024741D01*
X122883339Y-50052000D01*
X122889554Y-50052000D01*
X122267351Y-50674200D01*
X122267352Y-50674201D01*
X122296577Y-50695434D01*
X122467678Y-50782616D01*
X122650315Y-50841959D01*
X122839985Y-50872000D01*
X123032015Y-50872000D01*
X123221684Y-50841959D01*
X123404321Y-50782616D01*
X123575419Y-50695436D01*
X123604646Y-50674201D01*
X123604646Y-50674200D01*
X122982447Y-50052000D01*
X122988661Y-50052000D01*
X123090394Y-50024741D01*
X123181606Y-49972080D01*
X123256080Y-49897606D01*
X123308741Y-49806394D01*
X123336000Y-49704661D01*
X123336000Y-49698446D01*
X123958200Y-50320646D01*
X123958201Y-50320646D01*
X123979436Y-50291419D01*
X124066616Y-50120319D01*
X124087805Y-50055108D01*
X124127242Y-49997433D01*
X124191600Y-49970234D01*
X124260447Y-49982148D01*
X124311923Y-50029392D01*
X124323667Y-50055108D01*
X124344916Y-50120505D01*
X124344917Y-50120506D01*
X124344918Y-50120509D01*
X124432135Y-50291681D01*
X124545055Y-50447102D01*
X124680898Y-50582945D01*
X124836319Y-50695865D01*
X125006576Y-50782616D01*
X125007493Y-50783083D01*
X125098845Y-50812764D01*
X125190199Y-50842447D01*
X125379945Y-50872500D01*
X125379946Y-50872500D01*
X125572054Y-50872500D01*
X125572055Y-50872500D01*
X125761801Y-50842447D01*
X125944509Y-50783082D01*
X126115681Y-50695865D01*
X126271102Y-50582945D01*
X126406945Y-50447102D01*
X126519865Y-50291681D01*
X126607082Y-50120509D01*
X126621680Y-50075581D01*
X126628069Y-50055919D01*
X126667506Y-49998243D01*
X126731864Y-49971044D01*
X126800711Y-49982958D01*
X126852187Y-50030202D01*
X126863931Y-50055919D01*
X126884915Y-50120504D01*
X126884918Y-50120509D01*
X126972135Y-50291681D01*
X127085055Y-50447102D01*
X127220898Y-50582945D01*
X127376319Y-50695865D01*
X127546576Y-50782616D01*
X127547493Y-50783083D01*
X127638845Y-50812764D01*
X127730199Y-50842447D01*
X127919945Y-50872500D01*
X127919946Y-50872500D01*
X128112054Y-50872500D01*
X128112055Y-50872500D01*
X128301801Y-50842447D01*
X128484509Y-50783082D01*
X128655681Y-50695865D01*
X128811102Y-50582945D01*
X128946945Y-50447102D01*
X129059865Y-50291681D01*
X129147082Y-50120509D01*
X129206447Y-49937801D01*
X129236500Y-49748055D01*
X129236500Y-49555945D01*
X129206447Y-49366199D01*
X129168332Y-49248891D01*
X129147083Y-49183493D01*
X129122260Y-49134776D01*
X129059865Y-49012319D01*
X128946945Y-48856898D01*
X128811102Y-48721055D01*
X128655681Y-48608135D01*
X128484506Y-48520916D01*
X128301802Y-48461553D01*
X128206928Y-48446526D01*
X128112055Y-48431500D01*
X127919945Y-48431500D01*
X127856696Y-48441517D01*
X127730197Y-48461553D01*
X127547493Y-48520916D01*
X127376318Y-48608135D01*
X127287645Y-48672560D01*
X127220898Y-48721055D01*
X127220896Y-48721057D01*
X127220895Y-48721057D01*
X127085057Y-48856895D01*
X127085057Y-48856896D01*
X127085055Y-48856898D01*
X127037790Y-48921953D01*
X126972135Y-49012318D01*
X126884916Y-49183493D01*
X126863931Y-49248081D01*
X126824494Y-49305756D01*
X126760135Y-49332955D01*
X126691289Y-49321041D01*
X126639813Y-49273797D01*
X126628069Y-49248081D01*
X126607083Y-49183493D01*
X126582260Y-49134776D01*
X126519865Y-49012319D01*
X126406945Y-48856898D01*
X126271102Y-48721055D01*
X126115681Y-48608135D01*
X125944506Y-48520916D01*
X125761802Y-48461553D01*
X125666928Y-48446526D01*
X125572055Y-48431500D01*
X125379945Y-48431500D01*
X125316696Y-48441517D01*
X125190197Y-48461553D01*
X125007493Y-48520916D01*
X124836318Y-48608135D01*
X124747645Y-48672560D01*
X124680898Y-48721055D01*
X124680896Y-48721057D01*
X124680895Y-48721057D01*
X124545057Y-48856895D01*
X124545057Y-48856896D01*
X124545055Y-48856898D01*
X124497790Y-48921953D01*
X124432135Y-49012318D01*
X124344917Y-49183492D01*
X124323667Y-49248892D01*
X124284229Y-49306567D01*
X124219870Y-49333765D01*
X124151024Y-49321850D01*
X124099548Y-49274605D01*
X124087805Y-49248891D01*
X124066616Y-49183680D01*
X123979434Y-49012577D01*
X123958201Y-48983352D01*
X123958200Y-48983351D01*
X123336000Y-49605552D01*
X123336000Y-49599339D01*
X123308741Y-49497606D01*
X123256080Y-49406394D01*
X123181606Y-49331920D01*
X123090394Y-49279259D01*
X122988661Y-49252000D01*
X122982447Y-49252000D01*
X123604646Y-48629798D01*
X123575415Y-48608561D01*
X123404321Y-48521383D01*
X123221684Y-48462040D01*
X123032015Y-48432000D01*
X122839985Y-48432000D01*
X122650315Y-48462040D01*
X122467678Y-48521383D01*
X122296578Y-48608564D01*
X122267352Y-48629798D01*
X122267351Y-48629798D01*
X122889554Y-49252000D01*
X122883339Y-49252000D01*
X122781606Y-49279259D01*
X122690394Y-49331920D01*
X122615920Y-49406394D01*
X122563259Y-49497606D01*
X122536000Y-49599339D01*
X122536000Y-49605553D01*
X121913798Y-48983351D01*
X121913798Y-48983352D01*
X121892564Y-49012578D01*
X121805383Y-49183678D01*
X121746040Y-49366315D01*
X121716000Y-49555984D01*
X112245394Y-49555984D01*
X112161424Y-49446554D01*
X112124282Y-49398149D01*
X112124281Y-49398148D01*
X112124274Y-49398140D01*
X111938860Y-49212726D01*
X111938851Y-49212718D01*
X111730803Y-49053075D01*
X111503700Y-48921958D01*
X111503690Y-48921953D01*
X111261428Y-48821605D01*
X111261421Y-48821603D01*
X111261419Y-48821602D01*
X111008116Y-48753730D01*
X110950339Y-48746123D01*
X110748127Y-48719500D01*
X110748120Y-48719500D01*
X110485880Y-48719500D01*
X110485872Y-48719500D01*
X110254772Y-48749926D01*
X110225884Y-48753730D01*
X109972581Y-48821602D01*
X109972571Y-48821605D01*
X109730309Y-48921953D01*
X109730299Y-48921958D01*
X109503196Y-49053075D01*
X109295148Y-49212718D01*
X109109718Y-49398148D01*
X108950075Y-49606196D01*
X108818958Y-49833299D01*
X108818953Y-49833309D01*
X108718605Y-50075571D01*
X108718602Y-50075581D01*
X108652938Y-50320646D01*
X108650730Y-50328885D01*
X108616500Y-50588872D01*
X104767500Y-50588872D01*
X104767500Y-44420013D01*
X108617000Y-44420013D01*
X108617000Y-45470000D01*
X110016999Y-45470000D01*
X109991979Y-45530402D01*
X109967000Y-45655981D01*
X109967000Y-45784019D01*
X109991979Y-45909598D01*
X110016999Y-45970000D01*
X108617001Y-45970000D01*
X108617001Y-47019986D01*
X108627494Y-47122696D01*
X108627494Y-47122698D01*
X108682640Y-47289119D01*
X108682645Y-47289130D01*
X108774680Y-47438340D01*
X108774683Y-47438344D01*
X108898655Y-47562316D01*
X108898659Y-47562319D01*
X109047869Y-47654354D01*
X109047880Y-47654359D01*
X109214302Y-47709505D01*
X109317020Y-47719999D01*
X110366999Y-47719999D01*
X110367000Y-47719998D01*
X110367000Y-46320001D01*
X110427402Y-46345021D01*
X110552981Y-46370000D01*
X110681019Y-46370000D01*
X110806598Y-46345021D01*
X110867000Y-46320001D01*
X110867000Y-47719999D01*
X111916972Y-47719999D01*
X111916986Y-47719998D01*
X112019696Y-47709505D01*
X112019698Y-47709505D01*
X112186119Y-47654359D01*
X112186130Y-47654354D01*
X112335340Y-47562319D01*
X112335344Y-47562316D01*
X112459316Y-47438344D01*
X112459319Y-47438340D01*
X112551354Y-47289130D01*
X112551359Y-47289119D01*
X112606505Y-47122697D01*
X112616999Y-47019986D01*
X112617000Y-47019973D01*
X112617000Y-46493983D01*
X132284500Y-46493983D01*
X132284500Y-47694001D01*
X132284501Y-47694018D01*
X132295000Y-47796796D01*
X132295001Y-47796799D01*
X132342856Y-47941213D01*
X132350186Y-47963334D01*
X132442288Y-48112656D01*
X132566344Y-48236712D01*
X132715666Y-48328814D01*
X132798154Y-48356148D01*
X132855599Y-48395919D01*
X132882422Y-48460435D01*
X132870107Y-48529211D01*
X132832036Y-48574170D01*
X132738113Y-48642410D01*
X132738104Y-48642417D01*
X132593417Y-48787104D01*
X132593417Y-48787105D01*
X132473140Y-48952650D01*
X132380244Y-49134970D01*
X132317009Y-49329586D01*
X132308391Y-49384000D01*
X133669314Y-49384000D01*
X133664920Y-49388394D01*
X133612259Y-49479606D01*
X133585000Y-49581339D01*
X133585000Y-49686661D01*
X133612259Y-49788394D01*
X133664920Y-49879606D01*
X133669314Y-49884000D01*
X132308391Y-49884000D01*
X132317009Y-49938413D01*
X132380244Y-50133029D01*
X132473140Y-50315349D01*
X132593417Y-50480894D01*
X132593417Y-50480895D01*
X132738104Y-50625582D01*
X132903652Y-50745861D01*
X132996628Y-50793234D01*
X133047425Y-50841208D01*
X133064220Y-50909029D01*
X133041683Y-50975164D01*
X132996630Y-51014203D01*
X132903388Y-51061713D01*
X132737786Y-51182028D01*
X132593028Y-51326786D01*
X132472715Y-51492386D01*
X132379781Y-51674776D01*
X132316522Y-51869465D01*
X132284500Y-52071648D01*
X132284500Y-52276351D01*
X132316522Y-52478534D01*
X132379781Y-52673223D01*
X132472715Y-52855613D01*
X132593028Y-53021213D01*
X132737786Y-53165971D01*
X132892749Y-53278556D01*
X132903390Y-53286287D01*
X132975424Y-53322990D01*
X132996629Y-53333795D01*
X133047425Y-53381770D01*
X133064220Y-53449591D01*
X133041682Y-53515726D01*
X132996629Y-53554765D01*
X132903650Y-53602140D01*
X132738105Y-53722417D01*
X132738104Y-53722417D01*
X132593417Y-53867104D01*
X132593417Y-53867105D01*
X132473140Y-54032650D01*
X132380244Y-54214970D01*
X132317009Y-54409586D01*
X132308391Y-54464000D01*
X133669314Y-54464000D01*
X133664920Y-54468394D01*
X133612259Y-54559606D01*
X133585000Y-54661339D01*
X133585000Y-54766661D01*
X133612259Y-54868394D01*
X133664920Y-54959606D01*
X133669314Y-54964000D01*
X132308391Y-54964000D01*
X132317009Y-55018413D01*
X132380244Y-55213029D01*
X132473140Y-55395349D01*
X132593417Y-55560894D01*
X132593417Y-55560895D01*
X132738104Y-55705582D01*
X132903650Y-55825859D01*
X133085968Y-55918755D01*
X133280582Y-55981990D01*
X133482683Y-56014000D01*
X133735000Y-56014000D01*
X133735000Y-55029686D01*
X133739394Y-55034080D01*
X133830606Y-55086741D01*
X133932339Y-55114000D01*
X134037661Y-55114000D01*
X134139394Y-55086741D01*
X134230606Y-55034080D01*
X134235000Y-55029686D01*
X134235000Y-56014000D01*
X134487317Y-56014000D01*
X134689417Y-55981990D01*
X134884031Y-55918755D01*
X135066349Y-55825859D01*
X135231894Y-55705582D01*
X135231895Y-55705582D01*
X135376582Y-55560895D01*
X135376582Y-55560894D01*
X135496859Y-55395349D01*
X135589755Y-55213029D01*
X135652990Y-55018413D01*
X135661609Y-54964000D01*
X134300686Y-54964000D01*
X134305080Y-54959606D01*
X134357741Y-54868394D01*
X134385000Y-54766661D01*
X134385000Y-54661339D01*
X134357741Y-54559606D01*
X134305080Y-54468394D01*
X134300686Y-54464000D01*
X135661609Y-54464000D01*
X135652990Y-54409586D01*
X135589755Y-54214970D01*
X135496859Y-54032650D01*
X135376582Y-53867105D01*
X135376582Y-53867104D01*
X135231895Y-53722417D01*
X135066349Y-53602140D01*
X134973370Y-53554765D01*
X134922574Y-53506790D01*
X134905779Y-53438969D01*
X134928316Y-53372835D01*
X134973370Y-53333795D01*
X134973920Y-53333515D01*
X135066610Y-53286287D01*
X135087770Y-53270913D01*
X135232213Y-53165971D01*
X135232215Y-53165968D01*
X135232219Y-53165966D01*
X135376966Y-53021219D01*
X135376968Y-53021215D01*
X135376971Y-53021213D01*
X135429732Y-52948590D01*
X135497287Y-52855610D01*
X135590220Y-52673219D01*
X135653477Y-52478534D01*
X135685500Y-52276352D01*
X135685500Y-52071648D01*
X135653477Y-51869466D01*
X135641889Y-51833803D01*
X135590218Y-51674776D01*
X135555526Y-51606690D01*
X135497287Y-51492390D01*
X135489556Y-51481749D01*
X135376971Y-51326786D01*
X135232213Y-51182028D01*
X135066611Y-51061713D01*
X134973369Y-51014203D01*
X134922574Y-50966229D01*
X134905779Y-50898407D01*
X134928317Y-50832273D01*
X134973371Y-50793234D01*
X135066347Y-50745861D01*
X135231894Y-50625582D01*
X135231895Y-50625582D01*
X135376582Y-50480895D01*
X135376582Y-50480894D01*
X135496859Y-50315349D01*
X135589755Y-50133029D01*
X135652990Y-49938413D01*
X135661609Y-49884000D01*
X134300686Y-49884000D01*
X134305080Y-49879606D01*
X134357741Y-49788394D01*
X134385000Y-49686661D01*
X134385000Y-49581339D01*
X134357741Y-49479606D01*
X134305080Y-49388394D01*
X134300686Y-49384000D01*
X135661609Y-49384000D01*
X135652990Y-49329586D01*
X135589755Y-49134970D01*
X135496859Y-48952650D01*
X135376582Y-48787105D01*
X135376582Y-48787104D01*
X135231895Y-48642417D01*
X135231886Y-48642410D01*
X135137964Y-48574170D01*
X135095298Y-48518840D01*
X135089320Y-48449227D01*
X135121926Y-48387432D01*
X135171845Y-48356148D01*
X135254334Y-48328814D01*
X135403656Y-48236712D01*
X135527712Y-48112656D01*
X135619814Y-47963334D01*
X135674999Y-47796797D01*
X135685500Y-47694009D01*
X135685499Y-46991648D01*
X139904500Y-46991648D01*
X139904500Y-47196351D01*
X139936522Y-47398534D01*
X139999781Y-47593223D01*
X140092715Y-47775613D01*
X140213028Y-47941213D01*
X140357786Y-48085971D01*
X140512749Y-48198556D01*
X140523390Y-48206287D01*
X140614840Y-48252883D01*
X140616080Y-48253515D01*
X140666876Y-48301490D01*
X140683671Y-48369311D01*
X140661134Y-48435446D01*
X140616080Y-48474485D01*
X140523386Y-48521715D01*
X140357786Y-48642028D01*
X140213028Y-48786786D01*
X140092715Y-48952386D01*
X139999781Y-49134776D01*
X139936522Y-49329465D01*
X139909892Y-49497606D01*
X139904500Y-49531648D01*
X139904500Y-49736352D01*
X139906354Y-49748055D01*
X139936522Y-49938534D01*
X139999781Y-50133223D01*
X140092715Y-50315613D01*
X140213028Y-50481213D01*
X140357786Y-50625971D01*
X140512749Y-50738556D01*
X140523390Y-50746287D01*
X140614840Y-50792883D01*
X140616080Y-50793515D01*
X140666876Y-50841490D01*
X140683671Y-50909311D01*
X140661134Y-50975446D01*
X140616080Y-51014485D01*
X140523386Y-51061715D01*
X140357786Y-51182028D01*
X140213028Y-51326786D01*
X140092715Y-51492386D01*
X139999781Y-51674776D01*
X139936522Y-51869465D01*
X139904500Y-52071648D01*
X139904500Y-52276351D01*
X139936522Y-52478534D01*
X139999781Y-52673223D01*
X140092715Y-52855613D01*
X140213028Y-53021213D01*
X140357786Y-53165971D01*
X140512749Y-53278556D01*
X140523390Y-53286287D01*
X140614840Y-53332883D01*
X140616080Y-53333515D01*
X140666876Y-53381490D01*
X140683671Y-53449311D01*
X140661134Y-53515446D01*
X140616080Y-53554485D01*
X140523386Y-53601715D01*
X140357786Y-53722028D01*
X140213028Y-53866786D01*
X140092715Y-54032386D01*
X139999781Y-54214776D01*
X139936522Y-54409465D01*
X139904500Y-54611648D01*
X139904500Y-54816351D01*
X139936522Y-55018534D01*
X139999781Y-55213223D01*
X140092715Y-55395613D01*
X140213028Y-55561213D01*
X140357786Y-55705971D01*
X140502137Y-55810846D01*
X140523390Y-55826287D01*
X140628242Y-55879712D01*
X140705776Y-55919218D01*
X140705778Y-55919218D01*
X140705781Y-55919220D01*
X140776562Y-55942218D01*
X140900465Y-55982477D01*
X141001557Y-55998488D01*
X141102648Y-56014500D01*
X141102649Y-56014500D01*
X142107351Y-56014500D01*
X142107352Y-56014500D01*
X142309534Y-55982477D01*
X142504219Y-55919220D01*
X142686610Y-55826287D01*
X142816148Y-55732173D01*
X142852213Y-55705971D01*
X142852215Y-55705968D01*
X142852219Y-55705966D01*
X142996966Y-55561219D01*
X142996968Y-55561215D01*
X142996971Y-55561213D01*
X143085182Y-55439799D01*
X143117287Y-55395610D01*
X143210220Y-55213219D01*
X143273477Y-55018534D01*
X143305500Y-54816352D01*
X143305500Y-54611648D01*
X143297257Y-54559606D01*
X143273477Y-54409465D01*
X143217693Y-54237781D01*
X143210220Y-54214781D01*
X143210217Y-54214777D01*
X143210217Y-54214774D01*
X143197660Y-54190130D01*
X143197659Y-54190129D01*
X143170580Y-54136983D01*
X145384500Y-54136983D01*
X145384500Y-55337001D01*
X145384501Y-55337018D01*
X145395000Y-55439796D01*
X145395001Y-55439799D01*
X145435129Y-55560895D01*
X145450186Y-55606334D01*
X145542288Y-55755656D01*
X145666344Y-55879712D01*
X145815666Y-55971814D01*
X145982203Y-56026999D01*
X146084991Y-56037500D01*
X147285008Y-56037499D01*
X147387797Y-56026999D01*
X147554334Y-55971814D01*
X147703656Y-55879712D01*
X147772524Y-55810843D01*
X147833843Y-55777361D01*
X147903535Y-55782345D01*
X147933082Y-55798206D01*
X148003390Y-55849287D01*
X148089561Y-55893193D01*
X148185776Y-55942218D01*
X148185778Y-55942218D01*
X148185781Y-55942220D01*
X148276856Y-55971812D01*
X148380465Y-56005477D01*
X148434277Y-56014000D01*
X148582648Y-56037500D01*
X148582649Y-56037500D01*
X148787351Y-56037500D01*
X148787352Y-56037500D01*
X148989534Y-56005477D01*
X149184219Y-55942220D01*
X149366610Y-55849287D01*
X149459590Y-55781732D01*
X149532213Y-55728971D01*
X149532215Y-55728968D01*
X149532219Y-55728966D01*
X149676966Y-55584219D01*
X149676968Y-55584215D01*
X149676971Y-55584213D01*
X149781892Y-55439799D01*
X149797287Y-55418610D01*
X149890220Y-55236219D01*
X149953477Y-55041534D01*
X149985500Y-54839352D01*
X149985500Y-54634648D01*
X149953477Y-54432466D01*
X149890220Y-54237781D01*
X149890218Y-54237778D01*
X149890218Y-54237776D01*
X149838865Y-54136991D01*
X149797287Y-54055390D01*
X149780573Y-54032385D01*
X149676971Y-53889786D01*
X149532213Y-53745028D01*
X149366613Y-53624715D01*
X149366612Y-53624714D01*
X149366610Y-53624713D01*
X149306896Y-53594287D01*
X149184223Y-53531781D01*
X148989534Y-53468522D01*
X148802940Y-53438969D01*
X148787352Y-53436500D01*
X148582648Y-53436500D01*
X148567060Y-53438969D01*
X148380465Y-53468522D01*
X148185776Y-53531781D01*
X148003391Y-53624712D01*
X148003383Y-53624717D01*
X147933085Y-53675790D01*
X147867279Y-53699269D01*
X147799225Y-53683442D01*
X147772521Y-53663153D01*
X147703656Y-53594288D01*
X147628995Y-53548237D01*
X147554336Y-53502187D01*
X147554331Y-53502185D01*
X147552862Y-53501698D01*
X147387797Y-53447001D01*
X147387795Y-53447000D01*
X147285010Y-53436500D01*
X146084998Y-53436500D01*
X146084981Y-53436501D01*
X145982203Y-53447000D01*
X145982200Y-53447001D01*
X145815668Y-53502185D01*
X145815663Y-53502187D01*
X145666342Y-53594289D01*
X145542289Y-53718342D01*
X145450187Y-53867663D01*
X145450186Y-53867666D01*
X145395001Y-54034203D01*
X145395001Y-54034204D01*
X145395000Y-54034204D01*
X145384500Y-54136983D01*
X143170580Y-54136983D01*
X143118211Y-54034204D01*
X143117287Y-54032390D01*
X143117285Y-54032387D01*
X143117284Y-54032385D01*
X142996971Y-53866786D01*
X142852213Y-53722028D01*
X142686614Y-53601715D01*
X142672036Y-53594287D01*
X142593917Y-53554483D01*
X142543123Y-53506511D01*
X142526328Y-53438690D01*
X142548865Y-53372555D01*
X142593917Y-53333516D01*
X142686610Y-53286287D01*
X142707770Y-53270913D01*
X142852213Y-53165971D01*
X142852215Y-53165968D01*
X142852219Y-53165966D01*
X142996966Y-53021219D01*
X142996968Y-53021215D01*
X142996971Y-53021213D01*
X143049732Y-52948590D01*
X143117287Y-52855610D01*
X143210220Y-52673219D01*
X143273477Y-52478534D01*
X143305500Y-52276352D01*
X143305500Y-52071648D01*
X143273477Y-51869466D01*
X143261889Y-51833803D01*
X143210218Y-51674776D01*
X143175526Y-51606690D01*
X143117287Y-51492390D01*
X143109556Y-51481749D01*
X142996971Y-51326786D01*
X142852213Y-51182028D01*
X142686614Y-51061715D01*
X142680006Y-51058348D01*
X142593917Y-51014483D01*
X142543123Y-50966511D01*
X142526328Y-50898690D01*
X142548865Y-50832555D01*
X142593917Y-50793516D01*
X142686610Y-50746287D01*
X142707770Y-50730913D01*
X142852213Y-50625971D01*
X142852215Y-50625968D01*
X142852219Y-50625966D01*
X142996966Y-50481219D01*
X142996968Y-50481215D01*
X142996971Y-50481213D01*
X143107642Y-50328885D01*
X143117287Y-50315610D01*
X143210220Y-50133219D01*
X143273477Y-49938534D01*
X143305500Y-49736352D01*
X143305500Y-49531648D01*
X143285661Y-49406394D01*
X143273477Y-49329465D01*
X143226108Y-49183680D01*
X143210220Y-49134781D01*
X143210218Y-49134778D01*
X143210218Y-49134776D01*
X143147954Y-49012578D01*
X143117287Y-48952390D01*
X143095176Y-48921957D01*
X142996971Y-48786786D01*
X142852213Y-48642028D01*
X142686614Y-48521715D01*
X142680006Y-48518348D01*
X142593917Y-48474483D01*
X142543123Y-48426511D01*
X142526328Y-48358690D01*
X142548865Y-48292555D01*
X142593917Y-48253516D01*
X142686610Y-48206287D01*
X142815482Y-48112657D01*
X142852213Y-48085971D01*
X142852215Y-48085968D01*
X142852219Y-48085966D01*
X142996966Y-47941219D01*
X142996968Y-47941215D01*
X142996971Y-47941213D01*
X143101892Y-47796799D01*
X143117287Y-47775610D01*
X143210220Y-47593219D01*
X143273477Y-47398534D01*
X143305500Y-47196352D01*
X143305500Y-46991648D01*
X143273477Y-46789466D01*
X143265852Y-46766000D01*
X143214746Y-46608712D01*
X143210220Y-46594781D01*
X143210218Y-46594778D01*
X143210218Y-46594776D01*
X143158865Y-46493991D01*
X143117287Y-46412390D01*
X143068341Y-46345021D01*
X142996971Y-46246786D01*
X142852213Y-46102028D01*
X142686613Y-45981715D01*
X142686612Y-45981714D01*
X142686610Y-45981713D01*
X142626898Y-45951288D01*
X142504223Y-45888781D01*
X142309534Y-45825522D01*
X142134995Y-45797878D01*
X142107352Y-45793500D01*
X141102648Y-45793500D01*
X141078329Y-45797351D01*
X140900465Y-45825522D01*
X140705776Y-45888781D01*
X140523386Y-45981715D01*
X140357786Y-46102028D01*
X140213028Y-46246786D01*
X140092715Y-46412386D01*
X139999781Y-46594776D01*
X139936522Y-46789465D01*
X139904500Y-46991648D01*
X135685499Y-46991648D01*
X135685499Y-46493992D01*
X135684545Y-46484657D01*
X135674999Y-46391203D01*
X135674998Y-46391200D01*
X135643459Y-46296022D01*
X135619814Y-46224666D01*
X135527712Y-46075344D01*
X135403656Y-45951288D01*
X135302314Y-45888780D01*
X135254336Y-45859187D01*
X135254331Y-45859185D01*
X135252862Y-45858698D01*
X135087797Y-45804001D01*
X135087795Y-45804000D01*
X134985010Y-45793500D01*
X132984998Y-45793500D01*
X132984981Y-45793501D01*
X132882203Y-45804000D01*
X132882200Y-45804001D01*
X132715668Y-45859185D01*
X132715663Y-45859187D01*
X132566342Y-45951289D01*
X132442289Y-46075342D01*
X132350187Y-46224663D01*
X132350186Y-46224666D01*
X132295001Y-46391203D01*
X132295001Y-46391204D01*
X132295000Y-46391204D01*
X132284500Y-46493983D01*
X112617000Y-46493983D01*
X112617000Y-45970000D01*
X111217001Y-45970000D01*
X111242021Y-45909598D01*
X111267000Y-45784019D01*
X111267000Y-45655981D01*
X111242021Y-45530402D01*
X111217001Y-45470000D01*
X112616999Y-45470000D01*
X112616999Y-44865983D01*
X145130500Y-44865983D01*
X145130500Y-46066001D01*
X145130501Y-46066018D01*
X145141000Y-46168796D01*
X145141001Y-46168799D01*
X145166842Y-46246781D01*
X145196186Y-46335334D01*
X145288288Y-46484656D01*
X145412344Y-46608712D01*
X145561666Y-46700814D01*
X145728203Y-46755999D01*
X145830991Y-46766500D01*
X147031008Y-46766499D01*
X147133797Y-46755999D01*
X147300334Y-46700814D01*
X147449656Y-46608712D01*
X147518879Y-46539489D01*
X147580202Y-46506004D01*
X147649894Y-46510988D01*
X147679446Y-46526853D01*
X147749646Y-46577857D01*
X147931968Y-46670755D01*
X148126582Y-46733990D01*
X148328683Y-46766000D01*
X148533317Y-46766000D01*
X148735417Y-46733990D01*
X148930031Y-46670755D01*
X149112349Y-46577859D01*
X149156921Y-46545474D01*
X148477447Y-45866000D01*
X148483661Y-45866000D01*
X148585394Y-45838741D01*
X148676606Y-45786080D01*
X148751080Y-45711606D01*
X148803741Y-45620394D01*
X148831000Y-45518661D01*
X148831000Y-45512447D01*
X149510474Y-46191921D01*
X149542859Y-46147349D01*
X149635755Y-45965031D01*
X149698990Y-45770417D01*
X149731000Y-45568317D01*
X149731000Y-45363682D01*
X149698990Y-45161582D01*
X149635755Y-44966968D01*
X149542859Y-44784650D01*
X149510474Y-44740077D01*
X149510474Y-44740076D01*
X148831000Y-45419551D01*
X148831000Y-45413339D01*
X148803741Y-45311606D01*
X148751080Y-45220394D01*
X148676606Y-45145920D01*
X148585394Y-45093259D01*
X148483661Y-45066000D01*
X148477446Y-45066000D01*
X149156922Y-44386524D01*
X149156921Y-44386523D01*
X149112359Y-44354147D01*
X149112350Y-44354141D01*
X148930031Y-44261244D01*
X148735417Y-44198009D01*
X148533317Y-44166000D01*
X148328683Y-44166000D01*
X148126582Y-44198009D01*
X147931968Y-44261244D01*
X147749651Y-44354139D01*
X147679444Y-44405148D01*
X147613637Y-44428627D01*
X147545583Y-44412801D01*
X147518878Y-44392510D01*
X147449657Y-44323289D01*
X147449656Y-44323288D01*
X147300334Y-44231186D01*
X147133797Y-44176001D01*
X147133795Y-44176000D01*
X147031010Y-44165500D01*
X145830998Y-44165500D01*
X145830981Y-44165501D01*
X145728203Y-44176000D01*
X145728200Y-44176001D01*
X145561668Y-44231185D01*
X145561663Y-44231187D01*
X145412342Y-44323289D01*
X145288289Y-44447342D01*
X145196187Y-44596663D01*
X145196186Y-44596666D01*
X145141001Y-44763203D01*
X145141001Y-44763204D01*
X145141000Y-44763204D01*
X145130500Y-44865983D01*
X112616999Y-44865983D01*
X112616999Y-44420028D01*
X112616998Y-44420013D01*
X112606505Y-44317303D01*
X112606505Y-44317301D01*
X112551359Y-44150880D01*
X112551354Y-44150869D01*
X112459319Y-44001659D01*
X112459316Y-44001655D01*
X112335344Y-43877683D01*
X112335340Y-43877680D01*
X112186130Y-43785645D01*
X112186119Y-43785640D01*
X112019697Y-43730494D01*
X111916986Y-43720000D01*
X110867000Y-43720000D01*
X110867000Y-45119998D01*
X110806598Y-45094979D01*
X110681019Y-45070000D01*
X110552981Y-45070000D01*
X110427402Y-45094979D01*
X110367000Y-45119998D01*
X110367000Y-43720000D01*
X109317028Y-43720000D01*
X109317012Y-43720001D01*
X109214303Y-43730494D01*
X109214301Y-43730494D01*
X109047880Y-43785640D01*
X109047869Y-43785645D01*
X108898659Y-43877680D01*
X108898655Y-43877683D01*
X108774683Y-44001655D01*
X108774680Y-44001659D01*
X108682645Y-44150869D01*
X108682640Y-44150880D01*
X108627494Y-44317302D01*
X108617000Y-44420013D01*
X104767500Y-44420013D01*
X104767500Y-43331682D01*
X133115000Y-43331682D01*
X133115000Y-43536317D01*
X133147009Y-43738417D01*
X133210244Y-43933031D01*
X133303141Y-44115350D01*
X133303147Y-44115359D01*
X133335523Y-44159921D01*
X133335524Y-44159922D01*
X134015000Y-43480446D01*
X134015000Y-43486661D01*
X134042259Y-43588394D01*
X134094920Y-43679606D01*
X134169394Y-43754080D01*
X134260606Y-43806741D01*
X134362339Y-43834000D01*
X134368553Y-43834000D01*
X133689076Y-44513474D01*
X133733650Y-44545859D01*
X133915968Y-44638755D01*
X134110582Y-44701990D01*
X134312683Y-44734000D01*
X134517317Y-44734000D01*
X134719417Y-44701990D01*
X134914031Y-44638755D01*
X135096349Y-44545859D01*
X135140921Y-44513474D01*
X134461447Y-43834000D01*
X134467661Y-43834000D01*
X134569394Y-43806741D01*
X134660606Y-43754080D01*
X134735080Y-43679606D01*
X134787741Y-43588394D01*
X134815000Y-43486661D01*
X134815000Y-43480447D01*
X135494474Y-44159921D01*
X135526859Y-44115349D01*
X135619755Y-43933031D01*
X135682990Y-43738417D01*
X135715000Y-43536317D01*
X135715000Y-43331682D01*
X135682990Y-43129582D01*
X135619755Y-42934968D01*
X135526859Y-42752650D01*
X135494474Y-42708077D01*
X135494474Y-42708076D01*
X134815000Y-43387551D01*
X134815000Y-43381339D01*
X134787741Y-43279606D01*
X134735080Y-43188394D01*
X134660606Y-43113920D01*
X134569394Y-43061259D01*
X134467661Y-43034000D01*
X134461446Y-43034000D01*
X135140922Y-42354524D01*
X135140921Y-42354523D01*
X135096359Y-42322147D01*
X135096350Y-42322141D01*
X134914031Y-42229244D01*
X134719417Y-42166009D01*
X134517317Y-42134000D01*
X134312683Y-42134000D01*
X134110582Y-42166009D01*
X133915968Y-42229244D01*
X133733644Y-42322143D01*
X133689077Y-42354523D01*
X133689077Y-42354524D01*
X134368554Y-43034000D01*
X134362339Y-43034000D01*
X134260606Y-43061259D01*
X134169394Y-43113920D01*
X134094920Y-43188394D01*
X134042259Y-43279606D01*
X134015000Y-43381339D01*
X134015000Y-43387553D01*
X133335524Y-42708077D01*
X133335523Y-42708077D01*
X133303143Y-42752644D01*
X133210244Y-42934968D01*
X133147009Y-43129582D01*
X133115000Y-43331682D01*
X104767500Y-43331682D01*
X104767500Y-35501135D01*
X110105500Y-35501135D01*
X110105500Y-37396870D01*
X110105501Y-37396876D01*
X110111908Y-37456483D01*
X110162202Y-37591328D01*
X110162206Y-37591335D01*
X110248452Y-37706544D01*
X110248455Y-37706547D01*
X110363664Y-37792793D01*
X110363671Y-37792797D01*
X110443580Y-37822601D01*
X110499514Y-37864472D01*
X110523931Y-37929936D01*
X110509080Y-37998209D01*
X110487929Y-38026463D01*
X110437756Y-38076636D01*
X110437752Y-38076641D01*
X110308187Y-38254974D01*
X110208104Y-38451393D01*
X110208103Y-38451396D01*
X110139985Y-38661047D01*
X110105500Y-38878778D01*
X110105500Y-39099221D01*
X110139985Y-39316952D01*
X110208103Y-39526603D01*
X110208104Y-39526606D01*
X110257582Y-39623710D01*
X110304512Y-39715814D01*
X110308187Y-39723025D01*
X110437752Y-39901358D01*
X110437756Y-39901363D01*
X110593636Y-40057243D01*
X110593641Y-40057247D01*
X110749192Y-40170260D01*
X110771978Y-40186815D01*
X110900375Y-40252237D01*
X110968393Y-40286895D01*
X110968396Y-40286896D01*
X111073221Y-40320955D01*
X111178049Y-40355015D01*
X111395778Y-40389500D01*
X111395779Y-40389500D01*
X111616221Y-40389500D01*
X111616222Y-40389500D01*
X111833951Y-40355015D01*
X112043606Y-40286895D01*
X112240022Y-40186815D01*
X112418365Y-40057242D01*
X112574242Y-39901365D01*
X112703815Y-39723022D01*
X112803895Y-39526606D01*
X112872015Y-39316951D01*
X112906500Y-39099222D01*
X112906500Y-38878778D01*
X112872015Y-38661049D01*
X112816575Y-38490419D01*
X112803896Y-38451396D01*
X112803895Y-38451393D01*
X112742337Y-38330581D01*
X112703815Y-38254978D01*
X112675890Y-38216542D01*
X112574247Y-38076641D01*
X112574243Y-38076636D01*
X112524071Y-38026464D01*
X112490586Y-37965141D01*
X112495570Y-37895449D01*
X112537442Y-37839516D01*
X112568420Y-37822601D01*
X112648326Y-37792798D01*
X112648326Y-37792797D01*
X112648331Y-37792796D01*
X112752424Y-37714872D01*
X121189500Y-37714872D01*
X121189500Y-37977127D01*
X121203176Y-38081000D01*
X121223730Y-38237116D01*
X121281146Y-38451396D01*
X121291602Y-38490418D01*
X121291605Y-38490428D01*
X121391953Y-38732690D01*
X121391958Y-38732700D01*
X121523075Y-38959803D01*
X121682718Y-39167851D01*
X121682726Y-39167860D01*
X121868140Y-39353274D01*
X121868148Y-39353281D01*
X122076196Y-39512924D01*
X122303299Y-39644041D01*
X122303309Y-39644046D01*
X122493982Y-39723025D01*
X122545581Y-39744398D01*
X122798884Y-39812270D01*
X123058880Y-39846500D01*
X123058887Y-39846500D01*
X123321113Y-39846500D01*
X123321120Y-39846500D01*
X123581116Y-39812270D01*
X123834419Y-39744398D01*
X124076697Y-39644043D01*
X124303803Y-39512924D01*
X124511851Y-39353282D01*
X124511855Y-39353277D01*
X124511860Y-39353274D01*
X124697274Y-39167860D01*
X124697277Y-39167855D01*
X124697282Y-39167851D01*
X124856924Y-38959803D01*
X124988043Y-38732697D01*
X125008159Y-38684134D01*
X125055395Y-38570094D01*
X125088398Y-38490419D01*
X125156270Y-38237116D01*
X125190500Y-37977120D01*
X125190500Y-37714880D01*
X125156270Y-37454884D01*
X125088398Y-37201581D01*
X125079873Y-37181000D01*
X124988046Y-36959309D01*
X124988041Y-36959299D01*
X124856927Y-36732201D01*
X124802460Y-36661219D01*
X124714035Y-36545982D01*
X126189500Y-36545982D01*
X126189500Y-39146017D01*
X126200000Y-39248796D01*
X126200001Y-39248798D01*
X126255186Y-39415335D01*
X126347288Y-39564656D01*
X126471344Y-39688712D01*
X126620665Y-39780814D01*
X126787202Y-39835999D01*
X126889990Y-39846500D01*
X126889995Y-39846500D01*
X129490005Y-39846500D01*
X129490010Y-39846500D01*
X129592798Y-39835999D01*
X129759335Y-39780814D01*
X129908656Y-39688712D01*
X130032712Y-39564656D01*
X130124814Y-39415335D01*
X130179999Y-39248798D01*
X130190500Y-39146010D01*
X130190500Y-37880983D01*
X139161500Y-37880983D01*
X139161500Y-39081001D01*
X139161501Y-39081018D01*
X139172000Y-39183796D01*
X139172001Y-39183799D01*
X139227185Y-39350331D01*
X139227187Y-39350336D01*
X139229004Y-39353282D01*
X139319288Y-39499656D01*
X139443344Y-39623712D01*
X139592666Y-39715814D01*
X139759203Y-39770999D01*
X139861991Y-39781500D01*
X141062008Y-39781499D01*
X141164797Y-39770999D01*
X141331334Y-39715814D01*
X141480656Y-39623712D01*
X141549879Y-39554489D01*
X141611202Y-39521004D01*
X141680894Y-39525988D01*
X141710446Y-39541853D01*
X141780646Y-39592857D01*
X141962968Y-39685755D01*
X142157582Y-39748990D01*
X142359683Y-39781000D01*
X142564317Y-39781000D01*
X142766417Y-39748990D01*
X142961031Y-39685755D01*
X143143349Y-39592859D01*
X143187921Y-39560474D01*
X142508447Y-38881000D01*
X142514661Y-38881000D01*
X142616394Y-38853741D01*
X142707606Y-38801080D01*
X142782080Y-38726606D01*
X142834741Y-38635394D01*
X142862000Y-38533661D01*
X142862000Y-38527447D01*
X143541474Y-39206921D01*
X143573859Y-39162349D01*
X143666755Y-38980031D01*
X143729990Y-38785417D01*
X143762000Y-38583317D01*
X143762000Y-38378682D01*
X143729990Y-38176582D01*
X143666755Y-37981968D01*
X143573859Y-37799650D01*
X143541474Y-37755077D01*
X143541474Y-37755076D01*
X142862000Y-38434551D01*
X142862000Y-38428339D01*
X142834741Y-38326606D01*
X142782080Y-38235394D01*
X142707606Y-38160920D01*
X142616394Y-38108259D01*
X142514661Y-38081000D01*
X142508446Y-38081000D01*
X143187922Y-37401524D01*
X143187921Y-37401523D01*
X143143359Y-37369147D01*
X143143350Y-37369141D01*
X142961031Y-37276244D01*
X142766417Y-37213009D01*
X142564317Y-37181000D01*
X142359683Y-37181000D01*
X142157582Y-37213009D01*
X141962968Y-37276244D01*
X141780651Y-37369139D01*
X141710444Y-37420148D01*
X141644637Y-37443627D01*
X141576583Y-37427801D01*
X141549878Y-37407510D01*
X141480657Y-37338289D01*
X141480656Y-37338288D01*
X141331334Y-37246186D01*
X141164797Y-37191001D01*
X141164795Y-37191000D01*
X141062010Y-37180500D01*
X139861998Y-37180500D01*
X139861981Y-37180501D01*
X139759203Y-37191000D01*
X139759200Y-37191001D01*
X139592668Y-37246185D01*
X139592663Y-37246187D01*
X139443342Y-37338289D01*
X139319289Y-37462342D01*
X139227187Y-37611663D01*
X139227186Y-37611666D01*
X139172001Y-37778203D01*
X139172001Y-37778204D01*
X139172000Y-37778204D01*
X139161500Y-37880983D01*
X130190500Y-37880983D01*
X130190500Y-36545990D01*
X130179999Y-36443202D01*
X130124814Y-36276665D01*
X130032712Y-36127344D01*
X129908656Y-36003288D01*
X129815890Y-35946070D01*
X129759337Y-35911187D01*
X129759332Y-35911185D01*
X129757863Y-35910698D01*
X129592798Y-35856001D01*
X129592796Y-35856000D01*
X129490017Y-35845500D01*
X129490010Y-35845500D01*
X126889990Y-35845500D01*
X126889982Y-35845500D01*
X126787203Y-35856000D01*
X126787202Y-35856001D01*
X126715593Y-35879730D01*
X126620667Y-35911185D01*
X126620662Y-35911187D01*
X126471342Y-36003289D01*
X126347289Y-36127342D01*
X126255187Y-36276662D01*
X126255186Y-36276665D01*
X126200001Y-36443202D01*
X126200001Y-36443203D01*
X126200000Y-36443203D01*
X126189500Y-36545982D01*
X124714035Y-36545982D01*
X124697282Y-36524149D01*
X124697281Y-36524148D01*
X124697274Y-36524140D01*
X124511860Y-36338726D01*
X124511851Y-36338718D01*
X124303803Y-36179075D01*
X124076700Y-36047958D01*
X124076690Y-36047953D01*
X123834428Y-35947605D01*
X123834421Y-35947603D01*
X123834419Y-35947602D01*
X123581116Y-35879730D01*
X123523339Y-35872123D01*
X123321127Y-35845500D01*
X123321120Y-35845500D01*
X123058880Y-35845500D01*
X123058872Y-35845500D01*
X122827772Y-35875926D01*
X122798884Y-35879730D01*
X122545581Y-35947602D01*
X122545571Y-35947605D01*
X122303309Y-36047953D01*
X122303299Y-36047958D01*
X122076196Y-36179075D01*
X121868148Y-36338718D01*
X121682718Y-36524148D01*
X121523075Y-36732196D01*
X121391958Y-36959299D01*
X121391953Y-36959309D01*
X121291605Y-37201571D01*
X121291602Y-37201581D01*
X121223730Y-37454884D01*
X121222748Y-37462342D01*
X121189500Y-37714872D01*
X112752424Y-37714872D01*
X112763546Y-37706546D01*
X112849796Y-37591331D01*
X112900091Y-37456483D01*
X112906500Y-37396873D01*
X112906499Y-35711648D01*
X133114500Y-35711648D01*
X133114500Y-35916351D01*
X133146522Y-36118534D01*
X133209781Y-36313223D01*
X133302715Y-36495613D01*
X133423028Y-36661213D01*
X133567786Y-36805971D01*
X133722749Y-36918556D01*
X133733390Y-36926287D01*
X133849607Y-36985503D01*
X133915776Y-37019218D01*
X133915778Y-37019218D01*
X133915781Y-37019220D01*
X134020137Y-37053127D01*
X134110465Y-37082477D01*
X134211557Y-37098488D01*
X134312648Y-37114500D01*
X134312649Y-37114500D01*
X134517351Y-37114500D01*
X134517352Y-37114500D01*
X134719534Y-37082477D01*
X134914219Y-37019220D01*
X135096610Y-36926287D01*
X135189590Y-36858732D01*
X135262213Y-36805971D01*
X135262215Y-36805968D01*
X135262219Y-36805966D01*
X135406966Y-36661219D01*
X135406968Y-36661215D01*
X135406971Y-36661213D01*
X135506553Y-36524148D01*
X135527287Y-36495610D01*
X135620220Y-36313219D01*
X135683477Y-36118534D01*
X135715500Y-35916352D01*
X135715500Y-35711648D01*
X135683477Y-35509466D01*
X135680767Y-35501127D01*
X135620218Y-35314776D01*
X135557382Y-35191455D01*
X135527287Y-35132390D01*
X135507537Y-35105206D01*
X135406971Y-34966786D01*
X135262213Y-34822028D01*
X135096613Y-34701715D01*
X135096612Y-34701714D01*
X135096610Y-34701713D01*
X135039653Y-34672691D01*
X134914223Y-34608781D01*
X134719534Y-34545522D01*
X134544995Y-34517878D01*
X134517352Y-34513500D01*
X134312648Y-34513500D01*
X134288329Y-34517351D01*
X134110465Y-34545522D01*
X133915776Y-34608781D01*
X133733386Y-34701715D01*
X133567786Y-34822028D01*
X133423028Y-34966786D01*
X133302715Y-35132386D01*
X133209781Y-35314776D01*
X133146522Y-35509465D01*
X133114500Y-35711648D01*
X112906499Y-35711648D01*
X112906499Y-35501128D01*
X112900091Y-35441517D01*
X112849796Y-35306669D01*
X112849795Y-35306668D01*
X112849793Y-35306664D01*
X112763547Y-35191455D01*
X112763544Y-35191452D01*
X112648335Y-35105206D01*
X112648328Y-35105202D01*
X112513482Y-35054908D01*
X112513483Y-35054908D01*
X112453883Y-35048501D01*
X112453881Y-35048500D01*
X112453873Y-35048500D01*
X112453864Y-35048500D01*
X110558129Y-35048500D01*
X110558123Y-35048501D01*
X110498516Y-35054908D01*
X110363671Y-35105202D01*
X110363664Y-35105206D01*
X110248455Y-35191452D01*
X110248452Y-35191455D01*
X110162206Y-35306664D01*
X110162202Y-35306671D01*
X110111908Y-35441517D01*
X110105501Y-35501116D01*
X110105501Y-35501123D01*
X110105500Y-35501135D01*
X104767500Y-35501135D01*
X104767500Y-31739500D01*
X104787185Y-31672461D01*
X104839989Y-31626706D01*
X104891500Y-31615500D01*
X176159500Y-31615500D01*
X176226539Y-31635185D01*
G37*
%TD.AperFunction*%
%TD*%
M02*
