%TF.GenerationSoftware,KiCad,Pcbnew,9.0.6*%
%TF.CreationDate,2025-11-25T16:13:47-08:00*%
%TF.ProjectId,CMPE 110 Lab Project,434d5045-2031-4313-9020-4c6162205072,rev?*%
%TF.SameCoordinates,Original*%
%TF.FileFunction,Soldermask,Bot*%
%TF.FilePolarity,Negative*%
%FSLAX46Y46*%
G04 Gerber Fmt 4.6, Leading zero omitted, Abs format (unit mm)*
G04 Created by KiCad (PCBNEW 9.0.6) date 2025-11-25 16:13:47*
%MOMM*%
%LPD*%
G01*
G04 APERTURE LIST*
G04 Aperture macros list*
%AMRoundRect*
0 Rectangle with rounded corners*
0 $1 Rounding radius*
0 $2 $3 $4 $5 $6 $7 $8 $9 X,Y pos of 4 corners*
0 Add a 4 corners polygon primitive as box body*
4,1,4,$2,$3,$4,$5,$6,$7,$8,$9,$2,$3,0*
0 Add four circle primitives for the rounded corners*
1,1,$1+$1,$2,$3*
1,1,$1+$1,$4,$5*
1,1,$1+$1,$6,$7*
1,1,$1+$1,$8,$9*
0 Add four rect primitives between the rounded corners*
20,1,$1+$1,$2,$3,$4,$5,0*
20,1,$1+$1,$4,$5,$6,$7,0*
20,1,$1+$1,$6,$7,$8,$9,0*
20,1,$1+$1,$8,$9,$2,$3,0*%
G04 Aperture macros list end*
%ADD10C,1.600000*%
%ADD11RoundRect,0.250000X-0.950000X-0.550000X0.950000X-0.550000X0.950000X0.550000X-0.950000X0.550000X0*%
%ADD12O,2.400000X1.600000*%
%ADD13RoundRect,0.250000X-0.550000X-0.550000X0.550000X-0.550000X0.550000X0.550000X-0.550000X0.550000X0*%
%ADD14C,1.800000*%
%ADD15R,1.800000X1.800000*%
%ADD16RoundRect,0.249999X-1.250001X1.250001X-1.250001X-1.250001X1.250001X-1.250001X1.250001X1.250001X0*%
%ADD17C,3.000000*%
%ADD18RoundRect,0.249999X1.250001X1.250001X-1.250001X1.250001X-1.250001X-1.250001X1.250001X-1.250001X0*%
%ADD19C,1.440000*%
%ADD20RoundRect,0.249999X1.250001X-1.250001X1.250001X1.250001X-1.250001X1.250001X-1.250001X-1.250001X0*%
G04 APERTURE END LIST*
D10*
%TO.C,C10*%
X165862000Y-95250000D03*
X170862000Y-95250000D03*
%TD*%
D11*
%TO.C,U2*%
X134366000Y-66675000D03*
D12*
X134366000Y-69215000D03*
X134366000Y-71755000D03*
X134366000Y-74295000D03*
X141986000Y-74295000D03*
X141986000Y-71755000D03*
X141986000Y-69215000D03*
X141986000Y-66675000D03*
%TD*%
D10*
%TO.C,R2*%
X141986000Y-60833000D03*
X134366000Y-60833000D03*
%TD*%
D13*
%TO.C,C12*%
X140462000Y-38481000D03*
D10*
X142462000Y-38481000D03*
%TD*%
D14*
%TO.C,D1*%
X111506000Y-38989000D03*
D15*
X111506000Y-36449000D03*
%TD*%
D10*
%TO.C,R6*%
X134415000Y-35814000D03*
X134415000Y-43434000D03*
%TD*%
D13*
%TO.C,CP1*%
X124714000Y-59563000D03*
D10*
X126714000Y-59563000D03*
%TD*%
%TO.C,R3*%
X121285000Y-74681000D03*
X128905000Y-74681000D03*
%TD*%
D13*
%TO.C,C8*%
X124460000Y-82809000D03*
D10*
X126460000Y-82809000D03*
%TD*%
%TO.C,R1*%
X129159000Y-67310000D03*
X121539000Y-67310000D03*
%TD*%
D16*
%TO.C,Input-Left1*%
X110998000Y-59516000D03*
D17*
X110998000Y-64516000D03*
%TD*%
%TO.C,SW1*%
X123190000Y-37846000D03*
D18*
X128190000Y-37846000D03*
%TD*%
D17*
%TO.C,9V-External1*%
X110617000Y-50720000D03*
D16*
X110617000Y-45720000D03*
%TD*%
D17*
%TO.C,Input_Right1*%
X110617000Y-81200000D03*
D16*
X110617000Y-76200000D03*
%TD*%
D10*
%TO.C,C5*%
X149320000Y-64516000D03*
D13*
X147320000Y-64516000D03*
%TD*%
D10*
%TO.C,C7*%
X149066000Y-74676000D03*
D13*
X147066000Y-74676000D03*
%TD*%
D10*
%TO.C,C6*%
X155194000Y-82169000D03*
X155194000Y-77169000D03*
%TD*%
%TO.C,C9*%
X149574000Y-84709000D03*
D13*
X147574000Y-84709000D03*
%TD*%
D10*
%TO.C,C2*%
X148431000Y-45466000D03*
D13*
X146431000Y-45466000D03*
%TD*%
D19*
%TO.C,RV2*%
X123317000Y-91948000D03*
X125857000Y-91948000D03*
X128397000Y-91948000D03*
%TD*%
D12*
%TO.C,U1*%
X141605000Y-47094000D03*
X141605000Y-49634000D03*
X141605000Y-52174000D03*
X141605000Y-54714000D03*
X133985000Y-54714000D03*
X133985000Y-52174000D03*
X133985000Y-49634000D03*
D11*
X133985000Y-47094000D03*
%TD*%
D10*
%TO.C,C11*%
X149447000Y-95250000D03*
D13*
X147447000Y-95250000D03*
%TD*%
D10*
%TO.C,C3*%
X155829000Y-69770000D03*
X155829000Y-64770000D03*
%TD*%
%TO.C,C4*%
X148685000Y-54737000D03*
D13*
X146685000Y-54737000D03*
%TD*%
D17*
%TO.C,Left-Speaker1*%
X170815000Y-59436000D03*
D20*
X170815000Y-64436000D03*
%TD*%
D10*
%TO.C,R4*%
X161798000Y-95250000D03*
X154178000Y-95250000D03*
%TD*%
%TO.C,R5*%
X141986000Y-80772000D03*
X134366000Y-80772000D03*
%TD*%
D17*
%TO.C,Right-Speaker1*%
X170942000Y-74803000D03*
D20*
X170942000Y-79803000D03*
%TD*%
D19*
%TO.C,RV1*%
X122936000Y-49652000D03*
X125476000Y-49652000D03*
X128016000Y-49652000D03*
%TD*%
D12*
%TO.C,U3*%
X141986000Y-87376000D03*
X141986000Y-89916000D03*
X141986000Y-92456000D03*
X141986000Y-94996000D03*
X134366000Y-94996000D03*
X134366000Y-92456000D03*
X134366000Y-89916000D03*
D11*
X134366000Y-87376000D03*
%TD*%
M02*
